<svg width="64" height="64" viewBox="0 0 64 64" fill="none" xmlns="http://www.w3.org/2000/svg">
<rect width="64" height="64" rx="32" fill="white"></rect>
<path d="M54.4135 29.5848L40.6998 29.4L35.303 29.5479L36.0423 30.6568L36.7815 30.6937L54.4135 29.5848Z" fill="#4F4F4F"></path>
<path d="M26.5437 41.6732L36.561 40.6013L43.2885 39.899C43.3624 39.899 43.4364 39.862 43.4733 39.7881L44.0278 39.1227L45.6172 39.0118L46.2087 39.0858L50.3487 38.6791L51.7533 33.0236L47.5763 33.2084L46.5414 34.5761L34.3432 35.3893L28.7985 35.6481L26.5437 41.6732Z" fill="#141414"></path>
<path d="M36.5596 40.6004L43.2871 39.8981C43.361 39.8981 43.4349 39.8611 43.4719 39.7872L43.8415 39.3436C43.9524 39.2327 44.1003 39.1588 44.2481 39.1218L45.6158 39.0479L46.2072 39.1218L46.3551 36.83L44.359 37.0149L44.1003 37.7542C43.9894 38.0868 43.6937 38.3086 43.361 38.3456L37.8903 38.9C37.8163 38.9 37.7424 38.937 37.6685 39.0109L36.5596 40.6004Z" fill="#141414"></path>
<path d="M17.9671 44.1118C19.6819 44.1118 21.072 42.9864 21.072 41.5982C21.072 40.21 19.6819 39.0847 17.9671 39.0847C16.2522 39.0847 14.8621 40.21 14.8621 41.5982C14.8621 42.9864 16.2522 44.1118 17.9671 44.1118Z" fill="#141414"></path>
<path d="M30.7193 45.6267C32.7403 45.6267 34.3787 43.707 34.3787 41.3388C34.3787 38.9707 32.7403 37.051 30.7193 37.051C28.6982 37.051 27.0598 38.9707 27.0598 41.3388C27.0598 43.707 28.6982 45.6267 30.7193 45.6267Z" fill="#141414"></path>
<path d="M36.7822 30.6941V37.3107L38.113 37.1998C38.2238 37.1998 38.3347 37.1258 38.3717 37.015L38.7044 36.0539L47.5388 35.2037C47.6497 35.2037 47.7606 35.1298 47.7976 35.0189L48.2042 33.91L50.2742 33.6882L50.496 34.3905C50.5329 34.5014 50.6438 34.6123 50.7917 34.5753L54.1184 34.3166C54.2663 34.3166 54.3772 34.1687 54.3772 34.0208V29.5851L36.7822 30.6941Z" fill="#828282"></path>
<path d="M36.7815 37.2734L35.5986 37.2365V30.6199L36.7815 30.6938V37.2734Z" fill="#CE640D"></path>
<path d="M35.9332 39.3447C35.157 41.1929 34.5656 40.6754 34.5656 40.6754C35.1939 36.6463 33.3457 36.0179 33.3457 36.0179C29.6863 34.7981 28.5774 40.1209 28.4295 40.8972C28.4295 40.9711 28.3925 41.0081 28.3186 41.045L27.4684 41.7843C27.4315 41.8213 27.3575 41.8583 27.2836 41.8583L24.9179 41.8952L18.0056 42.0061C18.0056 42.0061 14.7897 41.6365 12.5718 41.3408C11.8695 41.2299 11.2781 41.1559 10.9085 41.082C9.28203 40.7493 9.61471 37.8661 9.61471 37.8661L9.98435 37.2377L10.0583 33.3565C9.94739 30.0297 13.0893 24.1524 14.9745 22.3412C16.3422 21.0104 20.4083 20.7147 22.4413 20.6408C22.8109 20.6408 25.805 20.6778 28.7252 20.7147C31.7193 20.7517 34.6025 20.7887 34.6025 20.7887C35.7115 21.491 36.7095 37.4965 35.9332 39.3447Z" fill="#FDBA4D"></path>
<path d="M33.4517 41.8182C33.5346 40.412 32.8583 39.2282 31.9412 39.1741C31.0241 39.1201 30.2135 40.2162 30.1306 41.6224C30.0477 43.0287 30.7239 44.2124 31.641 44.2665C32.5581 44.3206 33.3688 43.2244 33.4517 41.8182Z" fill="white"></path>
<path d="M48.3523 42.7073C49.863 42.7073 51.0876 41.1351 51.0876 39.1957C51.0876 37.2563 49.863 35.6841 48.3523 35.6841C46.8416 35.6841 45.6169 37.2563 45.6169 39.1957C45.6169 41.1351 46.8416 42.7073 48.3523 42.7073Z" fill="#141414"></path>
<path d="M49.091 41.5985C49.7851 41.5985 50.3478 40.589 50.3478 39.3437C50.3478 38.0984 49.7851 37.0889 49.091 37.0889C48.3969 37.0889 47.8342 38.0984 47.8342 39.3437C47.8342 40.589 48.3969 41.5985 49.091 41.5985Z" fill="white"></path>
<path d="M23.7717 33.7995C22.8845 33.7995 20.297 34.1322 19.5947 37.7177L23.7347 37.6438C23.8826 37.6438 24.0304 37.5329 24.0304 37.3481L24.0674 34.0583C24.0674 33.9474 23.9195 33.7995 23.7717 33.7995Z" fill="white"></path>
<path d="M33.3833 21.9699L33.6421 27.4406L30.4262 27.6994C30.4262 27.6994 28.8367 27.8103 28.3932 28.8453C27.9496 29.8433 25.8057 30.4717 25.8057 30.4717C25.8057 30.4717 25.9166 26.9971 26.6189 25.999L28.2083 22.7831C28.2083 22.7831 28.6889 22.1548 29.7978 22.0439C30.9437 21.933 33.3833 21.9699 33.3833 21.9699Z" fill="#444444"></path>
<path d="M34.6008 30.9521V31.2478L32.5308 31.3587V31.026L34.6008 30.9521Z" fill="white"></path>
<path d="M40.6995 29.4V30.435L54.4132 29.5848L40.6995 29.4Z" fill="#BDBDBD"></path>
<path d="M19.8906 34.7966L11.4628 34.5378C11.4628 34.5378 11.2779 37.3101 13.0522 37.5689C14.8265 37.8276 17.4879 37.7907 17.4879 37.7907C17.4879 37.7907 18.0794 37.9015 18.8556 36.7557C19.6319 35.6467 19.8906 34.7966 19.8906 34.7966Z" fill="#CE640D"></path>
<path d="M11.0928 37.2371C11.0928 37.2371 11.1667 34.0952 10.0578 33.6146L9.98389 37.2002L11.0928 37.2371Z" fill="white"></path>
<path d="M31.0893 20.7503C33.0484 20.7872 34.6009 20.8242 34.6009 20.8242C35.7099 21.4896 36.7079 37.4951 35.9316 39.3802C35.1554 41.2284 34.564 40.7109 34.564 40.7109C35.1924 36.6818 33.3441 36.0535 33.3441 36.0535C29.6847 34.8336 28.5758 40.1565 28.4279 40.9327C28.4279 41.0067 28.391 41.0436 28.317 41.0806L27.4668 41.8199C27.4299 41.8568 27.3559 41.8938 27.282 41.8938L24.6576 41.9308L24.6206 32.8376C24.6206 31.5069 24.8794 30.2131 25.3599 28.9563L27.7995 22.9681C28.354 21.6005 29.6477 20.7503 31.0893 20.7503Z" fill="#F79433"></path>
<path d="M27.7649 21.9341L24.1794 30.7686L13.5706 30.4729L10.5396 30.3989C11.4637 27.257 13.5706 23.6715 14.9753 22.3407C15.0861 22.2299 15.271 22.119 15.4188 22.0081L27.7649 21.9341Z" fill="#FFF4DA"></path>
<path d="M28.3188 23.5238L25.5095 30.8058L35.0463 30.3622C35.0463 30.3622 34.7875 23.0063 34.344 21.6756L30.3149 21.8235C29.4277 21.8235 28.6515 22.7106 28.3188 23.5238Z" fill="#CE640D"></path>
</svg>