<svg width="134px" height="91px" viewBox="0 0 134 91" version="1.1" xmlns="http://www.w3.org/2000/svg" xmlns:xlink="http://www.w3.org/1999/xlink">
    <!-- Generator: Sketch 49.2 (51160) - http://www.bohemiancoding.com/sketch -->
    <title>Artboard</title>
    <desc>Created with Sketch.</desc>
    <defs></defs>
    <g id="Artboard" stroke="none" stroke-width="1" fill="none" fill-rule="evenodd" opacity="0.805706522">
        <g id="car" transform="translate(13.000000, 23.000000)" fill="#231F20" class="outline">
            <path d="M22.2946611,32.8927007 C22.1406332,32.5978102 21.8573971,32.3248175 21.4018833,32.0627737 C20.9777591,31.8175182 20.5346551,31.6262774 20.101771,31.4948905 C20.5280852,31.3671533 20.9668092,31.180292 21.3989633,30.9394161 C21.8471772,30.6890511 22.1420932,30.4408759 22.3121809,30.1766423 C22.4034297,30.5722628 22.4567189,30.9817518 22.4632888,31.4021898 C22.4720487,31.9116788 22.4099996,32.410219 22.2946611,32.8927007 M10.7053389,30.1072993 C10.8593668,30.4021898 11.1433329,30.6744526 11.5981167,30.9372263 C12.0222409,31.1824818 12.4660749,31.3744526 12.898959,31.5051095 C12.4726448,31.6328467 12.0331908,31.819708 11.6010367,32.0605839 C11.1535528,32.3116788 10.8579068,32.559854 10.6878191,32.8240876 C10.5973003,32.4277372 10.5432811,32.0182482 10.5367112,31.5978102 C10.5279513,31.0883212 10.5900004,30.589781 10.7053389,30.1072993 M18.8585979,31.1591241 C18.560762,31.1591241 18.0300592,31.1043796 17.8183621,30.7386861 C17.4738067,30.1416058 18.1497775,28.8985401 19.7061164,28 C20.0506717,27.8021898 20.3360978,27.7007299 20.5550948,27.7007299 C20.9419895,27.7007299 21.1478467,28.0255474 21.4792622,28.5978102 L21.6143104,28.8255474 C21.8238175,29.1729927 22.0055851,29.4737226 21.937696,29.7284672 C21.8771068,29.9583942 21.6077405,30.2080292 21.1376269,30.4708029 C20.3543475,30.9087591 19.5243488,31.1591241 18.8585979,31.1591241 M21.5033519,34.3605839 L21.3741437,34.5905109 C21.1091573,35.0693431 20.9441795,35.3408759 20.614224,35.3408759 C20.391577,35.3408759 20.0871712,35.2262774 19.7090363,35.0014599 C18.3096454,34.1664234 17.4438772,32.9109489 17.819092,32.2605839 C17.9782299,31.9846715 18.3541748,31.8328467 18.8768477,31.8328467 C19.5469785,31.8328467 20.3704073,32.0854015 21.1339769,32.5262774 C21.8055678,32.9145985 21.8917066,33.2 21.8982765,33.3817518 C21.9077664,33.659854 21.720159,33.9846715 21.5033519,34.3605839 M18.4644033,36.0262774 C18.4644033,35.5240876 18.408194,35.050365 18.3081854,34.6211679 C18.6257311,34.9189781 19.0045959,35.2043796 19.4352901,35.4620438 C19.8740141,35.7226277 20.2368191,35.8540146 20.5485249,35.870073 C19.8710941,36.4985401 19.072485,36.9554745 18.2030668,37.2131387 C18.3658546,36.9518248 18.4644033,36.5737226 18.4644033,36.0262774 M12.4456352,35.8350365 C12.7639108,35.8350365 13.1289059,35.7138686 13.56179,35.4635036 C13.9968641,35.2124088 14.3793789,34.9270073 14.7005745,34.6262774 C14.6012958,35.050365 14.5436266,35.5211679 14.5363267,36.0226277 C14.5290268,36.5357664 14.5961859,36.9160584 14.739264,37.1956204 C13.8654659,36.9226277 13.0778066,36.4481752 12.4237355,35.8328467 C12.4317654,35.8328467 12.4383353,35.8350365 12.4456352,35.8350365 M14.1421321,31.8408759 C14.439238,31.8408759 14.9706708,31.8956204 15.1816379,32.2613139 C15.5269232,32.8583942 14.8502225,34.1014599 13.2938836,35 C12.9500583,35.1985401 12.6646322,35.2992701 12.4456352,35.2992701 C12.0580105,35.2992701 11.8521533,34.9751825 11.5214678,34.4021898 L11.3864196,34.1744526 C11.1761825,33.8270073 10.9951449,33.5262774 11.062304,33.2715328 C11.1228932,33.0416058 11.3929895,32.7919708 11.8631031,32.5291971 C12.6456525,32.0919708 13.4763812,31.8408759 14.1421321,31.8408759 M11.4966481,28.6394161 L11.6265863,28.4094891 C11.8908427,27.9306569 12.0565505,27.659854 12.385776,27.659854 C12.608423,27.659854 12.9128288,27.7737226 13.2909637,27.9992701 C14.6903546,28.8335766 15.5568528,30.0890511 15.1816379,30.7386861 C15.0217701,31.0153285 14.6458252,31.1671533 14.1231523,31.1671533 C13.4522915,31.1671533 12.6303227,30.9145985 11.8660231,30.4737226 C11.1944322,30.0854015 11.1082934,29.8 11.1017235,29.6182482 C11.0922336,29.340146 11.279841,29.0153285 11.4966481,28.6394161 M14.5363267,26.9744526 C14.5363267,27.4766423 14.591806,27.950365 14.6918146,28.3788321 C14.3742689,28.0810219 13.9954041,27.7956204 13.5654399,27.5386861 C13.1267159,27.2773723 12.7631809,27.1467153 12.4522051,27.129927 C13.1296359,26.5014599 13.928245,26.0445255 14.7976632,25.7868613 C14.6348754,26.0489051 14.5363267,26.4262774 14.5363267,26.9744526 M18.260006,25.8051095 C19.1345341,26.0781022 19.9221934,26.5510949 20.5762645,27.1671533 C20.5689646,27.1671533 20.5623947,27.1649635 20.5550948,27.1649635 C20.2360892,27.1649635 19.8710941,27.2861314 19.43821,27.5364964 C19.0031359,27.7875912 18.6206211,28.0729927 18.2994255,28.3744526 C18.3987042,27.950365 18.4563734,27.479562 18.4636733,26.9781022 C18.4709732,26.4649635 18.4038141,26.0839416 18.260006,25.8051095 M16.5,29.9781022 C15.8101594,29.9781022 15.0721394,28.7715328 15.0721394,26.9744526 C15.0721394,25.7379562 15.541523,25.7379562 16.4759103,25.7379562 L16.9752235,25.7313869 C17.306639,25.7313869 17.5424258,25.7605839 17.6876938,25.9087591 C17.8541316,26.0773723 17.9351605,26.4350365 17.9278606,26.9708029 C17.9045009,28.6007299 17.2504298,29.9781022 16.5,29.9781022 M17.3548184,31.9927007 C17.2285301,32.2109489 17.1869207,32.4613139 17.2080904,32.7255474 C16.9883634,32.5766423 16.7518466,32.4868613 16.50073,32.4868613 C16.2481534,32.4868613 16.0116366,32.5759124 15.7926396,32.7255474 C15.8123494,32.4613139 15.7714699,32.2109489 15.6459116,31.9934307 C15.5232733,31.7810219 15.3327459,31.6167883 15.0933091,31.5007299 C15.3320159,31.3839416 15.5225433,31.219708 15.6451816,31.0072993 C15.7714699,30.7890511 15.8130793,30.5394161 15.7926396,30.2751825 C16.0116366,30.4240876 16.2481534,30.5138686 16.5,30.5138686 C16.7518466,30.5138686 16.9883634,30.4248175 17.2073604,30.2751825 C17.1883806,30.5394161 17.2285301,30.7890511 17.3540884,31.0065693 C17.4767267,31.219708 17.6672541,31.3832117 17.9059609,31.4992701 C17.6679841,31.6167883 17.4774567,31.780292 17.3548184,31.9927007 M16.50073,33.0226277 C17.1898406,33.0226277 17.9285906,34.229927 17.9285906,36.0262774 C17.9285906,37.2627737 17.458477,37.2627737 16.5240897,37.2627737 L16.0247765,37.2693431 C15.693361,37.2693431 15.4575742,37.240146 15.3123062,37.0912409 C15.1458684,36.9226277 15.0655695,36.5656934 15.0721394,36.029927 C15.0954991,34.4 15.7495702,33.0226277 16.50073,33.0226277 M16.50146,25 L16.3941514,25.0007299 C14.6582351,25.029927 13.0369271,25.7321168 11.8287936,26.980292 C10.62139,28.2270073 9.97242884,29.8708029 10.0008985,31.6058394 C10.0585677,35.1313869 12.971958,38 16.49781,38 L16.6065785,37.9992701 C18.3417649,37.9708029 19.9630729,37.2678832 21.1712064,36.020438 C22.37861,34.7729927 23.0275712,33.1291971 22.9991015,31.3941606 C22.9421623,27.8686131 20.027312,25 16.50146,25" id="Fill-1"></path>
            <path d="M105.771447,33.014659 C105.567471,34.1359677 104.612687,34.9501806 103.502389,34.9501806 L96.7046164,34.9479499 C96.7313793,34.8542596 96.7472924,34.7568515 96.7718853,34.6624177 C96.8160079,34.4891651 96.8601305,34.3151689 96.8948499,34.1396856 C96.9165495,34.0281496 96.9339092,33.9151264 96.9527156,33.8021033 C96.9845417,33.607287 97.0113046,33.4124708 97.0308343,33.2161674 C97.0409608,33.12099 97.0510873,33.025069 97.0590438,32.9284045 C97.0807434,32.6324623 97.0944865,32.3350329 97.0894233,32.0353728 C97.0120279,26.7039516 92.7292432,22.3659443 87.5430303,22.3659443 L87.3976428,22.3666879 C87.0721482,22.3718929 86.749547,22.3942001 86.4305623,22.4321224 C86.3857164,22.4373274 86.3430405,22.448481 86.2981946,22.4544296 C86.0226092,22.4908647 85.7484705,22.5354791 85.479395,22.5964521 C85.4750551,22.5971957 85.4707151,22.5986828 85.4663752,22.60017 C83.6595189,23.0091353 82.00673,23.9497557 80.6881155,25.3461865 C79.3687776,26.743361 78.5044088,28.4721691 78.1601079,30.3422562 C78.1601079,30.3459741 78.1586613,30.3489484 78.157938,30.3519227 C78.1073055,30.6329934 78.0718628,30.917782 78.0443766,31.2040578 C78.0400366,31.2479286 78.0306335,31.2903123 78.0277402,31.3341831 C78.000254,31.6635861 77.9879575,31.9952199 77.9930208,32.3305715 C77.9973607,32.6302316 78.0197836,32.9276609 78.0501631,33.2236031 C78.056673,33.2853197 78.0631829,33.3470363 78.0711394,33.4087529 C78.1340684,33.9285107 78.2324401,34.4400892 78.3749343,34.9412577 L25.8126307,34.9234119 C25.8553066,34.7694922 25.8849628,34.6111111 25.9211289,34.4549607 C25.9457218,34.3493733 25.9724847,34.2437859 25.993461,34.1367113 C26.0202239,34.0021245 26.0419235,33.8667941 26.0628998,33.7299766 C26.0896627,33.5582112 26.1113623,33.3857021 26.1294454,33.2124495 C26.1395718,33.1083493 26.151145,33.0057361 26.1591015,32.9016359 C26.1793545,32.6146165 26.1909277,32.32611 26.187311,32.0353728 C26.1091924,26.7039516 21.8264076,22.3659443 16.6409181,22.3659443 L16.4955305,22.3666879 C11.2304756,22.448481 7.01134318,26.9173571 7.09018519,32.3305715 C7.09452512,32.6280008 7.11694808,32.9224559 7.14660425,33.2161674 C7.15383746,33.2823454 7.16107067,33.3485235 7.1690272,33.4139579 C7.23195615,33.9233057 7.32815786,34.4259613 7.46775885,34.9189505 L4.86235595,34.9687699 C4.46308266,34.9665392 4.13975809,34.6311876 4.13975809,34.2207351 L4.13975809,34.0407903 L2.92168522,31.3185681 C2.88841245,31.2523901 -0.35206645,24.6665604 3.50974534,20.9970257 L3.70793535,20.8074145 L3.82149677,20.1270448 L8.51223464,13.5932653 L8.5484007,13.5352666 C9.05761881,12.596877 8.75888716,11.4235182 7.86703214,10.8636074 L5.19074377,9.18090079 C9.09523151,8.55183769 16.2532179,7.37104313 27.5225619,3.3743361 C27.5775344,3.35723391 33.152894,1.6380922 41.3719926,1.6380922 C49.9136925,1.6380922 58.0452692,3.4301041 65.555513,6.97248778 L79.8186834,13.2884003 L79.9279049,13.3367325 L80.0472529,13.3508604 C80.1383914,13.3605269 85.5531738,13.9955386 91.5010438,15.5852985 L96.2250545,20.2147865 C96.9585022,20.933822 97.8662702,21.4491183 98.8507104,21.7063947 L104.572904,23.1942851 C104.939628,24.2390057 105.23619,25.5729764 105.283929,27.210325 L105.288992,27.3679626 L106.344318,29.8700871 L105.771447,33.014659 Z M87.6609317,40.3604207 L87.5394137,40.3611642 C83.2190163,40.3611642 79.6515962,36.7481411 79.5864973,32.30529 C79.5828807,32.0257064 79.5930072,31.7483535 79.6154302,31.4754621 C79.6183235,31.4427448 79.6255567,31.4100276 79.6277266,31.3773104 C79.9655176,27.8453367 82.4993117,24.9513491 85.8222492,24.1966221 C85.8222492,24.1966221 85.8229726,24.1966221 85.8229726,24.1966221 C86.0479254,24.1453155 86.2793882,24.1081368 86.5115743,24.0769067 C86.5470171,24.0724453 86.5810132,24.0635224 86.6157326,24.0598045 C86.8804681,24.0278309 87.1495436,24.0092416 87.4215124,24.0047801 L87.5430303,24.0040365 C91.8627044,24.0040365 95.4308478,27.6178033 95.4959467,32.0599108 C95.5002867,32.3476737 95.4894368,32.6332059 95.4641206,32.9172509 C95.460504,32.9574039 95.4518241,32.9960697 95.4482075,33.0362226 C95.4228913,33.2823454 95.3903418,33.5277247 95.343326,33.7708732 C95.338986,33.7931804 95.3324761,33.8140004 95.3281362,33.8363076 C95.2746104,34.0973019 95.2109582,34.356809 95.1328395,34.6125983 C95.1299462,34.6230083 95.1256063,34.6326747 95.122713,34.6423412 C95.041701,34.904079 94.9476693,35.1628426 94.8406177,35.4186318 C93.6348413,38.2806458 90.8862208,40.3106012 87.6609317,40.3604207 Z M16.7580961,40.3604207 L16.6365782,40.3611642 C12.8695214,40.3611642 9.67605842,37.6129169 8.87678851,33.9642023 C8.87389523,33.9508179 8.8695553,33.9381772 8.86666202,33.9247929 C8.81892282,33.7009773 8.78492672,33.4727002 8.75527055,33.2429361 C8.75020731,33.2027831 8.74080413,33.1633737 8.7364642,33.1224772 C8.70608471,32.8540472 8.68800169,32.5811557 8.68366176,32.30529 C8.61856285,27.7962609 12.1324572,24.0731889 16.5194001,24.0047801 L16.6409181,24.0040365 C20.9605922,24.0040365 24.5287356,27.6178033 24.5938345,32.0599108 C24.5974511,32.3439558 24.5866013,32.6265137 24.5627317,32.9068409 C24.5591151,32.9469938 24.5511585,32.9849161 24.5475419,33.025069 C24.5222257,33.272679 24.4903996,33.5195454 24.4426604,33.7634374 C24.4412137,33.774591 24.4375971,33.7857446 24.4354271,33.7961547 C24.3262056,34.3478861 24.1620117,34.8892076 23.9399521,35.4171447 L23.908126,35.4929892 C23.531999,36.3644572 23.0133777,37.1742086 22.3479222,37.8783726 C20.8680071,39.4465689 18.8824904,40.3277034 16.7580961,40.3604207 Z M3.0338,9.55268749 C3.19510063,9.51922668 3.38171749,9.48427873 3.5799075,9.44858721 L7.31296812,11.7960484 C7.70790148,12.0429148 7.84533251,12.556724 7.63484604,12.9760994 L4.21932342,17.733482 L5.02727318,12.8749734 L3.0338,9.55268749 Z M104.033307,21.927236 L99.1118293,20.6468026 C98.3046029,20.4363714 97.5595821,20.0140217 96.9585022,19.424368 L93.6739007,16.2054387 C97.0807434,17.2397493 100.474566,18.5930529 102.978704,20.3278096 C103.108179,20.468345 103.561701,20.9962821 104.033307,21.927236 Z M106.871619,27.0028681 C106.668366,21.688549 104.142528,19.2005524 104.03403,19.0957085 L103.937828,19.0168897 C96.4521773,13.7813894 81.9228247,11.9246866 80.3416446,11.735819 L66.2036088,5.47567453 C58.4995149,1.84257489 50.1451552,0 41.3719926,0 C32.9178146,0 27.2925458,1.7332696 27.0299802,1.81654982 C15.7215769,5.82664117 8.609883,6.97248778 4.78930051,7.58742299 C3.82222009,7.7435734 3.05911625,7.86626301 2.50288226,7.99415764 C2.04212666,8.09974506 1.65731979,8.42914808 1.47431954,8.87529212 C1.29131928,9.32217973 1.3296553,9.83450181 1.57775446,10.247185 L3.35423129,13.2088379 L2.22729689,19.9917145 C-2.22474499,24.5275122 1.34918497,31.7617378 1.48950928,32.0376036 L2.55423806,34.4170385 C2.65188642,35.6417038 3.65223961,36.6076057 4.86814252,36.6076057 L4.87537573,36.6076057 L7.56974714,36.5555556 L8.11006806,36.5555556 C9.68690824,39.7729977 12.9259405,42 16.6365782,42 L16.7819657,41.9992564 C19.3323962,41.9591035 21.7157395,40.9009985 23.4922163,39.0197578 C24.1866047,38.2836201 24.7515185,37.4530487 25.1855112,36.5615041 L79.0244768,36.5800935 C80.6056569,39.7841513 83.8381792,42 87.5394137,42 L87.684078,41.9992564 C91.3585496,41.9420013 94.5172932,39.7454854 96.0680938,36.5860421 L103.503112,36.5882728 C105.380131,36.5882728 106.992414,35.212662 107.338161,33.3165498 L108,29.6789887 L106.871619,27.0028681 Z" id="Fill-3"></path>
            <path d="M14.2265267,11.0496204 L22.5973354,8.55008332 L21.4375075,13.8550268 L15.3348224,13.9127939 C15.1809316,13.9120533 15.0432771,13.8150343 14.9769205,13.6483984 L14.0648709,11.5510091 C13.9900433,11.3628958 14.0606353,11.1496019 14.2265267,11.0496204 Z M14.0260452,14.0823921 C14.2469984,14.6400667 14.7616147,15 15.3369401,15 L15.3397638,15 L22.2648467,14.9355675 L24,7 L13.894038,10.017219 L13.8163867,10.0483244 C13.1259962,10.3867802 12.8146852,11.2303277 13.1132896,11.9857434 L14.0260452,14.0823921 Z" id="Fill-6"></path>
            <path d="M26.8356263,7.16159855 C30.2340432,6.21334914 35.4270323,5.12700516 41.3829313,5.12700516 C42.3286217,5.12700516 43.275757,5.15462408 44.2062759,5.20909471 L45.7234263,13.8706933 L25.3415944,13.8331009 L26.8356263,7.16159855 Z M47,15 L45.0985048,4.13886177 L44.6859844,4.11047566 C43.6023056,4.03682522 42.4911735,4 41.3829313,4 C35.1301043,4 29.7044855,5.17457107 26.2547745,6.1596457 L25.949177,6.24710559 L24,14.9578044 L47,15 Z" id="Fill-8"></path>
            <path d="M67.6716508,11.4490414 L67.8553037,14.8863101 L49.8750168,14.4689539 L48.332037,6.22616885 C52.7330696,6.69902455 59.3040097,7.8053145 67.6716508,11.4490414 Z M69,16 L68.7175137,10.722368 L68.4129006,10.5869492 C59.2877833,6.56730575 52.2315274,5.51355533 47.7183854,5.07029936 L47,5 L48.9722408,15.5352842 L69,16 Z" id="Fill-10"></path>
            <path d="M76.4563848,14.841205 L71.3501146,14.8805631 L71.2127767,12.6961853 L76.4563848,14.841205 Z M78.0886802,15.9409628 C78.5764926,15.9409628 78.8729324,15.7759612 78.9712454,15.4504995 C79.123593,14.9426279 78.6335291,14.6133818 78.3701104,14.4370269 L70,11 L70.3167028,16 L78.0886802,15.9409628 Z" id="Fill-12"></path>
            <path d="M87.2106771,19.7470482 L86.5053395,19.7304969 C86.2702269,19.7297446 86.0351144,19.7530669 85.8000018,19.7628473 C85.3268651,19.7726276 84.8610075,19.8621553 84.3915103,19.9215896 C83.9307479,20.0269164 83.459067,20.1013974 83.0099511,20.2608921 C82.5506445,20.3895412 82.1109913,20.5761199 81.6691544,20.7604416 C81.2404198,20.9718474 80.8058619,21.1794915 80.401876,21.4435606 C80.1951516,21.5661909 79.9920668,21.6963447 79.7999005,21.8438021 C79.6077342,21.9882501 79.4017378,22.1176515 79.2212179,22.2801556 C79.0370585,22.4373933 78.846348,22.5863553 78.6687398,22.7518687 L78.1468336,23.2604463 C77.8163658,23.6170524 77.4909934,23.9796772 77.1932812,24.3663767 C76.5949452,25.136014 76.0708553,25.9643333 75.6159162,26.8302693 C75.160977,27.6962053 74.7737329,28.5990057 74.4476325,29.524376 C74.2896776,29.9885659 74.1390018,30.455765 74.0108909,30.9312399 C73.9133519,31.294617 73.8281873,31.6564895 73.7524855,32.029647 C72.0302678,32.0085816 70.3073223,31.9762313 68.5851047,31.9762313 L63.0923515,31.9521566 L52.107573,31.9047596 C50.2768978,31.8897129 48.4462227,31.9077689 46.6148197,31.9130353 L41.1227944,31.9371099 L30.5281717,31.984507 C30.4721232,31.5579338 30.4146189,31.1260943 30.3287264,30.6889885 C30.2188131,30.1187196 30.084879,29.5522124 29.9101823,28.9984948 C29.5702518,27.8888027 29.1022104,26.8219936 28.5206162,25.8281609 C28.2287273,25.3293637 27.9062664,24.8561459 27.5576011,24.39647 C27.3799928,24.1617419 27.2002009,23.9450699 27.019681,23.7351688 C26.8224194,23.5162397 26.6200625,23.3258993 26.4206172,23.1197599 C26.0202707,22.7165091 25.6352102,22.2967069 25.1722641,21.9656801 C24.7260598,21.6165973 24.2965973,21.2441922 23.7987119,20.9748567 L23.0759046,20.5354939 C22.8356967,20.3880365 22.5678285,20.2939948 22.3145184,20.1736214 C22.0575688,20.0607714 21.8035308,19.9419027 21.5451254,19.8358236 L20.7451604,19.5830395 C20.2188868,19.3904421 19.6649529,19.3121994 19.1219375,19.1955877 C18.8518856,19.12863 18.572371,19.121859 18.2972238,19.0872517 C18.0213487,19.0639293 17.7469294,19.018037 17.4703265,19.013523 C16.9171205,19.006752 16.3646424,18.9789156 15.814348,19.0308266 C15.2625978,19.0488826 14.7166708,19.135401 14.1714717,19.2091297 L13.3605882,19.3686244 L12.5598953,19.5702498 C12.0321659,19.7267352 11.5051644,19.8869823 11,20.1074161 C11.516083,19.9163233 12.0496356,19.7869219 12.5817324,19.6612822 L13.3860648,19.5070538 L14.1962204,19.3919468 C14.7385079,19.3415404 15.2800674,19.2798491 15.8238107,19.2851154 C16.3668261,19.2572791 16.9083856,19.3084377 17.4492173,19.3377788 C17.7199971,19.3535778 17.9864094,19.4100028 18.2542776,19.4438578 C18.5206899,19.4897501 18.7921976,19.5063015 19.0527868,19.5837918 C19.5761488,19.7199642 20.1089735,19.8177676 20.6104984,20.0269164 L21.3711566,20.3015181 L22.0983314,20.6596289 C22.3363555,20.7867733 22.5896656,20.8845767 22.8167712,21.0305294 L23.498816,21.4706446 C23.9690411,21.7384753 24.3715713,22.1086235 24.7901153,22.4531923 C25.2246731,22.7782004 25.5835291,23.1934886 25.9576711,23.5892161 C26.1411025,23.7878321 26.3390921,23.9849435 26.5101492,24.1835596 C26.6884853,24.4017364 26.8588145,24.6191608 27.0131299,24.8350805 C27.3290396,25.273691 27.6274797,25.7341192 27.8902526,26.2118511 C28.417982,27.1680671 28.8357981,28.1882315 29.1313265,29.2437556 C29.2834582,29.7703891 29.397011,30.3083077 29.4872709,30.8492355 C29.5797146,31.3848971 29.6292119,31.939367 29.6925395,32.5066265 L29.7376694,32.911382 L30.1380159,32.9128867 L41.1227944,32.9625407 L46.6148197,32.985863 C48.4462227,32.9911294 50.2768978,33.0091854 52.107573,32.9941387 L63.0923515,32.9467417 L68.5851047,32.922667 C70.4157798,32.922667 72.2464549,32.8858026 74.07713,32.8654896 L74.4243396,32.861728 L74.4752928,32.5103882 C74.5400761,32.0665113 74.6427104,31.5925411 74.7533516,31.1373793 C74.8647207,30.6777035 74.9993827,30.2240463 75.1398679,29.7726461 C75.4317568,28.8728551 75.7840617,27.9933771 76.2011499,27.1492588 C76.618966,26.3043881 77.1022934,25.4956295 77.658411,24.7432958 C77.9342861,24.364872 78.2363656,24.0105229 78.5449964,23.6606878 C78.8660014,23.3236423 79.1928297,22.9933678 79.5429509,22.6879204 C79.7096406,22.524664 79.901079,22.3937579 80.080143,22.2463005 C80.2584791,22.0973385 80.4477338,21.9641754 80.6428117,21.8385357 C81.0191374,21.5669433 81.4289466,21.3517759 81.8336604,21.1283328 C82.2522044,20.932726 82.6714764,20.73411 83.1118574,20.5904142 C83.5420479,20.4158728 83.9977149,20.3248405 84.4439192,20.2022101 C84.8995863,20.1239674 85.3530696,20.0163837 85.8174715,19.9870427 C86.0482166,19.9667297 86.2796897,19.9343793 86.5111627,19.924599 L87.2084934,19.9088 C87.675079,19.879459 88.138753,19.9388933 88.6060665,19.9501783 C89.0719242,19.9862903 89.5341423,20.055505 90,20.1074161 C89.5385097,20.0291734 89.0784753,19.9328746 88.6140734,19.8696786 C88.1474878,19.8313096 87.6809022,19.7447912 87.2106771,19.7470482" id="Fill-14"></path>
            <path d="M93.2954889,32.8773723 C93.1502365,32.6072993 92.87287,32.3343066 92.401347,32.0627737 C91.9772682,31.8175182 91.5342118,31.6255474 91.1006442,31.4948905 C91.5269126,31.3671533 91.9663195,31.180292 92.3984273,30.9386861 C92.8465932,30.6883212 93.1414775,30.440146 93.311547,30.1759124 C93.4027859,30.5715328 93.4567994,30.9817518 93.4626387,31.4021898 C93.4713976,31.9109489 93.4086252,32.4036496 93.2954889,32.8773723 M81.7044897,30.1226277 C81.8504721,30.3927007 82.1271087,30.6649635 82.5986317,30.9372263 C83.0227104,31.1824818 83.4657669,31.3737226 83.8986046,31.5051095 C83.473066,31.6328467 83.0336591,31.819708 82.6022812,32.0605839 C82.1541154,32.3116788 81.8585011,32.559854 81.6891616,32.8240876 C81.5979226,32.4277372 81.5439091,32.0182482 81.5373399,31.5978102 C81.5293109,31.0890511 81.5920833,30.5963504 81.7044897,30.1226277 M89.8583343,31.1591241 C89.5605303,31.1591241 89.0298844,31.1043796 88.81821,30.7386861 C88.6474106,30.4416058 88.7291608,29.989781 89.0430228,29.4992701 C89.3948403,28.9489051 89.9853389,28.4160584 90.7057619,28 C91.0502802,27.8021898 91.3356758,27.7007299 91.5539194,27.7007299 C91.9422324,27.7007299 92.1480676,28.0255474 92.4794475,28.5978102 L92.6137513,28.8248175 C92.8239659,29.1729927 93.0057139,29.4737226 92.9378321,29.7284672 C92.8765195,29.9583942 92.607912,30.2080292 92.136389,30.4708029 C91.3539235,30.9080292 90.5232839,31.1591241 89.8583343,31.1591241 M92.5028047,34.3605839 L92.3728804,34.5919708 C92.1093822,35.0693431 91.9436923,35.340146 91.6137721,35.340146 C91.391879,35.340146 91.0875057,35.2262774 90.7094114,35.0007299 C89.3087107,34.1664234 88.4437653,32.9109489 88.81821,32.2605839 C88.9780607,31.9846715 89.3546952,31.8328467 89.8765821,31.8328467 C90.547371,31.8328467 91.3692517,32.0854015 92.1334693,32.5262774 C93.2049798,33.1445255 92.9699482,33.5510949 92.5028047,34.3605839 M89.4641819,36.0262774 C89.4641819,35.5233577 89.4079787,35.049635 89.3072509,34.620438 C89.6254924,34.9189781 90.0043167,35.2043796 90.4349646,35.4613139 C90.8721818,35.7211679 91.234218,35.8525547 91.5451604,35.8693431 C90.8845903,36.4810219 90.0889864,36.9445255 89.2043333,37.2094891 C89.3656438,36.9481752 89.4641819,36.5715328 89.4641819,36.0262774 M83.4460593,35.8350365 C83.7643008,35.8350365 84.1292567,35.7138686 84.5620944,35.4635036 C84.9905526,35.2160584 85.3737563,34.9277372 85.7036764,34.6175182 C85.6029486,35.0437956 85.5445556,35.5175182 85.5372565,36.0226277 C85.5292275,36.5350365 85.5963794,36.9160584 85.7394421,37.1948905 C84.8657377,36.9218978 84.0781629,36.4481752 83.4248918,35.8328467 C83.4321909,35.8328467 83.4387601,35.8350365 83.4460593,35.8350365 M85.1423742,31.8408759 C85.4394483,31.8408759 85.9708241,31.8956204 86.1824985,32.2613139 C86.3532979,32.5583942 86.2715478,33.010219 85.9569558,33.5007299 C85.6051383,34.0510949 85.0146397,34.5839416 84.2942167,34.9992701 C83.9504283,35.1978102 83.6650328,35.2985401 83.4460593,35.2985401 C83.059206,35.2985401 82.852641,34.9751825 82.521261,34.4021898 L82.3869573,34.1744526 C82.1767427,33.8270073 81.9957245,33.5262774 82.0628764,33.2722628 C82.1234591,33.0416058 82.3927965,32.7919708 82.8643196,32.5284672 C83.646785,32.0912409 84.4766947,31.8408759 85.1423742,31.8408759 M82.4971739,28.6394161 L82.6270982,28.4094891 C82.8913263,27.9306569 83.0570163,27.659854 83.3869364,27.659854 C83.6088296,27.659854 83.9132028,27.7737226 84.2912971,27.9985401 C85.6912679,28.8335766 86.5569433,30.0890511 86.1824985,30.7386861 C86.0226479,31.0153285 85.6467433,31.1671533 85.1233965,31.1671533 C84.4533375,31.1671533 83.6307269,30.9145985 82.8665093,30.4737226 C81.7957287,29.8554745 82.0300304,29.4489051 82.4971739,28.6394161 M85.5365266,26.9737226 C85.5365266,27.4759124 85.5919999,27.950365 85.6927277,28.3788321 C85.3744862,28.0810219 84.9963919,27.7956204 84.5657439,27.5379562 C84.1285268,27.2781022 83.7657606,27.1474453 83.4555481,27.129927 C84.1153884,26.5189781 84.9117221,26.0547445 85.7963752,25.7905109 C85.6350647,26.0518248 85.5365266,26.4284672 85.5365266,26.9737226 M89.2605365,25.8051095 C90.1349709,26.0781022 90.9225457,26.5510949 91.5765466,27.1671533 C91.5685176,27.1671533 91.5619484,27.1649635 91.5539194,27.1649635 C91.2356778,27.1649635 90.8707219,27.2861314 90.4378843,27.5364964 C90.009426,27.7832117 89.6269523,28.0722628 89.2970321,28.3817518 C89.39776,27.9554745 89.4561529,27.4817518 89.463452,26.9773723 C89.4707511,26.4642336 89.4043292,26.0839416 89.2605365,25.8051095 M87.4999893,29.9773723 C86.8109526,29.9773723 86.0722819,28.7708029 86.0722819,26.9737226 C86.0722819,25.7372263 86.5416151,25.7372263 87.4759022,25.7372263 L87.974432,25.7306569 C88.3065418,25.7306569 88.5415734,25.7605839 88.6882857,25.9087591 C88.8547056,26.0773723 88.9349959,26.4343066 88.9276968,26.970073 C88.9043396,28.6 88.2503386,29.9773723 87.4999893,29.9773723 M88.354716,31.9927007 C88.2291712,32.2109489 88.1875662,32.4613139 88.2072738,32.7255474 C87.9883003,32.5766423 87.7518089,32.4868613 87.5007192,32.4868613 C87.2481697,32.4868613 87.0116783,32.5759124 86.7927048,32.7255474 C86.8109526,32.4591241 86.7708074,32.2087591 86.6459925,31.9934307 C86.5233673,31.7810219 86.3335903,31.6167883 86.0941792,31.5007299 C86.3328604,31.3832117 86.5233673,31.219708 86.6459925,31.0065693 C86.7715374,30.7890511 86.8131423,30.5386861 86.7927048,30.2744526 C87.0124082,30.4233577 87.2488997,30.5131387 87.4999893,30.5131387 C87.7518089,30.5131387 87.9883003,30.4240876 88.2072738,30.2744526 C88.189026,30.5408759 88.2299011,30.7912409 88.354716,31.0065693 C88.4773412,31.219708 88.6671183,31.3832117 88.9065293,31.4992701 C88.6678482,31.6160584 88.4773412,31.780292 88.354716,31.9927007 M87.5007192,33.0226277 C88.189756,33.0226277 88.9284267,34.229927 88.9284267,36.0262774 C88.9284267,37.2620438 88.4590934,37.2620438 87.5248063,37.2620438 L87.0248167,37.2686131 C86.6927069,37.2686131 86.4584052,37.2394161 86.3124228,37.0912409 C86.146003,36.9226277 86.0657127,36.5656934 86.0730118,36.029927 C86.095639,34.3992701 86.74964,33.0226277 87.5007192,33.0226277 M87.5021791,25 L87.3941521,25.0007299 C83.8102852,25.0591241 80.9431917,28.0226277 81.0008548,31.6058394 C81.0592477,35.1313869 83.9737855,38 87.4992594,38 L87.6065564,37.9992701 C91.1896934,37.940146 94.0575168,34.9766423 93.9991239,31.3941606 C93.9414608,27.8686131 91.0269231,25 87.5021791,25" id="Fill-16"></path>
        </g>
    </g>
</svg>