<svg width="134px" height="91px" viewBox="0 0 134 91" version="1.1" xmlns="http://www.w3.org/2000/svg" xmlns:xlink="http://www.w3.org/1999/xlink">
    <!-- Generator: Sketch 49.2 (51160) - http://www.bohemiancoding.com/sketch -->
    <title>Artboard</title>
    <desc>Created with Sketch.</desc>
    <defs></defs>
    <g id="Artboard" stroke="none" stroke-width="1" fill="none" fill-rule="evenodd" opacity="0.805706522">
        <g id="van" transform="translate(13.000000, 20.000000)" fill="#231F20" class="outline">
            <path d="M23.616299,38.6058 L23.8537164,38.46855 L26.1237871,40.15305 C25.496915,40.7598 24.7554535,41.2098 23.9450885,41.4723 L23.616299,38.6058 Z M22.2921535,41.74605 L22.1985346,41.74605 C21.825557,41.74605 21.4615668,41.7078 21.1080619,41.6373 L21.4900269,38.30955 L20.6272353,37.8108 L17.9504843,39.7983 C17.4456913,39.22155 17.0532409,38.5443 16.8143255,37.7988 L19.8580626,36.4758 L19.8580626,35.47905 L16.8757395,34.18305 C17.1296339,33.46755 17.526578,32.8068 18.0560864,32.2353 L20.6272353,34.14405 L21.4900269,33.6453 L21.1327773,30.52455 C21.4510815,30.4638 21.7761262,30.42555 22.1071626,30.41955 L22.2007815,30.41955 C22.605964,30.41955 23.0021591,30.4653 23.3833752,30.54855 L23.0291213,33.6453 L23.8919129,34.14405 L26.3829241,32.29455 C26.8869682,32.8518 27.2831633,33.50655 27.5363087,34.22955 L24.6610857,35.47905 L24.6610857,36.4758 L27.6014675,37.7538 C27.3775311,38.48205 27.0060514,39.1578 26.5027563,39.7488 L23.8919129,37.8108 L23.0291213,38.30955 L23.4080906,41.61705 C23.0448493,41.6958 22.6718717,41.7393 22.2921535,41.74605 Z M20.570315,41.5023 C19.7262472,41.24505 18.964564,40.7913 18.3354451,40.19805 L20.6654318,38.46855 L20.9021003,38.6058 L20.570315,41.5023 Z M16.5454521,36.17505 C16.5372136,35.67555 16.5993766,35.18655 16.715464,34.7148 L19.3075836,35.8398 L19.3075836,36.1143 L16.6712759,37.2603 C16.5956318,36.9093 16.5506948,36.5463 16.5454521,36.17505 Z M20.9021003,33.3498 L20.6654318,33.4863 L18.4537794,31.8453 C19.0776556,31.2903 19.805636,30.88755 20.5935325,30.65505 L20.9021003,33.3498 Z M23.921122,30.6933 C24.6962864,30.94455 25.3988024,31.3623 25.9904738,31.9008 L23.8537164,33.4863 L23.616299,33.3498 L23.921122,30.6933 Z M27.8546129,35.9898 C27.8613535,36.4053 27.8186633,36.81405 27.7392745,37.21305 L25.2108157,36.1143 L25.2108157,35.8398 L27.6935885,34.76205 C27.7894542,35.1573 27.8471234,35.56755 27.8546129,35.9898 Z M22.2007815,29.86905 L22.0989241,29.86905 C20.4407465,29.8968 18.8926647,30.5688 17.740029,31.7613 C16.5873934,32.9538 15.9680108,34.5243 15.9949731,36.18405 C16.0496465,39.5553 18.8319997,42.29655 22.1985346,42.29655 L22.3011409,42.29655 C23.9585696,42.2688 25.5059024,41.5968 26.6592871,40.4043 C27.8126717,39.2118 28.4320542,37.64055 28.405092,35.9808 C28.3496696,32.6103 25.5673164,29.86905 22.2007815,29.86905 Z" id="Fill-1"></path>
            <path d="M88.8700821,38.6058 L89.1074996,38.46855 L91.3775702,40.15305 C90.7492003,40.7538 90.0077387,41.1963 89.1966248,41.45055 L88.8700821,38.6058 Z M87.5998611,41.7093 L87.5054933,41.7093 C87.1160387,41.7093 86.7355716,41.66805 86.3670877,41.5908 L86.7438101,38.30955 L85.8810185,37.8108 L83.2649324,39.7533 C82.767629,39.17805 82.3834171,38.5038 82.1489954,37.76355 L85.1110968,36.4758 L85.1110968,35.47905 L82.2089115,34.21755 C82.4575632,33.5073 82.8492646,32.8503 83.3712835,32.28105 L85.8810185,34.14405 L86.7438101,33.6453 L86.3910541,30.56955 C86.7250863,30.5028 87.0673569,30.4623 87.4156192,30.4563 L87.509238,30.4563 C87.8941989,30.4563 88.2701723,30.49605 88.6349115,30.5718 L88.2829045,33.6453 L89.1449471,34.14405 L91.6389541,32.29305 C92.1474919,32.8473 92.5474317,33.5013 92.8028241,34.22355 L89.9148688,35.47905 L89.9148688,36.4758 L92.8694807,37.7598 C92.6425485,38.48805 92.2673241,39.16305 91.7595352,39.7518 L89.1449471,37.8108 L88.2829045,38.30955 L88.6588779,41.59005 C88.3136115,41.6613 87.9593576,41.70255 87.5998611,41.7093 Z M85.8293408,41.4498 C85.0054947,41.18805 84.2632842,40.7388 83.6476464,40.1538 L85.918466,38.46855 L86.1558835,38.6058 L85.8293408,41.4498 Z M81.8891094,36.17505 C81.8808709,35.68755 81.940038,35.2113 82.0516317,34.75005 L84.5613667,35.8398 L84.5613667,36.1143 L82.0081926,37.22355 C81.9370422,36.8838 81.895101,36.53355 81.8891094,36.17505 Z M86.1558835,33.3498 L85.918466,33.4863 L83.7674786,31.88955 C84.3763758,31.3428 85.0841345,30.94155 85.8525583,30.70605 L86.1558835,33.3498 Z M89.1726583,30.71205 C89.9478227,30.9558 90.6503387,31.3683 91.243508,31.90155 L89.1074996,33.4863 L88.8700821,33.3498 L89.1726583,30.71205 Z M93.1263709,35.99055 C93.1323625,36.40905 93.0896723,36.8193 93.0080366,37.21905 L90.4645989,36.1143 L90.4645989,35.8398 L92.9623506,34.7553 C93.0597143,35.1528 93.1188814,35.5653 93.1263709,35.99055 Z M87.509238,29.90505 L87.4066317,29.9058 C84.0048961,29.96205 81.283208,32.77755 81.3378814,36.1833 C81.3933038,39.5343 84.159929,42.26055 87.5054933,42.26055 L87.6073506,42.2598 C89.2565408,42.2328 90.7941373,41.56455 91.9407814,40.3788 C93.0866765,39.1938 93.7023143,37.6323 93.676101,35.9823 C93.6214276,32.63055 90.8540534,29.90505 87.509238,29.90505 Z" id="Fill-3"></path>
            <path d="M6.81605371,14.1363 C6.49700056,13.7283 6.3846579,13.1658 6.50224322,12.6798 L8.93633413,5.5638 C9.09810755,4.90455 9.60964112,4.4448 10.1803418,4.4448 L34.7122334,4.4448 C35.4274817,4.4448 36.0094166,5.1423 36.0094166,6.00105 L36.0094166,13.0698 C36.0094166,13.92855 35.4274817,14.62755 34.7122334,14.62755 L7.75973203,14.62755 C7.39873762,14.62755 7.06470545,14.4528 6.81605371,14.1363 M37.1088768,13.0698 L37.1088768,6.00105 C37.1088768,4.53555 36.034132,3.3423 34.7122334,3.3423 L10.1803418,3.3423 C9.10260126,3.3423 8.15143343,4.1478 7.88181105,5.2533 L5.44772014,12.3693 C5.23651594,13.2288 5.42450266,14.14305 5.95026629,14.81655 C6.40487958,15.3963 7.0639565,15.7293 7.75973203,15.7293 L34.7122334,15.7293 C36.034132,15.7293 37.1088768,14.5368 37.1088768,13.0698" id="Fill-5"></path>
            <path d="M41.1207829,5.58195 C41.1207829,5.01945 41.5274633,4.56195 42.0202731,4.56195 L66.2975213,4.8627 C66.77685,4.8627 67.1693003,5.28345 67.2015052,5.81445 L65.5493192,11.67045 C65.0879654,13.4112 63.6050423,14.6277 61.9446178,14.6277 L41.9491227,14.6277 C41.4495724,14.6277 41.042892,14.16945 41.042892,13.6122 L41.1207829,5.58195 Z M41.9491227,15.7287 L61.9446178,15.7287 C64.1038437,15.7287 66.0241542,14.1762 66.6105829,11.96145 L68.2829906,6.0327 L68.3039612,5.88345 C68.3039612,4.71345 67.403722,3.76095 66.3042619,3.76095 L42.0270136,3.45945 C40.9208129,3.45945 40.0205738,4.41195 40.0205738,5.5767 L39.9434318,13.60695 C39.9434318,14.77695 40.843671,15.7287 41.9491227,15.7287 Z" id="Fill-7"></path>
            <path d="M95.9829451,15.336 C95.953736,15.43275 95.923029,15.46575 95.7979542,15.46575 L78.8050038,14.62725 C77.3894864,14.62725 76.1492234,13.611 75.7223213,12.1155 L74.1308003,5.7975 C74.1577626,5.3715 74.4753178,5.18025 74.7681577,5.1795 L82.7482311,5.544 C83.0987402,5.55975 83.5353787,5.5785 83.8162353,5.69175 C84.4094045,5.93025 85.2077864,6.27825 86.0997871,6.82875 L92.8081416,11.772 L95.3126339,13.87875 L95.3613157,13.91475 C95.8458871,14.23875 96.0975346,14.9565 95.9829451,15.336 M95.9986731,13.017 L93.4881892,10.9065 L86.7154248,5.916 C85.7155752,5.29725 84.8602731,4.9245 84.2266605,4.6695 C83.7698003,4.4865 83.2305556,4.4625 82.7692017,4.443 L74.7928731,4.0785 C73.7870318,4.0785 73.0283444,4.8435 73.0283444,5.85825 L74.6603087,12.40125 C75.2265157,14.391 76.8921829,15.72825 78.7772927,15.72825 L78.7780416,15.72825 L95.7140717,16.56525 L95.7979542,16.5675 C96.4008598,16.5675 96.8629626,16.22625 97.0359703,15.65475 C97.2988521,14.787 96.8240171,13.587 95.9986731,13.017" id="Fill-9"></path>
            <path d="M105.37187,37.944075 C105.37187,38.117325 105.243051,38.264325 105.07229,38.287575 L101.403928,38.775075 L95.9583046,38.775075 C95.9627983,38.757075 95.9665431,38.739825 95.9725347,38.722575 C96.0114801,38.596575 96.044434,38.469075 96.0781368,38.341575 C96.1163333,38.197575 96.151534,38.053575 96.182241,37.908825 C96.2054585,37.800075 96.2256801,37.691325 96.2444039,37.581825 C96.2751109,37.402575 96.2998263,37.223325 96.3185501,37.041825 C96.3282864,36.954075 96.3402697,36.866325 96.3470102,36.777075 C96.3687298,36.502575 96.380713,36.225825 96.3769683,35.947575 C96.3717256,35.640075 96.350755,35.337075 96.3155543,35.037825 C96.3058179,34.953075 96.2855962,34.870575 96.273613,34.786575 C96.2421571,34.572075 96.2099522,34.358325 96.1627683,34.149075 C96.1455424,34.071825 96.120078,33.998325 96.1006053,33.921825 C96.0474298,33.708075 95.9912585,33.495075 95.922355,33.288075 C95.9013843,33.228075 95.87592,33.171075 95.8549494,33.111825 C95.7763095,32.890575 95.6931759,32.672325 95.5973102,32.459325 C95.5785864,32.418075 95.5568669,32.379075 95.5373941,32.337825 C95.4310431,32.110575 95.3172025,31.887075 95.1921277,31.670325 C95.1793955,31.646325 95.1629186,31.623825 95.1494375,31.600575 C95.0131284,31.368825 94.8685808,31.143825 94.712799,30.925575 C94.7060585,30.916575 94.698569,30.908325 94.6918284,30.899325 C94.0132787,29.958075 93.1564787,29.156325 92.173106,28.538325 L92.1671144,28.535325 C91.9252032,28.383075 91.6758025,28.243575 91.4189123,28.115325 C91.4054312,28.107825 91.3904522,28.101075 91.3762221,28.094325 C91.133562,27.975075 90.8864081,27.866325 90.6325137,27.768825 C90.5988109,27.756075 90.5651081,27.744075 90.5306564,27.731325 C90.2969836,27.645825 90.0610641,27.568575 89.8191529,27.501825 C89.7592368,27.485325 89.6993207,27.471075 89.6386557,27.455325 C89.4229578,27.400575 89.205013,27.353325 88.9833235,27.315075 C88.8934494,27.299325 88.8028263,27.286575 88.7114543,27.273075 C88.5182249,27.246075 88.3242466,27.224325 88.1280214,27.210075 C88.0059424,27.201075 87.8823655,27.195075 87.7595375,27.191325 C87.6689144,27.189075 87.5805382,27.177825 87.4891662,27.177825 L87.3521081,27.178575 C87.2959368,27.179325 87.2412634,27.187575 87.185092,27.189825 C87.1326655,27.191325 87.0824857,27.186825 87.0315571,27.189075 C86.9334445,27.194325 86.8383277,27.209325 86.7409641,27.218325 C86.6001613,27.229575 86.4593585,27.241575 86.3200536,27.259575 C86.2077109,27.274575 86.0968662,27.294825 85.9860214,27.314325 C85.7950389,27.346575 85.6048053,27.381825 85.4175676,27.426825 C85.395848,27.432075 85.3741284,27.438825 85.3524088,27.444075 C83.7496536,27.837825 82.2832074,28.665825 81.1058564,29.880825 C80.0019025,31.020075 79.2469599,32.402325 78.8717354,33.901575 C78.862748,33.938325 78.8552585,33.975825 78.8455221,34.012575 C78.7960913,34.223325 78.7504053,34.434075 78.7159536,34.648575 C78.6972298,34.761825 78.6852466,34.876575 78.6710165,34.990575 C78.6522927,35.145075 78.63282,35.298825 78.6215857,35.454075 C78.6185899,35.493075 78.6125983,35.530575 78.6103515,35.569575 C78.602113,35.708325 78.6058578,35.845575 78.6043599,35.983575 C78.6036109,36.060825 78.5953724,36.137325 78.5961214,36.215325 C78.5968703,36.234825 78.5998662,36.254325 78.5998662,36.273825 C78.6118494,36.845325 78.6770081,37.408575 78.7983382,37.961325 C78.8073256,38.007075 78.8223046,38.052075 78.8327899,38.097825 C78.876978,38.286075 78.9211662,38.474325 78.9780864,38.659575 L30.7958186,38.285325 C30.8122955,38.218575 30.8175382,38.148825 30.8332662,38.082075 C30.8894375,37.839075 30.9343745,37.592325 30.9703242,37.342575 C30.9860522,37.233075 31.004027,37.123575 31.0160102,37.013325 C31.0527088,36.663075 31.0751773,36.308325 31.0691857,35.947575 C31.064692,35.643075 31.0444703,35.342325 31.0092697,35.045325 C30.9920438,34.895325 30.9605878,34.749825 30.9343745,34.601325 C30.9104081,34.458825 30.8931822,34.312575 30.8617263,34.171575 C30.819785,33.983325 30.7636137,33.800325 30.7104382,33.615825 C30.682727,33.521325 30.6617564,33.423825 30.6310494,33.330825 C30.5636438,33.124575 30.4820081,32.924325 30.3996235,32.724825 C30.3726613,32.658825 30.3516906,32.590575 30.3232305,32.525325 C30.2296116,32.313075 30.1232606,32.107575 30.0146627,31.904325 C29.9891983,31.856325 29.9674787,31.806825 29.9412655,31.759575 C29.8244291,31.551075 29.6956095,31.350825 29.5630452,31.152825 C29.5375808,31.114575 29.5158613,31.074075 29.489648,31.036575 C29.3525899,30.837825 29.2042976,30.648825 29.0522606,30.462075 C29.0252983,30.429075 28.999834,30.393825 28.9728717,30.360825 C28.8193368,30.178575 28.6560655,30.006075 28.4890494,29.836575 C28.4568445,29.803575 28.4268864,29.768325 28.3939326,29.736075 C28.2291634,29.574825 28.0569046,29.423325 27.8801522,29.274825 C27.8382109,29.239575 27.7985165,29.201325 27.7558263,29.166825 C27.5865634,29.028825 27.408313,28.901325 27.2285648,28.776075 C27.1731424,28.737075 27.1199669,28.695075 27.0630466,28.657575 C26.8930347,28.544325 26.7162822,28.442325 26.5372829,28.340325 C26.4646347,28.299075 26.3942333,28.254825 26.3193382,28.215075 C26.153071,28.125825 25.9800634,28.047075 25.8070557,27.969075 C25.7149347,27.927075 25.6243116,27.882075 25.5306927,27.843825 C25.3689193,27.777075 25.2034011,27.720825 25.037134,27.663825 C24.9255403,27.625575 24.8146955,27.584325 24.700855,27.550575 C24.546571,27.504075 24.3885424,27.467325 24.2305137,27.429075 C24.0994473,27.397575 23.9706277,27.365325 23.8373144,27.339825 C23.6890221,27.311325 23.536985,27.291075 23.3864459,27.270825 C23.2404004,27.250575 23.094355,27.229575 22.9453137,27.216825 C22.8000172,27.204075 22.6524738,27.199575 22.5041815,27.194325 C22.3970815,27.190575 22.2907305,27.177825 22.1821326,27.177825 L22.0450745,27.178575 C22.0181123,27.179325 21.991899,27.183075 21.9641878,27.183825 C21.9387235,27.184575 21.9140081,27.181575 21.8885438,27.182325 C21.7507368,27.186825 21.6159256,27.204075 21.4788676,27.215325 C21.3545417,27.225075 21.2287179,27.229575 21.105141,27.244575 C21.0070284,27.256575 20.9119116,27.276825 20.813799,27.291825 C18.9114634,27.584325 17.1619137,28.473825 15.7973249,29.880825 C14.4447193,31.277325 13.6118857,33.039075 13.3699745,34.935825 C13.3609871,35.002575 13.3467571,35.067075 13.3392676,35.133825 C13.3362717,35.157825 13.3370207,35.181075 13.3347738,35.205075 C13.3227906,35.333325 13.3160501,35.462325 13.3093095,35.592075 C13.3003221,35.751825 13.2935815,35.910825 13.2935815,36.069825 C13.2935815,36.118575 13.2875899,36.166575 13.2883389,36.215325 C13.2890878,36.276075 13.2973263,36.334575 13.2995731,36.395325 C13.3063137,36.569325 13.317548,36.741825 13.3340249,36.915075 C13.3452592,37.029075 13.3564934,37.142325 13.3714724,37.254825 C13.3909452,37.403325 13.4186564,37.551825 13.4463676,37.699575 C13.470334,37.831575 13.4935515,37.963575 13.5235095,38.093325 C13.5287522,38.112825 13.530999,38.131575 13.5354927,38.151075 L3.43813469,38.145075 C2.58433049,38.145075 1.88930392,37.449075 1.88930392,36.594075 L1.88930392,33.310575 L1.88630811,33.243825 C1.88256336,33.192075 1.72078993,31.117575 1.67360601,28.130325 L2.64274867,28.130325 C2.94158014,28.130325 3.56470741,28.130325 3.56470741,25.386825 L3.56470741,19.787325 C3.56470741,17.043075 2.94158014,17.043075 2.64274867,17.043075 L2.21509762,17.043075 C2.46524727,15.156075 2.81650531,13.326825 3.31081301,11.703075 L3.32654098,11.641575 C3.3400221,11.581575 4.66791231,5.626575 6.06171021,2.745825 C6.36728224,2.115825 7.02785706,1.706325 7.74685007,1.701075 C10.2026606,1.682325 15.3082599,1.652325 21.9170039,1.652325 C39.297162,1.652325 70.5463955,1.872825 84.5218221,3.345825 C84.5405459,3.348075 86.450371,3.645825 88.7384165,5.178825 C88.8455165,5.254575 99.4791235,12.791325 103.278552,17.699325 L103.324238,17.753325 C103.330979,17.760825 104.026754,18.553575 104.381757,20.322075 L104.435682,20.674575 L101.513275,20.674575 C100.711148,20.674575 100.058812,21.438825 100.058812,22.377825 L100.058812,25.319325 C100.058812,26.258325 100.711148,27.022575 101.513275,27.022575 L105.013872,27.022575 C105.010876,27.106575 105.010876,27.178575 105.004884,27.264825 L104.995897,27.413325 L105.37187,28.650825 L105.37187,37.944075 Z M87.5955172,43.332075 L87.4839235,43.332825 C84.5720018,43.332825 82.0390494,41.572575 80.8954011,39.060825 C80.7838074,38.814075 80.6812011,38.564325 80.5988165,38.310075 C80.5943228,38.297325 80.5920759,38.283825 80.5875822,38.271075 C80.5104403,38.027325 80.4482773,37.780575 80.3965997,37.531575 C80.377127,37.436325 80.3636459,37.338825 80.3486669,37.242075 C80.3202067,37.068825 80.2969892,36.896325 80.2812613,36.721575 C80.2715249,36.615075 80.2655333,36.507075 80.2602906,36.399825 C80.2520522,36.216825 80.2520522,36.033075 80.2580438,35.848575 C80.2610396,35.754825 80.2610396,35.661075 80.2670312,35.568075 C80.2760186,35.445075 80.2909976,35.324325 80.3059766,35.202825 C80.3179599,35.105325 80.3291941,35.007075 80.3449221,34.910325 C80.3726333,34.741575 80.4063361,34.574325 80.4467794,34.410075 C80.4550179,34.373325 80.4632564,34.336575 80.4722438,34.299825 C81.1328186,31.748325 83.1804508,29.706075 85.7276333,29.052825 C85.7560934,29.046075 85.7823067,29.037825 85.809269,29.031075 C85.9530676,28.995825 86.1013599,28.970325 86.2481543,28.944075 C86.3462669,28.927575 86.4443794,28.908825 86.542492,28.896075 C86.650341,28.881825 86.7589389,28.873575 86.8675368,28.863825 C86.9941095,28.853325 87.1206822,28.843575 87.2480039,28.839825 C87.3940494,28.834575 87.5393459,28.836075 87.6846424,28.840575 C87.8037256,28.843575 87.9220599,28.849575 88.0388962,28.858575 C88.1707116,28.868325 88.301778,28.882575 88.4313466,28.899825 C88.5391955,28.914075 88.6477934,28.929825 88.7548934,28.949325 C88.8904536,28.974075 89.0252648,29.003325 89.158578,29.035575 C89.2551927,29.058825 89.3518074,29.082825 89.4476731,29.109825 C89.587727,29.149575 89.7240361,29.194575 89.8603452,29.242575 C89.9457256,29.272575 90.0326039,29.303325 90.1164864,29.336325 C90.2580382,29.392575 90.3965941,29.454075 90.5336522,29.518575 C90.6077983,29.553825 90.6834424,29.588325 90.7560906,29.625825 C90.8976424,29.697825 91.0339515,29.776575 91.1695116,29.857575 C91.2346703,29.896575 91.301327,29.934825 91.3657368,29.975325 C91.5020459,30.063825 91.6346102,30.158325 91.7649277,30.254325 C91.8225969,30.297075 91.8810151,30.338325 91.9379354,30.382575 C92.0682529,30.485325 92.1925787,30.594075 92.3154067,30.705075 C92.3670843,30.751575 92.4195109,30.795825 92.4696906,30.843825 C92.5910207,30.958575 92.7048613,31.080825 92.8172039,31.203825 C92.8636389,31.254075 92.9115717,31.302825 92.9565088,31.353825 C93.0651067,31.479825 93.1662151,31.611825 93.2665745,31.745325 C93.3092648,31.800825 93.3527039,31.854075 93.3931473,31.911075 C93.4882641,32.044575 93.5751424,32.184825 93.6605228,32.325075 C93.6987193,32.386575 93.7399116,32.446575 93.7758613,32.509575 C93.855999,32.649825 93.9271494,32.796075 93.9975508,32.942325 C94.0305046,33.009825 94.0679522,33.075825 94.0986592,33.144825 C94.1638179,33.290325 94.2184913,33.441075 94.2746627,33.591075 C94.3023738,33.665325 94.3345787,33.738075 94.3592941,33.813075 C94.4094738,33.963825 94.4484193,34.119075 94.4888627,34.273575 C94.5090843,34.353075 94.5352976,34.430325 94.5532724,34.510575 C94.59072,34.674825 94.6146864,34.843575 94.6401508,35.011575 C94.651385,35.085075 94.667862,35.157075 94.6768494,35.231325 C94.7060585,35.475075 94.7225354,35.722575 94.7262801,35.972325 C94.7307738,36.241575 94.7172927,36.508575 94.6918284,36.773325 C94.6850878,36.845325 94.6716067,36.914325 94.6626193,36.985575 C94.6379039,37.182825 94.6086948,37.378575 94.5675025,37.572075 C94.5532724,37.641075 94.5345487,37.707825 94.5188207,37.775325 C94.468641,37.978575 94.4132186,38.180325 94.345813,38.379825 C94.330085,38.428575 94.3121102,38.475825 94.2956333,38.523825 C94.2139976,38.750325 94.1211277,38.975325 94.0155256,39.196575 C93.993806,39.241575 93.9743333,39.288825 93.9518648,39.333825 L93.8897018,39.461325 C92.6921291,41.727075 90.3299375,43.290075 87.5955172,43.332075 Z M22.2877347,43.332075 L22.1768899,43.332825 C19.0919606,43.332825 16.4361801,41.356575 15.4033766,38.604825 C15.3224899,38.388825 15.2528375,38.170575 15.1936703,37.950825 C15.1794403,37.900575 15.1652102,37.851075 15.152478,37.800825 C15.0978046,37.581075 15.0566123,37.360575 15.0229095,37.138575 C15.014671,37.086075 15.0034368,37.035825 14.9966962,36.983325 C14.9622445,36.716325 14.9427717,36.447825 14.939027,36.178575 C14.938278,36.150075 14.9420228,36.123075 14.9420228,36.094575 C14.9412738,35.849325 14.9517592,35.602575 14.9779724,35.355825 C14.9839641,35.291325 14.9951983,35.227575 15.0034368,35.163075 C15.4198536,31.965075 17.9168564,29.435325 21.0332417,28.929075 C21.1253627,28.914825 21.2159857,28.895325 21.3096046,28.884075 C21.4002277,28.872825 21.4930976,28.869825 21.5844697,28.862325 C21.7252724,28.851075 21.8668242,28.838325 22.0083759,28.835325 C22.1514256,28.832325 22.2922284,28.838325 22.4337801,28.842825 C22.5573571,28.847325 22.680185,28.851075 22.8022641,28.861575 C22.925841,28.872825 23.047171,28.890075 23.1685011,28.906575 C23.2838396,28.923075 23.399178,28.938075 23.5130186,28.959825 C23.644085,28.984575 23.7729046,29.016075 23.9017242,29.048325 C24.0005857,29.072325 24.0994473,29.095575 24.1968109,29.124075 C24.3406095,29.166825 24.4806634,29.216325 24.6214662,29.267325 C24.6978592,29.295825 24.777248,29.321325 24.852892,29.352075 C25.0109207,29.415825 25.1644557,29.487825 25.3164927,29.562075 C25.3719151,29.589075 25.4273375,29.613075 25.481262,29.640825 C25.6512738,29.729325 25.816792,29.826825 25.9793144,29.928075 C26.0115193,29.948325 26.0452221,29.967075 26.077427,29.987325 C26.2556773,30.102825 26.428685,30.226575 26.5957011,30.357075 C26.6106801,30.368325 26.6256592,30.378825 26.6406382,30.390075 C26.8211354,30.532575 26.994892,30.683325 27.1604102,30.842325 C27.1619081,30.843825 27.164155,30.845325 27.1656529,30.846825 C27.8442025,31.495575 28.3999242,32.274075 28.7893787,33.141075 C28.7901277,33.141825 28.7901277,33.142575 28.7901277,33.143325 C28.8822487,33.348075 28.9638843,33.558825 29.0365326,33.772575 C29.0410263,33.786825 29.0477669,33.799575 29.0522606,33.813825 C29.1189172,34.014075 29.1743396,34.219575 29.2230214,34.427325 C29.229762,34.455825 29.2402473,34.482825 29.2462389,34.512075 C29.2911759,34.710825 29.3226319,34.914825 29.3503431,35.119575 C29.3555857,35.157825 29.3653221,35.194575 29.3690669,35.232825 C29.3990249,35.475825 29.4155018,35.723325 29.4192466,35.972325 C29.4229913,36.221325 29.4140039,36.466575 29.3930333,36.709575 C29.3900375,36.747825 29.3810501,36.786075 29.3773053,36.824325 C29.3563347,37.029075 29.3316193,37.232325 29.2941717,37.431825 C29.290427,37.452075 29.2836864,37.471575 29.2791927,37.491075 C28.6298522,40.773825 25.7606207,43.279575 22.2877347,43.332075 Z M2.08103538,18.144825 L2.32744028,18.144825 C2.39035217,18.423075 2.46524727,18.975825 2.46524727,19.787325 L2.46524727,25.386825 C2.46524727,26.196825 2.39035217,26.750325 2.32744028,27.028575 L1.6616228,27.028575 C1.64963958,24.397575 1.73876476,21.231075 2.08103538,18.144825 Z M104.697065,22.379325 L104.726275,22.503075 C104.730768,22.515825 105.063303,23.647575 105.047575,25.920825 L101.513275,25.920825 C101.349254,25.920825 101.159021,25.658325 101.159021,25.319325 L101.159021,22.377825 C101.159021,22.038825 101.349254,21.776325 101.513275,21.776325 L104.604944,21.776325 L104.697065,22.379325 Z M106.661564,27.216825 C106.834572,24.127575 106.4219,22.439325 106.320042,22.073325 L106.006232,20.035575 C105.583075,17.919075 104.760726,16.884825 104.563752,16.662825 C100.598805,11.559825 90.1329634,4.142325 89.6723585,3.817575 C87.0338039,2.048325 84.8476158,1.722825 84.7270347,1.705575 C70.6437592,0.222075 39.3293669,7.50000002e-05 21.9170039,7.50000002e-05 C15.3022683,7.50000002e-05 10.1921752,0.030075 7.7356158,0.048825 C6.39349552,0.057825 5.15323259,0.834825 4.57728923,2.025075 C3.13780531,5.001075 1.84137105,10.722825 1.72228783,11.252325 C-0.791940839,19.566825 0.166716503,32.425575 0.239364755,33.344325 L0.239364755,36.594075 C0.239364755,38.360325 1.67435497,39.797325 3.43813469,39.797325 L12.7108976,39.797325 L14.1196745,39.807825 C15.5396857,42.855075 18.6276109,44.985825 22.1768899,44.985825 L22.3124501,44.984325 C25.7883319,44.931825 28.7669102,42.873075 30.1831766,39.933075 L79.6798536,40.317825 C81.1942326,43.090575 84.1353634,44.985825 87.4839235,44.985825 L87.6194836,44.984325 C90.8968934,44.934825 93.7316731,43.101075 95.234069,40.428075 L101.513275,40.428075 L105.289486,39.925575 C106.277352,39.793575 107.02181,38.942325 107.02181,37.944075 L107.02181,28.406325 L106.661564,27.216825 Z" id="Fill-11"></path>
            <path d="M89.6731823,24.115575 C89.1354355,24.012075 88.5789648,23.923575 88.0307327,23.912325 L87.2053886,23.871075 L86.3785466,23.876325 C86.1021837,23.870325 85.8265697,23.901825 85.5509557,23.917575 C85.2753417,23.937075 84.9989788,23.952075 84.7248627,23.997075 C84.1728858,24.057825 83.6291473,24.170325 83.0846599,24.288825 C82.5461641,24.432075 82.012162,24.596325 81.49239,24.803325 C80.9741159,25.011825 80.467076,25.253325 79.9795089,25.531575 C79.4919417,25.809825 79.0275921,26.128575 78.5819662,26.472825 C78.3640215,26.649075 78.1520683,26.834325 77.9393662,27.018825 C77.7393963,27.217575 77.52969,27.405825 77.3394564,27.613575 C76.9574914,28.026825 76.5897564,28.455825 76.2699543,28.919325 C75.6116264,29.833575 75.0881096,30.837825 74.6694459,31.881075 C74.4619865,32.403075 74.285983,32.937825 74.1376907,33.480825 C74.025348,33.894075 73.9377208,34.306575 73.8650725,34.734825 L54.6080431,34.650825 L35.3292942,34.731075 C35.0993662,33.744075 34.7698278,32.789325 34.3788753,31.866075 C34.1564369,31.349325 33.9115299,30.827325 33.6374138,30.340575 C33.3513145,29.851575 33.0906795,29.349825 32.761141,28.886325 C32.4593138,28.406325 32.1013152,27.964575 31.7530529,27.516825 C31.3748327,27.092325 31.0033529,26.661825 30.5794466,26.282325 C30.3779788,26.081325 30.161532,25.896825 29.9368466,25.721325 C29.716655,25.541325 29.4979613,25.359825 29.258297,25.205325 C28.7976921,24.873075 28.3056313,24.584325 27.8008383,24.325575 C26.7875075,23.811825 25.7007795,23.449575 24.5893362,23.259075 C24.0336145,23.161575 23.4733991,23.094825 22.9124348,23.073075 C22.3522194,23.038575 21.791255,23.055075 21.2332865,23.088075 C20.1173494,23.156325 19.0156424,23.355825 17.9401487,23.634825 C16.8669019,23.923575 15.8183704,24.300825 14.8260103,24.792825 C15.8445837,24.359325 16.911839,24.059325 17.9850858,23.823825 C19.0613285,23.596575 20.154797,23.449575 21.2490145,23.433075 C21.7949998,23.425575 22.3417341,23.434575 22.8832257,23.493075 C23.4262152,23.538825 23.963962,23.628075 24.4919725,23.745075 C25.5487424,23.985075 26.5725585,24.351825 27.5192327,24.865575 C27.9903229,25.124325 28.447183,25.410075 28.8748341,25.736325 C29.0972725,25.887825 29.2994893,26.066325 29.502455,26.241825 C29.7099145,26.412825 29.9091355,26.592825 30.0941264,26.788575 C30.4858278,27.158325 30.8266005,27.577575 31.1741138,27.987825 C31.491669,28.423575 31.8212075,28.850325 32.0953236,29.317575 C32.3964019,29.765325 32.6330704,30.255075 32.8937054,30.728325 C33.1513445,31.212075 33.3670424,31.698825 33.5715061,32.202825 C33.9774376,33.206325 34.2904991,34.244325 34.5032012,35.292075 L34.5788452,35.666325 L34.9608103,35.667825 L54.6080431,35.749575 L74.2545271,35.664075 L74.6746886,35.662575 L74.715132,35.241825 C74.7645627,34.750575 74.867169,34.212075 74.9922438,33.702825 C75.1188166,33.188325 75.2716026,32.679075 75.4550956,32.181075 C75.8250774,31.187325 76.2931718,30.225825 76.8908348,29.350575 C77.1799299,28.906575 77.5154599,28.495575 77.8637222,28.097325 C78.0374788,27.897075 78.2307082,27.716325 78.4127033,27.523575 C78.6089285,27.346575 78.8029068,27.166575 79.0043746,26.994825 C79.4155487,26.660325 79.8446977,26.348325 80.2978131,26.073075 C80.7524264,25.798575 81.2272613,25.557075 81.7155774,25.345575 C81.9634802,25.249575 82.2076383,25.140825 82.4600348,25.054575 L83.2232159,24.809325 C83.740741,24.674325 84.2605131,24.543075 84.7922683,24.461325 C85.0558991,24.406575 85.3232746,24.380325 85.5913991,24.350325 C85.8587746,24.322575 86.1261501,24.280575 86.3965215,24.275325 L87.2053886,24.235575 L88.0172515,24.240825 C88.561739,24.230325 89.0904984,24.291825 89.6282452,24.369825 C90.1629963,24.451575 90.6932536,24.565575 91.2137746,24.714825 C92.2533187,25.008075 93.2703942,25.446075 94.114462,26.146575 C93.3115865,25.399575 92.310239,24.885075 91.269197,24.537075 C90.7479271,24.361575 90.213925,24.222825 89.6731823,24.115575" id="Fill-14"></path>
        </g>
    </g>
</svg>