<svg width="118px" height="30px" viewBox="0 0 118 58" version="1.1" xmlns="http://www.w3.org/2000/svg" xmlns:xlink="http://www.w3.org/1999/xlink">
    <!-- Generator: Sketch 52 (66869) - http://www.bohemiancoding.com/sketch -->
    <title>Mini</title>
    <desc>Created with Sketch.</desc>
    <g id="Mini" stroke="none" stroke-width="1" fill="none" fill-rule="evenodd">
        <path class="outline" d="M14.3098274,45.0936301 L12.9283269,40.6486511 C11.7763318,41.1715799 10.7907671,41.9946512 10.0713479,43.0182957 L14.2775393,45.11831 C14.2882361,45.1100011 14.2989991,45.1017743 14.3098274,45.0936304 L14.3098274,45.0936301 Z M15.8076131,44.5774749 C15.8213631,44.5772539 15.8351377,44.5771429 15.8489362,44.5771429 C15.8745271,44.5771429 15.9000362,44.5775247 15.9254578,44.5782827 L17.9013546,40.3287407 C17.2521014,40.1283391 16.5630378,40.02 15.8489362,40.02 C15.0967047,40.02 14.3722564,40.1371351 13.6928588,40.3541635 L15.8076131,44.5774749 Z M13.3589219,46.5043609 L9.61647786,43.7588388 C9.09247867,44.7437574 8.79574468,45.8682192 8.79574468,47.0628571 C8.79574468,47.1292269 8.79666052,47.1953799 8.79848041,47.2613046 L13.3401342,46.5810546 C13.3460078,46.5553466 13.3522725,46.5297798 13.3589219,46.5043609 Z M8.8782881,48.1455165 C9.07001135,49.3902517 9.58723026,50.5267439 10.3406454,51.4658245 L13.1699088,48.2169387 L8.8782881,48.1455165 Z M14.3223941,49.2071906 L10.9110059,52.0952167 C11.7533744,52.9194223 12.8023226,53.5339371 13.9738439,53.8548778 L14.4315984,49.2840392 C14.3945206,49.2593437 14.3581076,49.2337159 14.3223941,49.2071906 Z M16.0551229,49.7059791 L14.878132,54.0397737 C15.1954387,54.0832515 15.5195235,54.1057143 15.8489362,54.1057143 C17.2247409,54.1057143 18.5076077,53.713884 19.5918931,53.0357119 L16.3031347,49.6735832 C16.221677,49.6883372 16.1389388,49.6992033 16.0551229,49.7059791 Z M17.7341069,48.8855588 L20.245487,52.5733536 C21.3230996,51.7154369 22.1426655,50.5485133 22.57061,49.2059618 L17.975015,48.5837433 C17.9022149,48.6902685 17.8216295,48.791156 17.7341069,48.8855588 Z M18.4197722,47.0580218 L22.7698178,48.4297078 C22.8566343,47.9876259 22.9021277,47.530621 22.9021277,47.0628571 C22.9021277,46.0077006 22.6604656,44.9969956 22.228198,44.0869978 L18.3897699,46.7464945 C18.4060181,46.8485517 18.4161498,46.9525248 18.4197726,47.058022 L18.4197722,47.0580218 Z M17.6125721,45.2831583 L21.8337655,43.3672453 C21.0924682,42.1820725 20.0084325,41.2219411 18.7195776,40.6388146 L17.4709085,45.1586079 C17.5196279,45.1984221 17.5668819,45.2399717 17.6125721,45.2831583 Z M5.47748293,48.558956 L3.15319149,48.0571429 L1.74255319,48.0571429 C1.49361702,48.0571429 1.16170213,47.9742857 0.995744681,47.7257143 C0.829787234,47.56 0.746808511,47.2285714 0.746808511,46.98 L3.07021277,15.1628571 C3.07021277,14.0028571 3.56808511,12.76 4.06595745,11.6828571 L4.23191489,11.3514286 C4.9787234,9.69428571 5.80851064,8.03714286 6.55531915,6.71142857 C7.13617021,5.63428571 7.8,4.39142857 8.62978723,2.98285714 C9.2106383,1.98857143 9.70851064,1.07714286 11.3680851,0.994285714 C17.8404255,0.662857143 23.6489362,0.497142857 29.1255319,0.497142857 C38.5851064,0.497142857 48.2106383,0.911428571 58.6659574,1.65714286 C60.9893617,1.82285714 63.312766,2.07142857 65.6361702,2.23714286 C66.7978723,2.32 67.9595745,2.48571429 69.1212766,2.56857143 C72.0255319,2.81714286 76.9212766,3.23142857 79.9085106,5.38571429 C79.9085106,5.38571429 79.9085106,5.38571429 97.6659574,19.2228571 C97.6659574,19.2228571 97.7489362,19.2228571 97.7489362,19.2228571 C97.8319149,19.2228571 97.9148936,19.3057143 97.9978723,19.3057143 C100.238298,20.0514286 102.395745,20.7142857 104.63617,21.46 L111.025532,23.5314286 C112.602128,24.0285714 114.510638,24.6914286 114.925532,27.1771429 C115.340426,30.0771429 115.67234,35.1314286 115.755319,36.2085714 L116.33617,37.6171429 C116.419149,37.7828571 116.419149,37.9485714 116.419149,38.1142857 L115.755319,48.3885714 C115.755319,49.1342857 115.340426,49.5485714 114.759574,49.5485714 L110.684429,49.5485714 C109.624187,54.237102 105.426182,57.7514286 100.487234,57.7514286 C95.5643512,57.7514286 91.3775999,54.2599278 90.3004847,49.594287 C90.2160397,49.6183401 90.1261621,49.6314286 90.0319149,49.6314286 L26.0816375,49.3855111 C25.082845,54.1553837 20.8449771,57.7514286 15.8489362,57.7514286 C10.5681501,57.7514286 6.13442271,53.7337955 5.47748293,48.558956 Z M5.41750533,46.5164819 C5.78557114,41.0469222 10.3596139,36.7057143 15.8489362,36.7057143 C21.5744681,36.7057143 26.3042553,41.4285714 26.3042553,47.2285714 C26.3042553,47.2839086 26.3038247,47.3391478 26.3029669,47.3942857 L27.3,47.3942857 C27.3,47.3942857 27.3829787,47.3942857 27.3829787,47.3942857 L90.0319149,47.6428571 C90.0346076,47.6428571 90.0372969,47.6428678 90.0399829,47.6428891 C90.0346208,47.5054329 90.0319149,47.3673103 90.0319149,47.2285714 C90.0319149,41.4285714 94.7617021,36.7057143 100.487234,36.7057143 C106.212766,36.7057143 110.942553,41.4285714 110.942553,47.2285714 C110.942553,47.3394498 110.940825,47.4499345 110.937394,47.56 L113.76383,47.56 L114.344681,38.4457143 L113.76383,37.0371429 C113.734407,37.0077635 113.715418,36.9679668 113.703161,36.9251404 L112.353191,36.54 C112.104255,36.4571429 111.938298,36.2914286 111.855319,36.0428571 L110.361702,31.4028571 L108.868085,30.74 C108.702128,30.6571429 108.53617,30.4914286 108.453191,30.3257143 L106.876596,26.4314286 C106.793617,26.1828571 106.793617,25.8514286 106.959574,25.6857143 C107.125532,25.4371429 107.374468,25.3542857 107.706383,25.4371429 L111.881182,26.2477199 C111.498877,26.0464256 110.997834,25.8863036 110.361702,25.6857143 L103.97234,23.6142857 C101.731915,22.8685714 99.5744681,22.2057143 97.3340426,21.46 C97.3340426,21.46 97.2510638,21.46 97.2510638,21.46 C97.0021277,21.3771429 96.7531915,21.2942857 96.4212766,21.1285714 C96.2553191,20.9628571 78.8297872,7.37428571 78.5808511,7.20857143 C76.1744681,5.46857143 71.6106383,5.05428571 68.8723404,4.80571429 C67.7106383,4.72285714 66.5489362,4.55714286 65.387234,4.47428571 C63.0638298,4.22571429 60.8234043,4.06 58.5,3.89428571 C48.1276596,3.06571429 38.5021277,2.65142857 29.1255319,2.73428571 C23.6489362,2.73428571 17.8404255,2.9 11.4510638,3.23142857 C10.8702128,3.23142857 10.8702128,3.31428571 10.3723404,4.14285714 C9.54255319,5.55142857 8.8787234,6.71142857 8.29787234,7.78857143 C7.63404255,9.11428571 6.80425532,10.6885714 6.05744681,12.2628571 L5.89148936,12.6771429 C5.47659574,13.5885714 5.06170213,14.5828571 5.06170213,15.4114286 L3.81769227,32.48 L6.63829787,32.48 C6.88723404,32.48 7.13617021,32.6457143 7.30212766,32.8114286 C7.46808511,33.06 7.46808511,33.3085714 7.30212766,33.5571429 L3.9,40.2685714 C3.67540563,40.4180816 3.45081127,40.5675918 3.2262169,40.5954014 L2.8212766,46.1514286 L3.31914894,46.1514286 C3.40212766,46.1514286 3.48510638,46.1514286 3.48510638,46.1514286 L5.41750533,46.5164819 Z M98.9481256,45.0936304 L97.5666244,40.6486511 C96.4031308,41.1767996 95.4094067,42.0111122 94.6881821,43.0490083 L98.8836885,45.1436879 C98.9048987,45.126673 98.9263802,45.1099845 98.9481256,45.0936304 Z M100.445911,44.5774749 C100.459661,44.5772539 100.473436,44.5771429 100.487234,44.5771429 C100.512825,44.5771429 100.538334,44.5775247 100.563755,44.5782827 L102.539652,40.3287407 C101.890399,40.1283391 101.201336,40.02 100.487234,40.02 C99.7350029,40.02 99.0105546,40.1371351 98.3311564,40.3541635 L100.445911,44.5774749 Z M97.9972201,46.5043609 L94.254776,43.7588388 C93.730777,44.7437574 93.4340426,45.8682192 93.4340426,47.0628571 C93.4340426,47.1292269 93.4349586,47.1953799 93.4367784,47.2613046 L97.9784321,46.5810546 C97.9843053,46.5553466 97.9905702,46.5297798 97.9972201,46.5043609 Z M93.5167823,48.1467877 C93.7085229,49.3901274 94.2250381,50.5254237 94.9773132,51.4637915 L97.735053,48.2158383 L93.5167823,48.1467877 Z M98.9574632,49.2047887 L95.5126339,52.0590757 C96.3611477,52.9014621 97.42356,53.5292634 98.6121414,53.8548778 L99.069896,49.2840392 C99.0317001,49.2585991 98.9942103,49.2321696 98.9574632,49.2047887 Z M100.693421,49.7059771 L99.5164303,54.0397737 C99.8337368,54.0832515 100.157821,54.1057143 100.487234,54.1057143 C101.841518,54.1057143 103.105749,53.7260465 104.179163,53.0673259 L100.938949,49.6740317 C100.858293,49.6885576 100.776385,49.6992722 100.69342,49.7059791 L100.693421,49.7059771 Z M102.372404,48.8855588 L104.883785,52.5733536 C105.961398,51.7154369 106.780964,50.5485133 107.208908,49.2059618 L102.613313,48.5837433 C102.540513,48.6902685 102.459927,48.791156 102.372404,48.8855588 Z M103.058796,47.082616 L107.407982,48.4303858 C107.494886,47.9880932 107.540426,47.5308601 107.540426,47.0628571 C107.540426,46.0077006 107.298763,44.9969956 106.866496,44.0869978 L103.028067,46.7464945 C103.045577,46.8564736 103.055984,46.9686775 103.058796,47.0826159 Z M102.25087,45.2831583 L106.472064,43.3672453 C105.716906,42.1599128 104.606073,41.1861157 103.285366,40.606502 L102.106865,45.156697 C102.156412,45.1970921 102.204448,45.2392804 102.25087,45.2831583 Z M34.6021277,19.6371429 C34.4361702,19.6371429 34.3531915,19.6371429 34.187234,19.6371429 C28.3787234,19.5542857 11.7,19.14 11.5340426,19.14 C11.4510638,19.14 10.1234043,19.0571429 9.12765957,17.8142857 C8.21489362,16.7371429 7.96595745,15.1628571 8.29787234,13.0914286 C8.29787234,13.0085714 8.29787234,13.0085714 8.38085106,12.9257143 L11.7,4.64 C11.7829787,4.39142857 12.1148936,4.14285714 12.3638298,4.14285714 L47.6297872,4.14285714 C47.8787234,4.14285714 48.1276596,4.30857143 48.293617,4.55714286 C48.4595745,4.80571429 48.4595745,5.05428571 48.293617,5.30285714 L41.5723404,16.9857143 C41.406383,17.4828571 40.1617021,19.6371429 34.6021277,19.6371429 Z M9.79148936,13.4228571 C9.54255319,14.9142857 9.79148936,16.1571429 10.2893617,16.82 C10.8702128,17.4828571 11.5340426,17.5657143 11.6170213,17.5657143 C11.7829787,17.5657143 28.4617021,17.98 34.2702128,18.0628571 C39.3319149,18.1457143 40.2446809,16.3228571 40.2446809,16.3228571 C40.2446809,16.3228571 40.2446809,16.24 40.3276596,16.24 L46.3851064,5.71714286 L12.8617021,5.71714286 L9.79148936,13.4228571 Z M82.4808511,23.4485714 L54.1851064,20.7142857 C54.1021277,20.7142857 54.0191489,20.7142857 53.9361702,20.6314286 C53.8531915,20.6314286 51.8617021,19.72 51.612766,16.3228571 L50.5340426,5.22 C50.5340426,4.97142857 50.6170213,4.80571429 50.7829787,4.64 C50.9489362,4.47428571 51.1148936,4.39142857 51.3638298,4.39142857 C53.1893617,4.47428571 55.0148936,4.64 56.8404255,4.72285714 C60.4914894,4.97142857 64.3085106,5.13714286 68.1255319,5.46857143 C72.606383,5.88285714 76.0914894,6.96 79.0787234,8.78285714 C79.7425532,9.19714286 80.3234043,9.61142857 80.9042553,10.1085714 C80.987234,10.1085714 80.987234,10.1914286 81.1531915,10.2742857 C82.2319149,11.1028571 82.7297872,11.6 82.7297872,12.18 L83.3106383,22.62 C83.3106383,22.8685714 83.2276596,23.0342857 83.0617021,23.2 C82.8957447,23.3657143 82.7297872,23.4485714 82.4808511,23.4485714 Z M54.5170213,19.2228571 L81.7340426,21.8742857 L81.2361702,12.4285714 C81.0702128,12.18 80.406383,11.6828571 80.2404255,11.5171429 C80.1574468,11.4342857 80.0744681,11.3514286 79.9914894,11.3514286 C79.493617,10.9371429 78.912766,10.5228571 78.3319149,10.1085714 C75.593617,8.36857143 72.2744681,7.37428571 68.0425532,7.04285714 C64.3085106,6.71142857 60.4914894,6.46285714 56.8404255,6.29714286 C55.3468085,6.21428571 53.7702128,6.13142857 52.2765957,6.04857143 L53.106383,16.1571429 C53.2723404,18.3114286 54.1851064,19.0571429 54.5170213,19.2228571 Z M113.1,35.2142857 L113.431915,35.2971429 L112.768085,27.9228571 L108.702128,27.0942857 L109.697872,29.4142857 L111.191489,30.16 C111.357447,30.2428571 111.523404,30.4085714 111.606383,30.5742857 L113.1,35.2142857 Z M49.9531915,32.9771429 C49.5382979,32.9771429 49.206383,32.6457143 49.206383,32.2314286 L48.3765957,5.8 C48.3765957,5.38571429 48.7085106,5.05428571 49.1234043,5.05428571 C49.5382979,5.05428571 49.8702128,5.38571429 49.8702128,5.8 L50.7,32.2314286 C50.7829787,32.6457143 50.4510638,32.9771429 49.9531915,32.9771429 C50.0361702,32.9771429 50.0361702,32.9771429 49.9531915,32.9771429 Z M108.868085,35.7114286 C107.208511,34.4685714 105.382979,33.64 103.474468,33.06 C102.478723,32.8114286 101.482979,32.6457143 100.487234,32.5628571 C99.4914894,32.48 98.4957447,32.48 97.5,32.7285714 C95.5085106,33.06 93.6829787,33.8057143 91.8574468,34.7171429 C90.1148936,35.7114286 88.4553191,36.8714286 86.9617021,38.1971429 L86.7957447,38.3628571 L86.6297872,38.3628571 C81.5680851,38.28 76.4234043,38.1142857 71.3617021,37.9485714 C66.3,37.7828571 61.1553191,37.7 56.093617,37.4514286 L40.8255319,36.8714286 C35.7638298,36.7057143 30.6191489,36.4571429 25.5574468,36.2085714 L25.3914894,36.2085714 L25.3085106,36.1257143 C24.1468085,35.1314286 22.9021277,34.22 21.5744681,33.3914286 C20.2468085,32.6457143 18.8361702,31.9828571 17.2595745,31.7342857 C15.7659574,31.4857143 14.1893617,31.5685714 12.612766,31.7342857 C11.0361702,31.9828571 9.54255319,32.3142857 8.04893617,32.9771429 C9.45957447,32.2314286 10.9531915,31.8171429 12.5297872,31.4857143 C14.106383,31.2371429 15.6829787,31.0714286 17.2595745,31.32 C18.8361702,31.5685714 20.412766,32.1485714 21.8234043,32.8942857 C23.2340426,33.64 24.5617021,34.5514286 25.806383,35.6285714 L25.5574468,35.5457143 C30.6191489,35.6285714 35.7638298,35.7114286 40.8255319,35.8771429 L56.093617,36.2914286 C61.1553191,36.4571429 66.3,36.6228571 71.3617021,36.8714286 C76.4234043,37.0371429 81.5680851,37.2028571 86.6297872,37.5342857 L86.2978723,37.7 C87.8744681,36.3742857 89.6170213,35.2142857 91.4425532,34.22 C92.3553191,33.7228571 93.3510638,33.3085714 94.2638298,32.9771429 C94.7617021,32.8114286 95.2595745,32.6457143 95.7574468,32.5628571 C96.2553191,32.48 96.7531915,32.3142857 97.3340426,32.3142857 C98.3297872,32.1485714 99.4085106,32.2314286 100.404255,32.3142857 C101.4,32.48 102.478723,32.6457143 103.391489,32.9771429 C105.465957,33.3914286 107.291489,34.3857143 108.868085,35.7114286 Z M4.14893617,33.8885714 L4.06595745,36.3742857 L5.39361702,33.8885714 L4.14893617,33.8885714 Z M100.487234,38.7771429 C95.8404255,38.7771429 92.0234043,42.5885714 92.0234043,47.2285714 C92.0234043,51.8685714 95.8404255,55.68 100.487234,55.68 C105.134043,55.68 108.951064,51.8685714 108.951064,47.2285714 C108.868085,42.5885714 105.134043,38.7771429 100.487234,38.7771429 Z M100.487234,45.0742857 C99.4085106,45.0742857 98.4957447,45.9857143 98.4957447,47.0628571 C98.4957447,48.14 99.4085106,49.0514286 100.487234,49.0514286 C101.565957,49.0514286 102.478723,48.14 102.478723,47.0628571 C102.478723,45.9857143 101.565957,45.0742857 100.487234,45.0742857 Z M100.487234,54.7685714 C96.2553191,54.7685714 92.8531915,51.3714286 92.8531915,47.1457143 C92.8531915,42.92 96.2553191,39.5228571 100.487234,39.5228571 C104.719149,39.5228571 108.121277,42.92 108.121277,47.1457143 C108.038298,51.3714286 104.63617,54.7685714 100.487234,54.7685714 Z M15.8489362,38.7771429 C11.2021277,38.7771429 7.38510638,42.5885714 7.38510638,47.2285714 C7.38510638,51.8685714 11.2021277,55.68 15.8489362,55.68 C20.4957447,55.68 24.312766,51.8685714 24.312766,47.2285714 C24.312766,42.5885714 20.4957447,38.7771429 15.8489362,38.7771429 Z M15.8489362,45.0742857 C14.7702128,45.0742857 13.8574468,45.9857143 13.8574468,47.0628571 C13.8574468,48.14 14.7702128,49.0514286 15.8489362,49.0514286 C16.9276596,49.0514286 17.8404255,48.14 17.8404255,47.0628571 C17.8404255,45.9857143 16.9276596,45.0742857 15.8489362,45.0742857 Z M15.8489362,54.7685714 C11.6170213,54.7685714 8.21489362,51.3714286 8.21489362,47.1457143 C8.21489362,42.92 11.6170213,39.5228571 15.8489362,39.5228571 C20.0808511,39.5228571 23.4829787,42.92 23.4829787,47.1457143 C23.4829787,51.3714286 20.0808511,54.7685714 15.8489362,54.7685714 Z M59.3297872,24.94 C59.3297872,25.3542857 58.8319149,25.6857143 58.2510638,25.6857143 L56.6744681,25.6857143 C56.093617,25.6857143 55.5957447,25.3542857 55.5957447,24.94 C55.5957447,24.5257143 56.093617,24.1942857 56.6744681,24.1942857 L58.2510638,24.1942857 C58.8319149,24.1942857 59.3297872,24.5257143 59.3297872,24.94 Z M12.5297872,23.9457143 C12.5297872,24.36 12.0319149,24.6914286 11.4510638,24.6914286 L9.87446809,24.6914286 C9.29361702,24.6914286 8.79574468,24.36 8.79574468,23.9457143 C8.79574468,23.5314286 9.29361702,23.2 9.87446809,23.2 L11.4510638,23.2 C12.0319149,23.2 12.5297872,23.5314286 12.5297872,23.9457143 Z M84.3893617,23.6971429 C84.2234043,23.6971429 84.0574468,23.6142857 83.9744681,23.5314286 C83.8085106,23.3657143 83.7255319,23.2 83.6425532,22.9514286 L82.9787234,12.5114286 C82.9787234,12.18 83.1446809,11.9314286 83.393617,11.7657143 C83.6425532,11.6 83.9744681,11.6828571 84.2234043,11.8485714 L93.6829787,20.1342857 C93.9319149,20.3 94.0148936,20.6314286 93.9319149,20.88 C93.8489362,21.1285714 93.6829787,21.3771429 93.3510638,21.46 L84.5553191,23.6142857 C84.5553191,23.6142857 84.4723404,23.6971429 84.3893617,23.6971429 Z M84.5553191,14.2514286 L85.0531915,21.9571429 L91.5255319,20.3828571 L84.5553191,14.2514286 Z" id="Combined-Shape" fill="#231F20" fill-rule="nonzero"></path>
    </g>
</svg>