<svg width="64" height="64" viewBox="0 0 64 64" fill="none" xmlns="http://www.w3.org/2000/svg">
<rect width="64" height="64" rx="32" fill="white"></rect>
<g clip-path="url(#clip0)">
<path d="M47.7275 30.1494C47.7353 29.9962 47.6495 29.8583 47.5247 29.774C47.5949 29.6515 47.6339 29.5136 47.6417 29.368C47.6651 28.8394 47.2517 28.3951 46.7056 28.3645C46.5652 28.3568 46.4248 28.3798 46.3 28.4258C46.1674 28.2266 45.9334 28.0887 45.6681 28.0734C45.3639 28.058 45.0909 28.2036 44.9427 28.4411C44.7945 28.3338 44.615 28.2649 44.42 28.2496C43.913 28.2266 43.4761 28.602 43.4527 29.0922C43.4527 29.1305 43.4527 29.1688 43.4527 29.1995C43.0861 29.2991 42.8053 29.6208 42.7819 30.0115C42.7663 30.3179 42.9145 30.5937 43.1485 30.7699C43.0471 30.8925 42.9769 31.0457 42.9691 31.2142C42.9457 31.6432 43.2889 32.0033 43.7336 32.0263C43.9208 32.0339 44.0924 31.9803 44.2328 31.8884C44.3966 32.1412 44.6853 32.3097 45.0129 32.3327C45.3639 32.348 45.6837 32.1871 45.871 31.9343C45.9802 32.1335 46.1908 32.2791 46.4404 32.2867C46.8148 32.3021 47.1347 32.0263 47.1503 31.6662C47.1581 31.5819 47.1425 31.5053 47.1191 31.4364C47.3687 31.3521 47.5481 31.1223 47.5637 30.8542C47.5715 30.724 47.5403 30.6014 47.4779 30.5018C47.6183 30.4405 47.7197 30.3103 47.7275 30.1494Z" fill="#88C057"></path>
<path d="M46.0968 31.5579C45.8238 31.5425 45.5664 31.3893 45.4338 31.1365C45.3948 31.0599 45.426 30.968 45.504 30.9297C45.582 30.8914 45.6756 30.922 45.7146 30.9986C45.7692 31.1059 45.8628 31.1902 45.9798 31.2285C46.0968 31.2668 46.2217 31.2591 46.3309 31.2055C46.4401 31.1518 46.5259 31.0599 46.5649 30.945C46.6039 30.8301 46.5961 30.7075 46.5415 30.6003C46.5025 30.5237 46.5337 30.4317 46.6117 30.3934C46.6897 30.3551 46.7833 30.3858 46.8223 30.4624C46.9159 30.6462 46.9315 30.8531 46.8613 31.0523C46.7989 31.2438 46.6585 31.4047 46.4713 31.4966C46.3543 31.5349 46.2217 31.5579 46.0968 31.5579Z" fill="#659C35"></path>
<path d="M45.5742 30.6849C45.4572 30.6773 45.348 30.6466 45.2388 30.593C44.8566 30.3862 44.724 29.9189 44.9268 29.5511C44.9658 29.4745 45.0672 29.4439 45.1452 29.4899C45.2232 29.5282 45.2544 29.6277 45.2076 29.7044C45.0828 29.9265 45.1686 30.2023 45.3948 30.3249C45.621 30.4474 45.9019 30.3632 46.0267 30.141C46.0657 30.0644 46.1671 30.0338 46.2451 30.0797C46.3231 30.118 46.3543 30.2176 46.3075 30.2942C46.1593 30.547 45.8707 30.6926 45.5742 30.6849Z" fill="#659C35"></path>
<path d="M46.1831 29.8802C46.1597 29.8802 46.1363 29.8802 46.1051 29.8726C45.8944 29.8419 45.715 29.7347 45.5902 29.5738C45.5356 29.5049 45.5512 29.4053 45.6214 29.3517C45.6916 29.298 45.793 29.3134 45.8476 29.3823C45.9178 29.4819 46.027 29.5432 46.1519 29.5585C46.2767 29.5738 46.3937 29.5432 46.4951 29.4742C46.6979 29.321 46.7447 29.0376 46.5887 28.8384C46.5341 28.7694 46.5497 28.6699 46.6199 28.6162C46.6901 28.5626 46.7915 28.5779 46.8461 28.6469C47.1035 28.9839 47.0333 29.4666 46.6823 29.7194C46.5419 29.8343 46.3625 29.8879 46.1831 29.8802Z" fill="#659C35"></path>
<path d="M49.7834 31.0105L37.5286 30.1372L41.1949 35.5073L49.7834 31.4165V31.0105Z" fill="#823B06"></path>
<path d="M35.4614 44.4006C35.4614 44.4389 35.4614 44.4849 35.4536 44.5232C35.399 45.2586 34.8295 45.8408 34.1119 45.8944C34.0729 45.8944 34.0339 45.9021 33.9949 45.9021C33.1836 45.9021 32.5361 45.2279 32.5361 44.4006C32.5361 43.5732 33.1914 42.8991 33.9949 42.8991C34.8061 42.8991 35.4614 43.5732 35.4614 44.4006Z" fill="#141414"></path>
<path d="M35.4069 44.5007C35.4069 44.5314 35.4069 44.5697 35.4069 44.6003C35.36 45.1902 34.8998 45.6575 34.3304 45.7035C34.2992 45.7035 34.268 45.7111 34.2368 45.7111C33.5893 45.7111 33.0667 45.1749 33.0667 44.5084C33.0667 43.8419 33.5893 43.3057 34.2368 43.3057C34.8764 43.298 35.4069 43.8419 35.4069 44.5007Z" fill="#8C9BA5"></path>
<path d="M34.2288 44.7147C34.4054 44.7147 34.5486 44.574 34.5486 44.4006C34.5486 44.2271 34.4054 44.0865 34.2288 44.0865C34.0521 44.0865 33.9089 44.2271 33.9089 44.4006C33.9089 44.574 34.0521 44.7147 34.2288 44.7147Z" fill="#C4CCD1"></path>
<path d="M33.2539 42.6012L34.1042 44.4015H34.4552L34.6424 42.3714L33.2539 42.6012Z" fill="#C4CCD1"></path>
<path d="M15.7488 48.1625L15.819 49.6104L16.7083 49.4495L16.3338 48.2774L15.7488 48.1625Z" fill="#627077"></path>
<path d="M18.1982 50.813C18.1982 50.859 18.1982 50.905 18.1904 50.9433C18.128 51.7476 17.4962 52.3911 16.7083 52.4524C16.6693 52.4601 16.6225 52.4601 16.5835 52.4601C15.6942 52.4601 14.9766 51.7246 14.9766 50.813C14.9766 49.9014 15.6942 49.166 16.5835 49.166C17.4806 49.166 18.1982 49.9014 18.1982 50.813Z" fill="#141414"></path>
<path d="M18.0659 50.8137C18.0659 50.852 18.0659 50.8827 18.0659 50.921C18.0269 51.5491 17.6213 52.0547 17.1143 52.1084C17.0909 52.1084 17.0597 52.116 17.0285 52.116C16.4512 52.116 15.991 51.5338 15.991 50.8214C15.991 50.1089 16.459 49.5267 17.0285 49.5267C17.5979 49.5191 18.0659 50.1013 18.0659 50.8137Z" fill="#8C9BA5"></path>
<path d="M17.3561 48.7377L17.1221 50.6682L16.8413 50.8137L15.8584 48.1172L17.3561 48.7377Z" fill="#C4CCD1"></path>
<path d="M45.1267 45.7266L45.821 47.4809L46.6166 46.7991L46.1642 45.3818L45.1267 45.7266Z" fill="#627077"></path>
<path d="M48.7306 47.9866C48.7306 48.0326 48.7306 48.0786 48.7228 48.1245C48.6604 48.9519 48.0129 49.6184 47.2016 49.6797C47.1626 49.6873 47.1158 49.6873 47.069 49.6873C46.1563 49.6873 45.4153 48.9289 45.4153 47.9866C45.4153 47.052 46.1563 46.286 47.069 46.286C47.9895 46.2936 48.7306 47.052 48.7306 47.9866Z" fill="#141414"></path>
<path d="M48.5744 48.1244C48.5744 48.1627 48.5744 48.201 48.5666 48.2393C48.5198 48.9211 48.0361 49.4574 47.4355 49.511C47.4043 49.511 47.3731 49.5186 47.3419 49.5186C46.6632 49.5186 46.1094 48.8981 46.1094 48.1244C46.1094 47.3583 46.6632 46.7302 47.3419 46.7302C48.0205 46.7302 48.5744 47.3583 48.5744 48.1244Z" fill="#8C9BA5"></path>
<path d="M45.8208 45.6191L47.3419 48.2774L47.6696 48.1242L47.4823 44.8684L45.8208 45.6191Z" fill="#C4CCD1"></path>
<path d="M25.6091 51.9467L26.1396 53.7316L27.0211 53.3179L26.6622 51.7628L25.6091 51.9467Z" fill="#627077"></path>
<path d="M38.1572 42.2631L17.6768 48.7582L17.7487 48.9769L38.2291 42.4818L38.1572 42.2631Z" fill="#7A8890"></path>
<path d="M35.0492 41.6941L34.991 41.9167L47.3585 45.0393L47.4167 44.8167L35.0492 41.6941Z" fill="#7A8890"></path>
<path d="M29.2596 54.9724C29.2596 55.026 29.2596 55.0796 29.2518 55.1333C29.1738 56.0908 28.4327 56.8492 27.5045 56.9182C27.4577 56.9258 27.4031 56.9258 27.3562 56.9258C26.3032 56.9258 25.4529 56.0525 25.4529 54.9724C25.4529 53.8922 26.3032 53.0189 27.3562 53.0189C28.4093 53.0189 29.2596 53.8922 29.2596 54.9724Z" fill="#141414"></path>
<path d="M29.1197 55.1727C29.1197 55.2187 29.1197 55.257 29.1119 55.3029C29.0495 56.092 28.4333 56.7202 27.6688 56.7738C27.6298 56.7814 27.583 56.7814 27.544 56.7814C26.6781 56.7814 25.9683 56.0613 25.9683 55.1727C25.9683 54.2841 26.6703 53.564 27.544 53.564C28.4099 53.564 29.1197 54.2841 29.1197 55.1727Z" fill="#8C9BA5"></path>
<path d="M26.2878 52.0006C26.2488 52.0006 26.2098 51.9853 26.1708 51.9623C26.1162 51.924 26.0928 51.8704 26.0928 51.8091V51.1809C26.0928 51.0967 26.1474 51.0277 26.2254 50.9971L40.1106 46.3547C40.2822 46.1249 41.3119 44.7843 42.1856 44.5468C43.0827 44.3017 45.7505 43.6582 45.7817 43.6505C45.8363 43.6429 46.2888 43.5356 46.2498 42.984C46.2185 42.555 43.2153 40.7624 41.0935 39.621L41.2027 39.4218C41.2183 39.4295 42.5132 40.1266 43.7925 40.9003C46.437 42.4861 46.4682 42.8385 46.476 42.9687C46.5228 43.5892 46.0703 43.8344 45.8285 43.8803C45.8051 43.888 43.1451 44.5315 42.248 44.7766C41.3899 45.0064 40.29 46.5079 40.2744 46.5233L40.251 46.5539L40.212 46.5692L26.319 51.2116V51.7555L47.256 44.9069V43.0913C47.256 42.0494 46.8036 41.9269 46.7958 41.9269L46.7646 41.9192L46.7412 41.8962L43.5429 39.1077L43.6989 38.9392L46.8972 41.7124C47.0298 41.7583 47.5057 42.0035 47.5057 43.0913V44.9375C47.5057 45.0218 47.4511 45.0907 47.373 45.1214L26.358 52.0006C26.3268 51.993 26.3112 52.0006 26.2878 52.0006Z" fill="#7A8891"></path>
<path d="M16.0218 48.1017C15.9672 48.1017 15.9126 48.0863 15.8658 48.048C15.7956 47.9944 15.7488 47.9178 15.7488 47.8335V47.4811C15.7488 47.3662 15.8268 47.2666 15.936 47.2283L27.8086 43.2601C27.9647 43.0533 28.8461 41.9042 29.6028 41.705C30.3751 41.4982 32.6685 40.9389 32.6919 40.9313C32.7387 40.9236 33.1131 40.8393 33.0819 40.372C33.0585 40.1192 31.4048 38.9701 28.6589 37.4916L28.7681 37.2925C28.7759 37.3001 29.8914 37.8977 30.9991 38.5641C33.2769 39.9354 33.3003 40.2265 33.3159 40.3567C33.3627 40.9006 32.9649 41.1151 32.7465 41.1534C32.7309 41.1611 30.4375 41.7127 29.6652 41.9195C28.9319 42.1187 27.9881 43.4057 27.9803 43.4133L27.9569 43.444L27.9179 43.4593L16.014 47.4428C15.9984 47.4505 15.9906 47.4658 15.9906 47.4811V47.8335C15.9906 47.8489 15.9984 47.8565 16.0062 47.8642C16.014 47.8718 16.0218 47.8718 16.0452 47.8718L33.9478 42.0114V40.4563C33.9478 39.5753 33.5734 39.4681 33.5656 39.4681L33.5422 39.4604L33.5187 39.4451L30.7573 37.0473L30.9133 36.8788L33.6592 39.2613C33.784 39.3072 34.1896 39.5217 34.1896 40.464V42.18L16.1076 48.0863C16.0842 48.1017 16.053 48.1017 16.0218 48.1017Z" fill="#7A8890"></path>
<path d="M25.8899 52.0238C25.8587 52.0238 25.8275 52.0161 25.7963 52.0084L15.866 48.3007C15.788 48.27 15.7412 48.2011 15.7412 48.1245V47.5346C15.7412 47.4733 15.7724 47.412 15.827 47.3814C15.8816 47.3431 15.944 47.3354 16.0064 47.3584L25.9913 50.8976C26.1005 50.9359 26.1707 51.0355 26.1707 51.1504V51.7633C26.1707 51.8476 26.1239 51.9318 26.0537 51.9855C25.9991 52.0084 25.9445 52.0238 25.8899 52.0238ZM15.9752 48.0938L25.8743 51.7939C25.8899 51.8016 25.9055 51.7939 25.9133 51.7863C25.9211 51.7786 25.9289 51.771 25.9289 51.7556V51.1428C25.9289 51.1275 25.9211 51.1121 25.9055 51.1045L15.9752 47.5882V48.0938Z" fill="#7A8890"></path>
<path d="M34.5878 19.4715L16.7087 24.527L16.7821 24.7773L34.6612 19.7218L34.5878 19.4715Z" fill="#7A8890"></path>
<path d="M34.6383 17.64L34.3093 22.0793L34.5739 22.0982L34.9028 17.6589L34.6383 17.64Z" fill="#7A8890"></path>
<path d="M20.9987 21.5572H20.6477V42.0188H20.9987V21.5572Z" fill="#8C9BA5"></path>
<path d="M23.3433 20.4895L22.9229 41.3683L23.2738 41.3751L23.6942 20.4963L23.3433 20.4895Z" fill="#8C9BA5"></path>
<path d="M26.1577 20.0016L25.8926 20.0073L26.3444 41.4607L26.6096 41.4551L26.1577 20.0016Z" fill="#7A8890"></path>
<path d="M28.6509 19.361L28.2598 40.8142L28.5249 40.8188L28.9161 19.3656L28.6509 19.361Z" fill="#7A8890"></path>
<path d="M31.6422 18.4377L29.9536 40.7213L30.2181 40.7406L31.9066 18.4571L31.6422 18.4377Z" fill="#7A8890"></path>
<path d="M46.3823 20.7981C46.3823 20.7981 37.0964 31.9052 36.7337 35.5827C36.371 39.2602 23.6018 41.6208 23.062 39.2023C22.5222 36.7837 23.6355 32.6092 23.6355 32.6092C23.6355 32.6092 25.5838 25.5772 32.2383 21.6512C32.3986 21.5601 32.5504 21.469 32.7191 21.3779C33.495 20.9555 34.33 20.5745 35.224 20.2514L46.3823 20.7981Z" fill="#F0CD94"></path>
<path d="M46.3819 20.7983C46.3819 20.7983 45.8337 31.2345 43.0505 34.3985C41.701 35.9308 40.1491 36.3698 38.9093 36.4112C37.5852 36.4609 36.6152 36.0634 36.6152 36.0634C36.6152 36.0634 38.8671 23.6642 46.3819 20.7983Z" fill="#E4B466"></path>
<path d="M43.5905 22.447L43.2784 22.7121L32.2297 21.6519C32.39 21.5608 32.5418 21.4696 32.7105 21.3785L43.5905 22.447Z" fill="#E6B362"></path>
<path d="M10.5927 24.5069L10.5146 24.2541L34.7592 17.5204L34.7826 17.528L51.8271 19.2517L51.7959 19.5122L34.7826 17.7885L10.5927 24.5069Z" fill="#7A8890"></path>
<path d="M14.454 35.109L13.8767 23.91L18.398 24.5661L18.7548 36.071L14.454 35.109Z" fill="#70C1F2"></path>
<path d="M18.7547 36.0714L21.6024 35.5554L21.3105 24.0124L18.3979 24.5666L18.7547 36.0714Z" fill="#0091FF"></path>
<path d="M18.3979 24.566L19.7083 21.9287L21.3105 24.0118L18.3979 24.566Z" fill="#0091FF"></path>
<path d="M18.398 24.5661L13.8767 23.91L15.3687 21.5211L19.7083 21.9288L18.398 24.5661Z" fill="#70C1F2"></path>
<path d="M19.7085 21.929L19.5528 20.9798L15.1223 20.6295L15.3688 21.5213L19.7085 21.929Z" fill="#70C1F2"></path>
<path d="M25.3156 20.8732C24.9372 22.2069 23.2953 35.0598 23.0656 36.9045C23.0453 37.0504 23.0385 37.1234 23.0385 37.1234L23.0115 37.1102L22.1872 36.6523L19.1399 34.947L21.8561 20.0637C21.8561 20.0637 22.2412 18.438 23.5115 18.438C24.1669 18.438 24.7345 18.7034 25.0723 19.1613C25.3966 19.5859 25.5183 20.1765 25.3156 20.8732Z" fill="#F79433"></path>
<path d="M25.3154 20.8732C24.9371 22.2069 23.2952 35.0598 23.0654 36.9045L23.0114 37.1102L22.1871 36.6523C22.0249 36.0153 21.9641 35.1726 22.2749 34.1707C22.9844 31.8615 21.7952 26.8783 23.2546 25.6905C24.6262 24.5758 23.5857 20.1765 25.0722 19.1613C25.3965 19.5859 25.5181 20.1765 25.3154 20.8732Z" fill="#CE640D"></path>
<path d="M43.788 28.7087C43.7178 28.5708 43.5774 28.4866 43.4292 28.4789C43.4292 28.341 43.4058 28.1955 43.3356 28.0652C43.1015 27.5903 42.5165 27.3911 42.0251 27.6209C41.8924 27.6822 41.791 27.7665 41.6974 27.866C41.479 27.7511 41.2138 27.7358 40.972 27.8507C40.6989 27.981 40.5351 28.2338 40.5117 28.5095C40.3323 28.4789 40.1373 28.5019 39.9579 28.5862C39.4976 28.8006 39.2948 29.3369 39.5132 29.7812C39.5288 29.8119 39.5444 29.8425 39.5678 29.8731C39.2948 30.1336 39.2012 30.5473 39.3728 30.8997C39.5054 31.1755 39.7707 31.3516 40.0593 31.3976C40.0281 31.5508 40.0437 31.7194 40.1217 31.8726C40.3089 32.2556 40.7847 32.4165 41.1826 32.2326C41.3464 32.156 41.479 32.0258 41.557 31.8802C41.8222 32.0258 42.1577 32.0411 42.4619 31.9032C42.7817 31.7577 42.9767 31.4666 43.0235 31.1525C43.2186 31.275 43.4682 31.3057 43.6944 31.1984C44.0298 31.0376 44.178 30.6469 44.022 30.3175C43.983 30.2409 43.9362 30.1796 43.8816 30.1259C44.061 29.9344 44.1078 29.651 43.9908 29.4058C43.9362 29.2909 43.8504 29.199 43.7412 29.1377C43.8348 29.0151 43.8582 28.8466 43.788 28.7087Z" fill="#88C057"></path>
<path d="M41.4481 32.0334C41.4481 32.0411 41.4403 32.0411 41.4403 32.0411V32.0487C41.4091 32.1177 41.3623 32.179 41.3155 32.2249C41.3857 32.3092 41.4169 32.4241 41.3779 32.5314C41.3389 32.6463 41.2375 32.7152 41.1205 32.7382C41.1361 32.7918 41.1361 32.8531 41.1205 32.9144C41.1205 32.945 41.1127 32.9757 41.0971 33.0063C41.0659 33.1059 41.0035 33.1825 40.9177 33.2361C40.8787 33.2668 40.8319 33.2821 40.7929 33.3051C40.7461 33.3204 40.6993 33.3357 40.6525 33.3357C40.6525 33.3511 40.6525 33.374 40.6525 33.3894C40.6525 33.4123 40.6447 33.4277 40.6447 33.4506C40.6369 33.4736 40.6369 33.4889 40.6291 33.5043C40.6213 33.5196 40.6135 33.5426 40.6057 33.5579C40.5979 33.5732 40.5901 33.5885 40.5823 33.6039C40.5667 33.6345 40.5433 33.6575 40.5199 33.6805C40.3872 33.8184 40.1844 33.872 39.9894 33.803C39.8178 33.7417 39.7008 33.5962 39.6696 33.4353C39.4746 33.5809 39.2171 33.6345 38.9753 33.5502C38.7959 33.4889 38.6555 33.3664 38.5775 33.2132C38.5541 33.1749 38.5385 33.1289 38.5229 33.0829C38.3981 33.1212 38.2655 33.1289 38.1406 33.0829C37.8286 32.9757 37.6726 32.6463 37.7818 32.3475C37.7896 32.3245 37.7974 32.3092 37.813 32.2862C37.8598 32.1943 37.93 32.1177 38.008 32.0641C37.8832 31.8955 37.8442 31.6657 37.9222 31.4512C38.0236 31.1754 38.2967 31.0069 38.5775 31.0069C38.5853 30.9839 38.5931 30.9533 38.6009 30.9303C38.7101 30.6315 39.0143 30.463 39.3185 30.486V30.5166C39.3185 30.6468 39.3419 30.7771 39.4044 30.8996C39.537 31.1754 39.8022 31.3516 40.0908 31.3976C40.083 31.4206 40.083 31.4512 40.0752 31.4742C40.0596 31.5814 40.0752 31.6887 40.1142 31.7959C40.122 31.8266 40.1376 31.8496 40.1454 31.8802C40.1922 31.9721 40.2468 32.0487 40.317 32.11C40.5511 32.3245 40.9021 32.3858 41.2063 32.2479C41.2297 32.2326 41.2609 32.2249 41.2765 32.2096C41.2999 32.1943 41.3233 32.179 41.3467 32.1637C41.3857 32.133 41.4169 32.1024 41.4481 32.0717C41.4403 32.0411 41.4481 32.0411 41.4481 32.0334Z" fill="#659C35"></path>
<path d="M43.6208 32.5105C43.6285 32.4881 43.6361 32.4732 43.6361 32.4508C43.6361 32.4732 43.6285 32.4881 43.6208 32.5105Z" fill="#436B1C"></path>
<path d="M42.4541 33.481H42.4307C42.0328 33.4656 41.6584 33.4503 41.2918 33.4273C41.2528 33.4273 41.2138 33.4273 41.1748 33.4197C40.9953 33.412 40.8237 33.3967 40.6599 33.389C40.6599 33.3737 40.6599 33.3507 40.6599 33.3354C40.7067 33.3278 40.7613 33.3201 40.8003 33.3048C40.8471 33.2894 40.8861 33.2665 40.9251 33.2358C41.0031 33.1745 41.0655 33.0979 41.1046 33.006C41.1124 32.9754 41.1202 32.9447 41.128 32.9141C41.1358 32.8988 41.1358 32.8834 41.1358 32.8681C41.1358 32.8375 41.1436 32.8145 41.1592 32.7915C41.4244 32.8834 41.9236 33.0826 42.4541 33.481Z" fill="#436B1C"></path>
<path d="M44.7084 31.665C44.5524 31.7416 44.4354 31.8489 44.3495 31.9868C44.1233 32.3698 44.1389 32.952 44.2403 33.5342C44.0375 33.5266 43.8347 33.5266 43.6397 33.5189C43.4057 33.5113 43.1794 33.5036 42.9532 33.4959C42.7348 33.0286 42.4228 32.4311 42.0717 32.0251C42.0639 32.0174 42.0561 32.0021 42.0405 31.9868C42.1497 31.9868 42.2589 31.9715 42.3682 31.9332C42.4072 31.9178 42.4384 31.9102 42.4696 31.8872C42.5086 31.8719 42.5398 31.8566 42.571 31.8336C42.6022 31.8183 42.6256 31.7953 42.6568 31.7723C42.6646 31.7723 42.6646 31.7646 42.6724 31.7646C42.6958 31.7493 42.7192 31.7263 42.7426 31.7033C42.7504 31.6957 42.7504 31.6957 42.7582 31.688C42.7738 31.6727 42.7894 31.6574 42.805 31.6344C42.8128 31.6267 42.8206 31.6191 42.8284 31.6114C42.8986 31.7187 42.9844 31.8489 43.0624 31.9945C43.273 32.3698 43.4759 32.8524 43.5695 33.3887C43.5617 33.2891 43.5149 32.6379 43.5929 31.9868C43.6241 31.757 43.6709 31.5272 43.7411 31.3203C43.7723 31.3433 43.7957 31.3663 43.8191 31.3969C43.8191 31.3969 43.8191 31.4046 43.8269 31.4046C43.8347 31.4122 43.8425 31.4276 43.8503 31.4352C43.8815 31.4735 43.9283 31.4965 43.9751 31.5195C44.0921 31.5578 44.2091 31.5272 44.2949 31.4582C44.3339 31.4965 44.3729 31.5272 44.4198 31.5578C44.4666 31.5884 44.5134 31.6114 44.568 31.6267C44.5914 31.6344 44.607 31.6421 44.6304 31.6421C44.646 31.6497 44.6694 31.6497 44.685 31.6497C44.685 31.665 44.7006 31.665 44.7084 31.665Z" fill="#436B1C"></path>
<path d="M40.7615 30.3782C40.7459 30.3859 40.7224 30.3936 40.7068 30.3936C40.2778 30.4242 39.9034 30.1024 39.8722 29.6811C39.841 29.2598 40.1686 28.8921 40.5976 28.8614C40.6834 28.8538 40.7615 28.9227 40.7693 29.007C40.7771 29.0912 40.7068 29.1678 40.621 29.1755C40.3636 29.1908 40.1764 29.413 40.192 29.6658C40.2076 29.9186 40.4338 30.1024 40.6912 30.0871C40.7771 30.0795 40.8551 30.1484 40.8629 30.2327C40.8629 30.294 40.8239 30.3476 40.7615 30.3782Z" fill="#659C35"></path>
<path d="M43.0314 30.7081C42.7817 30.823 42.4853 30.8077 42.2435 30.6468C42.1733 30.5932 42.1499 30.5013 42.2045 30.4247C42.2513 30.3557 42.3527 30.3327 42.4307 30.3864C42.5321 30.4553 42.6569 30.4859 42.7739 30.463C42.8987 30.44 43.0002 30.3787 43.0704 30.2791C43.1406 30.1795 43.1718 30.0569 43.1484 29.942C43.125 29.8195 43.0626 29.7199 42.9612 29.6509C42.8909 29.5973 42.8675 29.5054 42.9222 29.4288C42.969 29.3598 43.0704 29.3368 43.1484 29.3905C43.32 29.5054 43.437 29.6816 43.4682 29.8884C43.5072 30.0876 43.4604 30.2944 43.3356 30.463C43.2576 30.5702 43.1484 30.6545 43.0314 30.7081Z" fill="#659C35"></path>
<path d="M42.1577 30.1794C42.0563 30.2254 41.9393 30.256 41.8145 30.256C41.3855 30.256 41.0344 29.9037 41.0344 29.4823C41.0344 29.398 41.1046 29.3291 41.1982 29.3291C41.284 29.3291 41.3543 29.398 41.3543 29.49C41.3543 29.7428 41.5571 29.9496 41.8145 29.9496C42.0719 29.9496 42.2825 29.7504 42.2825 29.4976C42.2825 29.4134 42.3527 29.3444 42.4464 29.3444C42.5322 29.3444 42.6024 29.4134 42.6024 29.5053C42.6024 29.7964 42.4151 30.0569 42.1577 30.1794Z" fill="#659C35"></path>
<path d="M41.448 31.4897C41.3544 31.5356 41.2452 31.5586 41.136 31.5663C40.7069 31.5816 40.3403 31.2445 40.3247 30.8232C40.3247 30.7389 40.3871 30.6623 40.4807 30.6623C40.5665 30.6623 40.6445 30.7313 40.6445 30.8155C40.6523 31.0683 40.8708 31.2675 41.1204 31.2599C41.2452 31.2522 41.3622 31.2062 41.4402 31.1143C41.526 31.0224 41.5728 30.9075 41.565 30.7849C41.565 30.7006 41.6274 30.624 41.721 30.624C41.8068 30.624 41.8849 30.693 41.8849 30.7772C41.8927 30.9841 41.8146 31.1756 41.6742 31.3288C41.6118 31.3901 41.5338 31.4437 41.448 31.4897Z" fill="#659C35"></path>
<path d="M42.2981 29.1912C42.2747 29.1988 42.2513 29.2141 42.2279 29.2218C42.0329 29.2907 41.8223 29.2831 41.6272 29.1988C41.5492 29.1605 41.5102 29.0686 41.5492 28.992C41.5882 28.9154 41.6818 28.8771 41.7599 28.9154C41.8691 28.969 42.0017 28.969 42.1109 28.9307C42.2279 28.8924 42.3215 28.8081 42.3761 28.6932C42.4853 28.4634 42.3839 28.1953 42.1499 28.088C42.0719 28.0497 42.0329 27.9578 42.0719 27.8812C42.1109 27.8046 42.2045 27.7663 42.2825 27.8046C42.6725 27.9808 42.8441 28.4404 42.6647 28.8234C42.5945 28.9843 42.4619 29.1145 42.2981 29.1912Z" fill="#659C35"></path>
<path d="M46.3701 27.0308C46.3779 26.8775 46.2921 26.7397 46.1673 26.6554C46.2375 26.5328 46.2765 26.3949 46.2843 26.2494C46.3077 25.7208 45.8943 25.2765 45.3482 25.2458C45.2078 25.2382 45.0674 25.2611 44.9426 25.3071C44.81 25.1079 44.5759 24.97 44.3107 24.9547C44.0065 24.9394 43.7335 25.0849 43.5853 25.3224C43.437 25.2152 43.2576 25.1462 43.0626 25.1309C42.5556 25.1079 42.1187 25.4833 42.0953 25.9736C42.0953 26.0119 42.0953 26.0502 42.0953 26.0808C41.7287 26.1804 41.4479 26.5022 41.4245 26.8929C41.4089 27.1993 41.5571 27.4751 41.7911 27.6513C41.6897 27.7738 41.6195 27.9271 41.6117 28.0956C41.5883 28.5246 41.9315 28.8846 42.3761 28.9076C42.5634 28.9153 42.735 28.8617 42.8754 28.7697C43.0392 29.0225 43.3278 29.1911 43.6555 29.214C44.0065 29.2294 44.3263 29.0685 44.5135 28.8157C44.6227 29.0149 44.8334 29.1604 45.083 29.1681C45.4574 29.1834 45.7772 28.9076 45.7928 28.5476C45.8006 28.4633 45.785 28.3867 45.7616 28.3177C46.0113 28.2335 46.1907 28.0037 46.2063 27.7355C46.2141 27.6053 46.1829 27.4827 46.1205 27.3831C46.2609 27.3219 46.3623 27.184 46.3701 27.0308Z" fill="#88C057"></path>
<path d="M42.8987 27.0922C42.8831 27.0922 42.8597 27.0845 42.8441 27.0769C42.4541 26.9007 42.2747 26.4487 42.4541 26.058C42.6335 25.675 43.0937 25.4988 43.4916 25.675C43.5696 25.7133 43.6086 25.8052 43.5696 25.8818C43.5306 25.9584 43.437 25.9967 43.359 25.9584C43.1249 25.8588 42.8519 25.9584 42.7427 26.1883C42.6413 26.4181 42.7427 26.6862 42.9767 26.7934C43.0547 26.8317 43.0937 26.9237 43.0547 27.0003C43.0235 27.0539 42.9611 27.0922 42.8987 27.0922Z" fill="#659C35"></path>
<path d="M44.7321 28.4407C44.4591 28.4253 44.2016 28.2721 44.069 28.0193C44.03 27.9427 44.0612 27.8508 44.1392 27.8125C44.2172 27.7742 44.3109 27.8048 44.3499 27.8814C44.4045 27.9887 44.4981 28.073 44.6151 28.1113C44.7321 28.1496 44.8569 28.1419 44.9661 28.0883C45.0753 28.0347 45.1611 27.9427 45.2001 27.8278C45.2391 27.7129 45.2313 27.5903 45.1767 27.4831C45.1377 27.4065 45.1689 27.3146 45.2469 27.2763C45.3249 27.238 45.4186 27.2686 45.4576 27.3452C45.5512 27.5291 45.5668 27.7359 45.4966 27.9351C45.4342 28.1266 45.2937 28.2875 45.1065 28.3794C44.9973 28.4177 44.8647 28.4407 44.7321 28.4407Z" fill="#659C35"></path>
<path d="M44.2168 27.5594C44.0998 27.5518 43.9906 27.5211 43.8814 27.4675C43.4991 27.2607 43.3665 26.7934 43.5693 26.4257C43.6084 26.349 43.7098 26.3184 43.7878 26.3644C43.8658 26.4027 43.897 26.5023 43.8502 26.5789C43.7254 26.801 43.8112 27.0768 44.0374 27.1994C44.2636 27.322 44.5444 27.2377 44.6692 27.0155C44.7083 26.9389 44.8097 26.9083 44.8877 26.9542C44.9657 26.9925 44.9969 27.0921 44.9501 27.1687C44.7941 27.4292 44.5054 27.5748 44.2168 27.5594Z" fill="#659C35"></path>
<path d="M42.9611 28.3798C42.8519 28.3722 42.7505 28.3492 42.6491 28.3032C42.2591 28.1117 42.1031 27.6521 42.2981 27.269C42.3371 27.1924 42.4307 27.1618 42.5087 27.2001C42.5867 27.2384 42.6179 27.3303 42.5789 27.4069C42.4619 27.6291 42.5555 27.9049 42.7895 28.0198C42.8987 28.0734 43.0235 28.0811 43.1405 28.0428C43.2575 28.0045 43.3512 27.9202 43.4058 27.8129C43.4448 27.7363 43.5384 27.7057 43.6164 27.744C43.6944 27.7823 43.7256 27.8742 43.6866 27.9508C43.593 28.1347 43.4292 28.2726 43.2341 28.3339C43.1561 28.3722 43.0547 28.3875 42.9611 28.3798Z" fill="#659C35"></path>
<path d="M44.8256 26.7631C44.8022 26.7631 44.7788 26.7631 44.7476 26.7554C44.537 26.7247 44.3576 26.6175 44.2328 26.4566C44.1782 26.3877 44.1938 26.2881 44.264 26.2345C44.3342 26.1808 44.4356 26.1962 44.4902 26.2651C44.5604 26.3647 44.6696 26.426 44.7944 26.4413C44.9192 26.4566 45.0363 26.426 45.1377 26.357C45.3405 26.2038 45.3873 25.9204 45.2313 25.7212C45.1767 25.6523 45.1923 25.5527 45.2625 25.499C45.3327 25.4454 45.4341 25.4607 45.4887 25.5297C45.7461 25.8668 45.6759 26.3494 45.3249 26.6022C45.1767 26.7171 45.0051 26.7707 44.8256 26.7631Z" fill="#659C35"></path>
<path d="M39.443 32.6236C39.3572 32.6619 39.2558 32.6925 39.1544 32.7002C38.7253 32.7232 38.3509 32.4014 38.3275 31.9801C38.3197 31.8958 38.3899 31.8192 38.4757 31.8116C38.5615 31.8039 38.6395 31.8729 38.6473 31.9571C38.6629 32.2099 38.8813 32.4014 39.1388 32.3861C39.3962 32.3708 39.5912 32.1563 39.5756 31.9035C39.5678 31.8192 39.638 31.7426 39.7238 31.735C39.8096 31.7273 39.8876 31.7962 39.8954 31.8805C39.911 32.2023 39.7238 32.4934 39.443 32.6236Z" fill="#88C057"></path>
<path d="M23.7074 25.4184H21.7683C21.5723 25.4184 21.4102 25.2592 21.4102 25.0667V24.9738C21.4102 24.7814 21.5723 24.6222 21.7683 24.6222H23.7074C23.9034 24.6222 24.0656 24.7814 24.0656 24.9738V25.0667C24.0656 25.2592 23.9034 25.4184 23.7074 25.4184Z" fill="#FDBA4D"></path>
<path d="M45.6602 28.7929C45.6368 28.7852 45.6056 28.7775 45.5822 28.7699C45.59 28.4941 45.4106 28.2336 45.1298 28.1417C44.9113 28.0651 44.6773 28.1111 44.4979 28.2336C44.4277 28.1341 44.3341 28.0574 44.2093 28.0191C43.8972 27.9119 43.5618 28.0728 43.4448 28.3715C43.437 28.3945 43.437 28.4098 43.4292 28.4328C43.4292 28.4481 43.4292 28.4558 43.4292 28.4711C43.5774 28.4788 43.7178 28.563 43.788 28.7009C43.8582 28.8465 43.8348 29.0074 43.7412 29.1299C43.8426 29.1912 43.9362 29.2831 43.9909 29.3981C44.1079 29.6432 44.0533 29.9266 43.8816 30.1182C43.9362 30.1718 43.983 30.2331 44.0221 30.3097C44.1781 30.6391 44.0377 31.0298 43.6944 31.1907C43.6164 31.229 43.5306 31.2443 43.4526 31.2519C43.4604 31.2596 43.476 31.2673 43.4838 31.2673C43.5774 31.2979 43.671 31.2979 43.7646 31.2826C43.7802 31.3898 43.8582 31.4894 43.9674 31.5277C44.0767 31.566 44.2015 31.5354 44.2873 31.4664C44.3653 31.543 44.4511 31.5967 44.5603 31.635C44.9425 31.7652 45.3638 31.566 45.4964 31.1983C45.5354 31.0987 45.5432 30.9991 45.5354 30.9072C45.7148 30.8536 45.863 30.7234 45.9332 30.5472C46.0112 30.3403 45.9566 30.1258 45.824 29.9726C45.9332 29.896 46.0268 29.7888 46.0736 29.6509C46.2062 29.2985 46.019 28.9154 45.6602 28.7929Z" fill="#659C35"></path>
<path d="M45.1765 30.1332C45.0907 30.1715 44.9971 30.2022 44.8957 30.2022C44.6851 30.2175 44.4823 30.1486 44.3263 30.0183C44.2561 29.9647 44.2561 29.8651 44.3107 29.7962C44.3653 29.7272 44.4667 29.7272 44.5369 29.7809C44.6305 29.8575 44.7475 29.8958 44.8723 29.8881C44.9971 29.8804 45.1063 29.8268 45.1921 29.7349C45.2702 29.643 45.3092 29.5281 45.3014 29.4055C45.2936 29.2829 45.239 29.1757 45.1453 29.0914C45.0751 29.0378 45.0751 28.9382 45.1297 28.8692C45.1843 28.8003 45.2858 28.8003 45.356 28.8539C45.512 28.9918 45.6134 29.1757 45.6212 29.3825C45.6368 29.5893 45.5666 29.7885 45.434 29.9417C45.3638 30.026 45.278 30.0873 45.1765 30.1332Z" fill="#88C057"></path>
<path d="M23.3394 45.244C23.2926 45.244 23.2536 45.2363 23.2068 45.2286L11.6306 41.9652C11.4356 41.9116 11.2952 41.743 11.2796 41.5439L10.0002 24.7593C9.99244 24.6061 10.047 24.4682 10.1641 24.3687C10.2811 24.2691 10.4293 24.2308 10.5775 24.2614L22.5203 26.6362C22.5515 26.6439 22.5906 26.6439 22.6218 26.6362L51.7729 19.2667C51.9367 19.2283 52.1084 19.2667 52.2254 19.3816C52.3502 19.4965 52.397 19.6573 52.3658 19.8182L47.7946 42.0265C47.7556 42.2257 47.584 42.3789 47.3811 42.4019L23.394 45.244C23.3784 45.244 23.3628 45.244 23.3394 45.244ZM10.4839 24.5065C10.4293 24.5065 10.3825 24.5219 10.3357 24.5602C10.2811 24.6061 10.2577 24.6674 10.2655 24.7364L11.5448 41.5209C11.5526 41.6128 11.615 41.6894 11.7008 41.7124L23.277 44.9758C23.3082 44.9835 23.3316 44.9835 23.3628 44.9835L47.3499 42.1414C47.4435 42.1337 47.5215 42.0648 47.5372 41.9729L52.1084 19.7646C52.124 19.688 52.1006 19.619 52.0459 19.5654C51.9913 19.5118 51.9133 19.4965 51.8431 19.5118L22.692 26.8814C22.6218 26.8967 22.5437 26.9043 22.4735 26.889L10.5307 24.5142C10.5151 24.5065 10.4995 24.5065 10.4839 24.5065Z" fill="#7A8890"></path>
<path d="M11.864 24.7775L11.5994 24.7945L12.7489 42.1939L13.0135 42.1769L11.864 24.7775Z" fill="#7A8890"></path>
<path d="M14.2059 25.0729L13.9412 25.0877L14.9364 42.8099L15.2012 42.7951L14.2059 25.0729Z" fill="#7A8890"></path>
<path d="M16.8728 25.6063L16.6079 25.6187L17.4467 43.5181L17.7116 43.5057L16.8728 25.6063Z" fill="#7A8890"></path>
<path d="M19.715 26.1707L19.45 26.1807L20.1318 44.2707L20.3968 44.2607L19.715 26.1707Z" fill="#7A8890"></path>
<path d="M25.4252 26.0851L25.1602 26.0932L25.7338 44.8222L25.9989 44.814L25.4252 26.0851Z" fill="#7A8890"></path>
<path d="M22.6882 26.5659L22.4231 26.5752L22.7355 35.5177L23.0006 35.5084L22.6882 26.5659Z" fill="#7A8890"></path>
<path d="M24.5139 35.4898C24.5139 35.4898 25.0915 34.8548 25.9104 34.4485C26.7293 34.0422 28.8758 33.0771 29.9361 30.7321C29.9361 30.7321 30.9964 28.9459 31.9532 29.2337C32.9101 29.5216 32.1429 30.9692 32.1429 30.9692L29.9619 35.7691L24.5139 35.4898Z" fill="#236063"></path>
<path d="M23.9453 35.3964C23.9453 35.3964 24.5229 34.7615 25.3418 34.3551C26.1607 33.9573 28.3072 32.9837 29.3675 30.6388C29.3675 30.6388 30.4278 28.8525 31.3846 29.1404C32.3415 29.4282 31.5743 30.8758 31.5743 30.8758L29.3933 35.6758L23.9453 35.3964Z" fill="#327575"></path>
<path d="M31.0484 31.7982C30.6864 31.8828 30.7381 31.7643 30.7381 31.7643C30.7381 31.7643 31.1432 31.4426 31.2467 31.1802C31.2898 31.0701 31.2984 30.9601 31.2812 30.8754C31.2639 30.7654 31.2036 30.6892 31.1605 30.6468C31.0743 30.5791 30.5657 31.1294 30.4622 31.4341C30.3588 31.7389 30.3415 31.9844 30.3415 31.9844C30.3415 31.9844 30.2553 31.8997 30.0657 31.5357C29.876 31.1717 29.9967 30.4521 29.9967 30.4521C29.5743 30.486 29.2812 30.2151 29.2812 30.2151C29.5743 30.1643 30.4364 29.0469 30.4364 29.0469C31.2553 28.5813 31.8501 28.9283 32.0915 29.0299C32.1432 29.0553 32.1949 29.1061 32.2294 29.1654C32.3587 29.377 32.3846 29.7326 32.3846 29.7326L32.7725 30.0035C33.0225 30.6638 31.4191 31.705 31.0484 31.7982Z" fill="#56A27A"></path>
<path d="M31.7896 29.1654C31.7896 29.1654 32.4534 28.4712 32.4534 28.031C32.4534 27.5993 31.9879 27.1337 31.7896 27.049C31.5913 26.9644 31.5913 26.5919 31.9017 26.6766C32.212 26.7612 32.8154 27.3961 32.8327 27.4638C32.8585 27.5316 33.1085 28.1411 32.1948 29.3347" fill="#56A27A"></path>
<path d="M31.0482 31.7986C30.6862 31.8832 30.7379 31.7647 30.7379 31.7647C30.7379 31.7647 31.1431 31.443 31.2465 31.1806C31.2896 31.0705 31.2982 30.9605 31.281 30.8758C31.2982 30.825 31.3155 30.7573 31.3413 30.6896C31.531 30.0547 31.7637 29.2758 32.2206 29.1743C32.3499 29.3859 32.3758 29.7414 32.3758 29.7414L32.7637 30.0123C33.0223 30.6642 31.4189 31.7054 31.0482 31.7986Z" fill="#478E67"></path>
<path d="M33.1514 30.987C33.1514 30.987 32.9704 30.3182 32.6773 30.1658C32.3842 30.005 32.3325 29.7595 32.3325 29.7595C32.3325 29.7595 32.4791 29.7087 32.4532 29.6494C32.4532 29.6494 32.5222 29.8018 32.5825 29.878C32.6428 29.9542 32.867 30.0473 32.9446 30.1827C33.0221 30.3182 33.2204 30.8261 33.229 30.987C33.229 31.1478 33.1514 30.987 33.1514 30.987Z" fill="#AA2D4D"></path>
<path d="M36.0655 33.5774C35.9793 33.8737 35.8413 34.17 35.6689 34.4578C34.5914 36.2102 31.5657 33.8991 31.5657 33.8991C31.5657 33.8991 30.5916 32.9763 30.7554 31.9182C30.9278 30.86 31.5312 30.86 31.9967 30.86C32.4708 30.86 33.0398 30.8938 33.6087 30.6314C33.7552 30.5637 33.919 30.4875 34.0828 30.4282C34.5311 30.2589 35.0138 30.1573 35.462 30.4028C35.9706 30.6737 36.5223 32.0959 36.0655 33.5774Z" fill="#CE3C55"></path>
<path d="M32.1263 31.232C32.1263 31.232 31.3074 31.0881 31.2298 31.74C31.1522 32.3918 31.8591 33.4246 32.1263 33.5516C32.1263 33.5516 31.2729 32.1971 31.6263 31.867C31.9711 31.5453 32.5659 31.5029 32.1263 31.232Z" fill="#E27F94"></path>
<path d="M36.0656 33.5778C35.9363 33.3915 35.7811 33.163 35.6518 32.9598C35.3674 32.5111 35.8415 32.4011 35.7811 31.9778C35.7208 31.5545 35.1001 31.3683 34.4105 31.0127C34.0916 30.8434 34.0398 30.6148 34.0829 30.4201C34.5312 30.2508 35.0139 30.1492 35.4622 30.3947C35.9708 30.6741 36.5225 32.0963 36.0656 33.5778Z" fill="#AA2D4D"></path>
<path d="M28.1347 25.4035L27.8696 25.4111L28.4087 44.2721L28.6738 44.2645L28.1347 25.4035Z" fill="#7A8890"></path>
<path d="M31.3133 24.6833L31.0481 24.6891L31.475 44.0439L31.7402 44.0381L31.3133 24.6833Z" fill="#7A8890"></path>
<path d="M34.7594 23.7251H34.4941V43.7731H34.7594V23.7251Z" fill="#7A8890"></path>
<path d="M37.8253 22.9514H37.5601V43.413H37.8253V22.9514Z" fill="#7A8890"></path>
<path d="M40.3077 22.2602L39.8855 43.1389L40.1507 43.1441L40.5728 22.2653L40.3077 22.2602Z" fill="#7A8890"></path>
<path d="M43.8097 21.3698L42.7144 42.7994L42.9792 42.8125L44.0746 21.3829L43.8097 21.3698Z" fill="#7A8890"></path>
<path d="M47.9596 20.3064L45.2268 42.4916L45.4901 42.5229L48.2229 20.3377L47.9596 20.3064Z" fill="#7A8890"></path>
<path d="M22.5044 29.4472L10.1013 26.8886L10.1559 26.6358L22.4966 29.1791L51.7024 22.1313L51.7648 22.3841L22.5044 29.4472Z" fill="#7A8890"></path>
<path d="M22.8555 41.7884L22.8243 41.7807L11.1077 38.3487L11.2091 38.0117L22.8867 41.436L48.0673 38.8313L48.1063 39.1684L22.8555 41.7884Z" fill="black"></path>
<path d="M50.1188 31.24L47.9736 42.1334C47.9268 42.3556 47.7474 42.5241 47.5212 42.5471L23.5107 45.3816L23.0036 45.282L11.6146 42.0262C11.404 41.9649 11.248 41.7811 11.2324 41.5666L10.5615 32.6572L22.8554 35.4534L50.1188 31.24Z" fill="#F79433"></path>
<path d="M23.5029 45.3814L22.9958 45.2818L11.6068 42.0261C11.3962 41.9648 11.2402 41.7809 11.2246 41.5664L10.5615 32.6571L22.8554 35.4532L23.5029 45.3814Z" fill="#FDBA4D"></path>
<path d="M24.2546 21.942H22.3154C22.1194 21.942 21.9573 21.7828 21.9573 21.5903V21.4974C21.9573 21.305 22.1194 21.1458 22.3154 21.1458H24.2546C24.4505 21.1458 24.6127 21.305 24.6127 21.4974V21.5903C24.6127 21.7894 24.4573 21.942 24.2546 21.942Z" fill="#FDBA4D"></path>
<path d="M24.0046 23.6536H22.0654C21.8694 23.6536 21.7073 23.4943 21.7073 23.3019V23.209C21.7073 23.0166 21.8694 22.8573 22.0654 22.8573H24.0046C24.2005 22.8573 24.3627 23.0166 24.3627 23.209V23.3019C24.3627 23.4943 24.2073 23.6536 24.0046 23.6536Z" fill="#FDBA4D"></path>
<path d="M36.6396 16.1108L52.8182 17.2599L55.0336 16.2793L36.4446 15L36.6396 16.1108Z" fill="#C4CCD1"></path>
<path d="M52.4905 17.3898L53.6294 18.6768L55.6263 17.3898C55.6263 17.3898 55.7043 16.325 55.0335 16.2791L52.4905 17.3898Z" fill="#CE640D"></path>
<path d="M34.4397 15.835L35.4694 16.9611L36.6395 16.1108L36.4445 15L34.4397 15.835Z" fill="#CE640D"></path>
<path d="M42.2345 43.531L21.8657 50.3085L21.9408 50.5262L42.3096 43.7486L42.2345 43.531Z" fill="#7A8890"></path>
<path d="M34.6386 19.4675L34.6108 19.7266L51.7943 21.5048L51.8221 21.2458L34.6386 19.4675Z" fill="#7A8890"></path>
<path d="M28.5191 51.2575L27.7937 54.6205V55.3177L27.2866 55.3789L27.2008 54.6742L26.3115 52.0006L28.5191 51.2575Z" fill="#C4CCD1"></path>
<path d="M27.5674 55.6467C27.8345 55.6467 28.051 55.4341 28.051 55.1718C28.051 54.9095 27.8345 54.6968 27.5674 54.6968C27.3003 54.6968 27.0837 54.9095 27.0837 55.1718C27.0837 55.4341 27.3003 55.6467 27.5674 55.6467Z" fill="#C4CCD1"></path>
<path d="M17.0207 51.0738C17.206 51.0738 17.3562 50.9263 17.3562 50.7444C17.3562 50.5625 17.206 50.415 17.0207 50.415C16.8355 50.415 16.6853 50.5625 16.6853 50.7444C16.6853 50.9263 16.8355 51.0738 17.0207 51.0738Z" fill="#C4CCD1"></path>
<path d="M47.4045 48.5985C47.6716 48.5985 47.8882 48.3858 47.8882 48.1235C47.8882 47.8612 47.6716 47.6486 47.4045 47.6486C47.1374 47.6486 46.9209 47.8612 46.9209 48.1235C46.9209 48.3858 47.1374 48.5985 47.4045 48.5985Z" fill="#C4CCD1"></path>
<path d="M34.4394 15.8349L33.9167 17.7347L34.767 17.5202L35.3521 17.5738L35.4691 16.961L34.4394 15.8349Z" fill="#C4CCD1"></path>
<path d="M52.4903 17.39L51.0706 19.1826L51.8116 19.2516C51.8116 19.2516 52.3655 19.2286 52.3733 19.7265L53.6292 18.677L52.4903 17.39Z" fill="#C4CCD1"></path>
</g>
<defs>
<clipPath id="clip0">
<rect width="45.6262" height="41.9268" fill="white" transform="translate(10 15)"></rect>
</clipPath>
</defs>
</svg>