<svg width="64" height="64" viewBox="0 0 64 64" fill="none" xmlns="http://www.w3.org/2000/svg">
<rect width="64" height="64" rx="32" fill="white"></rect>
<path d="M17.3303 41.1804C17.3617 41.2084 17.3954 41.2339 17.4311 41.2567C18.8023 42.2214 20.9292 42.9736 23.655 43.6822C26.5441 44.0679 29.4595 44.2356 32.3751 44.1837C35.2852 44.2188 38.194 44.0476 41.0785 43.6713C43.8099 42.9573 45.9367 42.1996 47.308 41.224L47.3864 41.164L17.3303 41.1804Z" fill="#232323"></path>
<path d="M8.71649 35.4729C8.53873 35.5957 8.33963 35.6862 8.1288 35.74L8.02246 35.9744C8.06998 36.0347 8.12239 36.0912 8.17918 36.1434C10.3452 38.3727 13.7146 40.1278 18.0467 41.7957C21.3602 42.3408 23.6438 43.0003 31.9162 43.0766C36.5724 43.1975 41.2291 42.8542 45.8136 42.0519C50.1961 40.4548 53.6102 38.7815 55.8155 36.5576L55.9386 36.4322L8.71649 35.4729Z" fill="#F79433"></path>
<path d="M56.0001 36.3629C56.0001 36.9079 52.9889 37.393 48.1978 37.7037L47.4422 37.7473H46.9945C46.8154 37.7473 46.6251 37.7473 46.4348 37.78C42.6232 37.9708 37.9105 38.0689 32.8004 38.0362H31.9945H30.209H30.1362L27.4721 37.9545H26.0056L24.3265 37.8945C23.9179 37.8945 23.5094 37.8945 23.112 37.8454H23.0504C22.0877 37.8127 21.1586 37.7691 20.2519 37.7146H19.972L18.7071 37.6383L17.4086 37.5511C16.0093 37.453 14.7276 37.344 13.597 37.2241C10.1045 36.8643 8 36.4174 8 35.9541C8 35.5834 9.36008 35.2455 11.6996 34.9675C12.153 34.913 12.6455 34.8639 13.1717 34.8203L14.0224 34.744C14.6213 34.695 15.2593 34.6514 15.9254 34.6078L16.7817 34.5532L17.834 34.4987C18.7127 34.4551 19.6362 34.4224 20.6325 34.3897L22.1493 34.3407L24.5616 34.2862H25.015H25.8769H26.2463H27.7351H30.8135H32.0112C33.6288 34.2862 35.2127 34.3243 36.7351 34.3625C37.6866 34.3625 38.6157 34.417 39.5336 34.4442H39.8135C41.1008 34.4933 42.3434 34.5423 43.5243 34.6078C44.4702 34.6568 45.3714 34.7113 46.2333 34.7713C46.9385 34.8203 47.6158 34.8694 48.2594 34.9239L48.8191 34.9675C53.2576 35.3218 56.0057 35.8287 56.0001 36.3629Z" fill="#CE640D"></path>
<path d="M46.9886 37.7686C46.8095 37.7686 46.6248 37.7686 46.4289 37.8013C42.6118 37.9921 37.9047 38.0902 32.789 38.0575H31.9886H30.2087H30.136C29.4082 36.9198 29.1131 35.5697 29.302 34.242C29.3402 33.9841 29.404 33.7304 29.4923 33.4844C29.566 33.2683 29.6538 33.0571 29.7554 32.8521C29.8695 32.6431 29.9966 32.441 30.136 32.2471C30.646 31.5328 31.3208 30.9448 32.1061 30.5301C34.2162 29.3582 37.233 29.1129 40.2498 30.0886C41.8996 30.6102 43.4073 31.4878 44.6603 32.6559C45.3094 33.2607 45.8537 33.9638 46.2722 34.738C46.4893 35.1197 46.662 35.5237 46.7871 35.9426C46.9643 36.5349 47.0325 37.1531 46.9886 37.7686Z" fill="#FFF4DA"></path>
<path d="M48.741 36.2638C48.6366 36.7683 48.4475 37.2527 48.1813 37.6973L47.4313 37.7464H46.9779C46.7988 37.7464 46.6141 37.7464 46.4182 37.7791C42.601 37.9698 37.8939 38.068 32.7783 38.0352C31.6853 37.025 30.9869 35.6762 30.8025 34.2198C30.7626 33.7627 30.7871 33.3023 30.8753 32.8517C30.925 32.6306 30.9866 32.4123 31.06 32.1976C31.2818 31.5829 31.6218 31.015 32.0618 30.5242C33.8753 28.4857 37.3734 27.4773 41.0843 28.1859C44.5712 28.8509 47.297 30.8676 48.3492 33.1951C48.6041 33.7448 48.7611 34.3328 48.8137 34.9338C48.8509 35.3783 48.8264 35.8257 48.741 36.2638Z" fill="#F3F3F3"></path>
<path d="M41.7303 32.368C41.7421 31.1488 40.2056 30.1464 38.2984 30.1289C36.3913 30.1113 34.8357 31.0855 34.8239 32.3046C34.8121 33.5237 36.3485 34.5262 38.2557 34.5437C40.1629 34.5612 41.7185 33.5871 41.7303 32.368Z" fill="#F79433"></path>
<path d="M26.3863 26.2619C26.3028 26.1032 26.1774 25.969 26.023 25.8732C25.8685 25.7774 25.6906 25.7234 25.5076 25.7168C25.5151 25.3718 25.4384 25.0299 25.2837 24.7194C25.1055 24.3731 24.8423 24.0749 24.5175 23.8514C24.1927 23.6278 23.8162 23.4858 23.4215 23.4378C23.0269 23.3898 22.6261 23.4374 22.2548 23.5763C21.8835 23.7153 21.5532 23.9413 21.293 24.2343C21.0043 24.0819 20.6812 24.002 20.3528 24.0017C20.0244 24.0015 19.7011 24.081 19.4122 24.2331C19.1233 24.3851 18.8778 24.6049 18.6981 24.8725C18.5183 25.1402 18.4099 25.4472 18.3826 25.7659C17.9235 25.6967 17.4536 25.7632 17.0337 25.9567C16.7667 26.0774 16.5267 26.2482 16.3276 26.4594C16.1285 26.6706 15.974 26.9179 15.8732 27.1872C15.7723 27.4566 15.727 27.7426 15.7398 28.0291C15.7526 28.3155 15.8233 28.5966 15.9479 28.8564C15.9859 28.9363 16.0309 29.0129 16.0822 29.0854C15.7475 29.4001 15.5219 29.8086 15.4366 30.2541C15.3513 30.6995 15.4107 31.1598 15.6064 31.5709C15.7624 31.8905 15.9975 32.1675 16.2906 32.3768C16.5837 32.5861 16.9256 32.7212 17.2856 32.77C17.2131 33.2153 17.3058 33.6712 17.5472 34.0559C17.7885 34.4407 18.1628 34.7291 18.6027 34.8695C19.0427 35.0099 19.5196 34.9932 19.948 34.8222C20.3764 34.6512 20.7282 34.3372 20.9404 33.9364C21.2877 34.1248 21.6771 34.2274 22.0746 34.2354C22.472 34.2434 22.8655 34.1565 23.2205 33.9823C23.5755 33.8081 23.8813 33.5519 24.1112 33.236C24.3411 32.9202 24.4881 32.5543 24.5393 32.1704C24.8414 32.3525 25.195 32.4366 25.5493 32.4105C25.9036 32.3845 26.2402 32.2497 26.5108 32.0255C26.7815 31.8014 26.9721 31.4994 27.0553 31.163C27.1386 30.8267 27.1101 30.4733 26.974 30.1537C26.8876 29.9833 26.7722 29.8285 26.6326 29.6958C26.7936 29.5258 26.914 29.3232 26.9852 29.1026C27.0564 28.882 27.0767 28.6488 27.0446 28.4197C27.0125 28.1905 26.9289 27.9711 26.7996 27.7771C26.6703 27.5832 26.4986 27.4194 26.2968 27.2975C26.4052 27.1484 26.4706 26.9737 26.4864 26.7916C26.5021 26.6095 26.4676 26.4266 26.3863 26.2619Z" fill="#88C057"></path>
<path d="M20.6715 34.317C20.5959 34.4785 20.4895 34.6246 20.3581 34.7476C20.4498 34.8474 20.5119 34.9697 20.5375 35.1013C20.5632 35.2328 20.5514 35.3688 20.5036 35.4943C20.4548 35.6229 20.3714 35.7363 20.2621 35.8226C20.1528 35.909 20.0216 35.965 19.8824 35.9849C19.9132 36.1269 19.9132 36.2735 19.8824 36.4155C19.8744 36.4922 19.8555 36.5674 19.8264 36.639C19.742 36.8586 19.5918 37.0484 19.3954 37.184C19.2991 37.2523 19.1937 37.3073 19.082 37.3476C18.9704 37.3873 18.8535 37.4112 18.735 37.4184C18.7378 37.4602 18.7378 37.502 18.735 37.5438C18.7283 37.5933 18.719 37.6424 18.707 37.691C18.698 37.7374 18.6849 37.783 18.6678 37.8272C18.6525 37.8704 18.6338 37.9123 18.6118 37.9526C18.5954 37.9882 18.5767 38.0228 18.5559 38.0562C18.5112 38.1285 18.4566 38.1945 18.3935 38.2524C18.2287 38.4173 18.0193 38.5334 17.7895 38.5874C17.5598 38.6414 17.319 38.6311 17.095 38.5576C16.8955 38.4885 16.718 38.3696 16.5805 38.2127C16.443 38.0558 16.3502 37.8665 16.3114 37.6637C16.0735 37.8454 15.7928 37.9665 15.4948 38.0159C15.1967 38.0654 14.8907 38.0418 14.6044 37.9471C14.3382 37.856 14.0979 37.7048 13.9034 37.5059C13.7088 37.3069 13.5654 37.0659 13.4849 36.8025C13.1805 36.9059 12.8491 36.9059 12.5446 36.8025C12.1971 36.6845 11.9107 36.439 11.7465 36.1182C11.5823 35.7974 11.5534 35.4268 11.6659 35.0855L11.7331 34.9384C11.846 34.7198 12.0134 34.5324 12.22 34.3933C12.0624 34.181 11.9611 33.9341 11.9249 33.6746C11.8888 33.415 11.919 33.1508 12.0129 32.9053C12.1294 32.5846 12.3456 32.3072 12.6315 32.1118C12.9174 31.9164 13.2588 31.8127 13.6081 31.8152C13.6081 31.7497 13.6417 31.6898 13.6641 31.6244C13.7923 31.2792 14.0343 30.9851 14.3522 30.7879C14.6701 30.5907 15.0461 30.5015 15.4215 30.5342V30.5997C15.4182 30.9233 15.489 31.2435 15.6286 31.5372C15.785 31.8565 16.0202 32.1332 16.3132 32.3425C16.6062 32.5517 16.9479 32.687 17.3077 32.7363C17.3077 32.7963 17.3077 32.8617 17.2797 32.9162C17.2508 33.1775 17.2814 33.4417 17.3693 33.6902C17.3947 33.7574 17.4246 33.823 17.4588 33.8864C17.5559 34.0959 17.6993 34.282 17.8786 34.4315C18.1648 34.6943 18.5262 34.8663 18.915 34.9247C19.3038 34.9831 19.7016 34.9251 20.0559 34.7585C20.1179 34.73 20.1777 34.6972 20.235 34.6604C20.2931 34.6254 20.3492 34.5872 20.4029 34.5459C20.4928 34.4801 20.5754 34.4052 20.6491 34.3224L20.6715 34.317Z" fill="#659C35"></path>
<path d="M18.6399 37.8992C18.6581 37.8528 18.6731 37.8053 18.6847 37.757C18.6757 37.8036 18.6626 37.8493 18.6455 37.8937L18.6399 37.8992Z" fill="#436B1C"></path>
<path d="M23.1119 37.8283H23.0503C22.0876 37.7956 21.1585 37.752 20.2518 37.6975H19.972L18.707 37.6212C18.7098 37.5794 18.7098 37.5376 18.707 37.4958C18.8255 37.4846 18.9421 37.459 19.054 37.4195C19.1657 37.3793 19.2712 37.3242 19.3675 37.256C19.5639 37.1204 19.714 36.9305 19.7985 36.7109C19.8276 36.6393 19.8465 36.5641 19.8544 36.4875C19.8594 36.4531 19.8594 36.4182 19.8544 36.3839C19.8604 36.3167 19.8815 36.2516 19.916 36.1931C21.0654 36.5657 22.1448 37.118 23.1119 37.8283Z" fill="#436B1C"></path>
<path d="M28.636 33.4351C28.2658 33.6032 27.9587 33.8795 27.7572 34.2255C27.1975 35.1466 27.2311 36.5638 27.4774 37.9755L26.0054 37.9537L24.3262 37.8938C23.7658 36.6203 23.0397 35.4223 22.1658 34.329C22.1471 34.2974 22.1245 34.2682 22.0986 34.2418C22.3687 34.241 22.6369 34.1987 22.8934 34.1165C22.9815 34.0876 23.0675 34.053 23.1509 34.0129C23.2377 33.9728 23.3219 33.9273 23.4027 33.8766C23.4734 33.8343 23.5408 33.7869 23.6042 33.7349C23.6042 33.7349 23.6042 33.7349 23.6378 33.7349C23.7002 33.6933 23.7567 33.6438 23.8057 33.5878C23.8213 33.5801 23.8348 33.5689 23.8449 33.555C23.8852 33.5178 23.9226 33.4778 23.9568 33.4351L24.0184 33.3697C24.1919 33.6368 24.3934 33.9529 24.5781 34.3018C25.1768 35.3542 25.5982 36.4933 25.8263 37.6757C25.7373 36.5463 25.758 35.4111 25.8878 34.2854C25.9524 33.7393 26.0724 33.2006 26.246 32.6775C26.3196 32.7245 26.3824 32.7857 26.4307 32.8574C26.4461 32.8849 26.4649 32.9105 26.4867 32.9337C26.5717 33.0221 26.6773 33.0894 26.7945 33.1299C26.9266 33.1731 27.068 33.1817 27.2045 33.1549C27.341 33.1281 27.468 33.0669 27.5725 32.9773C27.6616 33.0687 27.7633 33.1476 27.8748 33.2117C27.9842 33.2862 28.1051 33.3432 28.233 33.3806L28.3785 33.4242C28.4194 33.4294 28.4608 33.4294 28.5016 33.4242C28.5451 33.4371 28.5909 33.4409 28.636 33.4351Z" fill="#436B1C"></path>
<path d="M18.9924 30.3221C18.9485 30.3429 18.9011 30.3559 18.8525 30.3602C18.3456 30.3956 17.845 30.2335 17.4608 29.9094C17.0766 29.5854 16.8404 29.126 16.804 28.6324C16.7676 28.1387 16.9341 27.6512 17.2669 27.277C17.5996 26.9029 18.0713 26.6728 18.5782 26.6374C18.6815 26.6328 18.7827 26.6669 18.8608 26.7329C18.939 26.7988 18.9881 26.8915 18.998 26.9917C19.0042 27.0926 18.9696 27.1919 18.9016 27.2683C18.8337 27.3447 18.7377 27.3921 18.6342 27.4005C18.3373 27.4215 18.0612 27.5564 17.8664 27.7757C17.6717 27.9949 17.5744 28.2806 17.596 28.5697C17.6175 28.8588 17.7561 29.1277 17.9812 29.3174C18.2064 29.507 18.4996 29.6017 18.7965 29.5808C18.8477 29.5771 18.8991 29.5833 18.9478 29.5992C18.9965 29.6151 19.0414 29.6403 19.08 29.6733C19.1185 29.7063 19.15 29.7464 19.1724 29.7913C19.1949 29.8363 19.2079 29.8852 19.2107 29.9351C19.2209 30.0137 19.2052 30.0935 19.166 30.163C19.1268 30.2325 19.0661 30.2882 18.9924 30.3221Z" fill="#659C35"></path>
<path d="M24.5389 31.1085C24.2331 31.2522 23.8934 31.3138 23.5549 31.287C23.2165 31.2601 22.8915 31.1459 22.6135 30.9559C22.5681 30.9282 22.5293 30.8914 22.4995 30.848C22.4697 30.8046 22.4497 30.7556 22.4407 30.7041C22.4317 30.6527 22.434 30.5999 22.4474 30.5494C22.4608 30.4989 22.485 30.4516 22.5184 30.4108C22.547 30.3669 22.5847 30.3292 22.6291 30.3001C22.6734 30.2711 22.7235 30.2513 22.7761 30.2421C22.8287 30.2329 22.8827 30.2344 22.9347 30.2466C22.9867 30.2587 23.0355 30.2813 23.0781 30.3127C23.1984 30.3985 23.3355 30.4592 23.4809 30.491C23.6263 30.5229 23.7768 30.5253 23.9232 30.4981C24.0702 30.474 24.2108 30.4216 24.3367 30.3439C24.4626 30.2662 24.5713 30.1648 24.6564 30.0457C24.7436 29.9275 24.8055 29.7935 24.8386 29.6516C24.8717 29.5098 24.8754 29.3629 24.8493 29.2197C24.8232 29.0764 24.7679 28.9397 24.6868 28.8176C24.6056 28.6954 24.5001 28.5904 24.3766 28.5086C24.3287 28.4825 24.287 28.447 24.2542 28.4042C24.2213 28.3615 24.198 28.3125 24.1858 28.2605C24.1736 28.2084 24.1727 28.1545 24.1833 28.1021C24.1938 28.0497 24.2156 28.0001 24.2471 27.9564C24.2785 27.9127 24.3191 27.8759 24.3661 27.8484C24.4131 27.8209 24.4655 27.8033 24.5199 27.7968C24.5743 27.7903 24.6295 27.795 24.682 27.8106C24.7344 27.8261 24.7829 27.8522 24.8244 27.8872C25.0306 28.0271 25.2065 28.2053 25.3418 28.4116C25.4772 28.6179 25.5693 28.8482 25.613 29.0893C25.6567 29.3304 25.651 29.5775 25.5964 29.8165C25.5417 30.0554 25.4391 30.2815 25.2945 30.4817C25.1046 30.7526 24.8437 30.969 24.5389 31.1085Z" fill="#659C35"></path>
<path d="M22.3954 29.8328C22.1342 29.9513 21.8496 30.0127 21.5614 30.0127C21.0557 30.007 20.5725 29.8077 20.2164 29.4578C19.8603 29.108 19.6599 28.6357 19.6584 28.1431C19.6614 28.0424 19.7045 27.9468 19.7787 27.8765C19.8529 27.8063 19.9524 27.767 20.0558 27.7671C20.1588 27.7685 20.257 27.8093 20.3293 27.8807C20.4015 27.9521 20.442 28.0483 20.442 28.1486C20.442 28.4377 20.56 28.715 20.7699 28.9194C20.9798 29.1239 21.2646 29.2387 21.5614 29.2387C21.8583 29.2387 22.143 29.1239 22.353 28.9194C22.5629 28.715 22.6808 28.4377 22.6808 28.1486C22.6742 28.095 22.6794 28.0407 22.6959 27.9892C22.7124 27.9377 22.74 27.8902 22.7767 27.8499C22.8135 27.8095 22.8586 27.7772 22.9092 27.7551C22.9597 27.733 23.0144 27.7215 23.0698 27.7215C23.1252 27.7215 23.18 27.733 23.2305 27.7551C23.281 27.7772 23.3262 27.8095 23.3629 27.8499C23.3997 27.8902 23.4272 27.9377 23.4438 27.9892C23.4603 28.0407 23.4654 28.095 23.4588 28.1486C23.4596 28.4978 23.3606 28.8403 23.1728 29.1378C22.9849 29.4353 22.7158 29.676 22.3954 29.8328Z" fill="#659C35"></path>
<path d="M20.6543 32.9979C20.4157 33.1073 20.1567 33.1685 19.8931 33.1778C19.3863 33.1925 18.8943 33.0108 18.5249 32.6725C18.1555 32.3343 17.9391 31.8671 17.923 31.3736C17.9207 31.3238 17.9287 31.274 17.9464 31.2272C17.9641 31.1804 17.9912 31.1374 18.0261 31.1009C18.061 31.0644 18.103 31.035 18.1497 31.0144C18.1964 30.9939 18.2468 30.9826 18.298 30.9812C18.3494 30.9797 18.4007 30.9882 18.4488 31.006C18.4969 31.0238 18.5409 31.0508 18.5783 31.0852C18.6158 31.1196 18.6459 31.1609 18.6669 31.2066C18.6879 31.2524 18.6995 31.3017 18.701 31.3518C18.7008 31.4992 18.7313 31.6451 18.7907 31.7806C18.8501 31.9162 18.9371 32.0386 19.0464 32.1405C19.1558 32.2424 19.2852 32.3217 19.4269 32.3735C19.5686 32.4253 19.7196 32.4486 19.8707 32.4419C20.0195 32.4378 20.1659 32.4048 20.3014 32.3449C20.4369 32.285 20.5588 32.1994 20.6599 32.0931C20.7627 31.988 20.8428 31.8639 20.8957 31.7282C20.9486 31.5925 20.9731 31.4478 20.9678 31.3028C20.9655 31.2532 20.9735 31.2037 20.9913 31.1572C21.009 31.1107 21.0362 31.0681 21.0712 31.032C21.1062 30.9959 21.1482 30.967 21.1949 30.9471C21.2415 30.9271 21.2918 30.9164 21.3428 30.9158C21.3939 30.9136 21.4451 30.9213 21.4931 30.9386C21.5412 30.9558 21.5853 30.9822 21.6228 31.0162C21.6603 31.0502 21.6905 31.0911 21.7116 31.1365C21.7327 31.182 21.7443 31.2311 21.7457 31.281C21.7586 31.6437 21.6621 32.0022 21.4681 32.3122C21.2742 32.6221 20.9913 32.87 20.6543 33.0252V32.9979Z" fill="#659C35"></path>
<path d="M22.7481 27.4347L22.5746 27.5056C22.0987 27.6746 21.5734 27.6531 21.1137 27.4456C21.0671 27.4245 21.0251 27.3946 20.9903 27.3577C20.9555 27.3208 20.9285 27.2776 20.9108 27.2305C20.8931 27.1835 20.8851 27.1335 20.8873 27.0834C20.8895 27.0333 20.9018 26.9842 20.9234 26.9387C20.9451 26.8933 20.9758 26.8524 21.0137 26.8185C21.0516 26.7846 21.096 26.7583 21.1443 26.7411C21.1926 26.7239 21.244 26.7161 21.2954 26.7182C21.3468 26.7203 21.3973 26.7323 21.444 26.7534C21.5779 26.815 21.7231 26.85 21.871 26.8566C22.019 26.8631 22.1668 26.841 22.3059 26.7915C22.5859 26.6997 22.8173 26.5038 22.9496 26.2465C23.0139 26.1148 23.0505 25.9718 23.0571 25.8261C23.0637 25.6804 23.0403 25.5348 22.9881 25.3981C22.9359 25.2614 22.856 25.1363 22.7533 25.0301C22.6505 24.924 22.527 24.839 22.3899 24.7803C22.2956 24.7376 22.2226 24.6602 22.1869 24.5652C22.1512 24.4701 22.1558 24.3651 22.1996 24.2733C22.2434 24.1815 22.3228 24.1104 22.4204 24.0757C22.518 24.0409 22.6258 24.0454 22.7201 24.088C23.0474 24.2392 23.3239 24.4777 23.5175 24.7759C23.7111 25.074 23.8139 25.4195 23.8139 25.7723C23.8139 26.125 23.7111 26.4706 23.5175 26.7687C23.3239 27.0668 23.0474 27.3053 22.7201 27.4565L22.7481 27.4347Z" fill="#659C35"></path>
<path d="M15.7742 35.7728C15.5537 35.8777 15.314 35.9388 15.069 35.9527C14.5615 35.981 14.0632 35.8121 13.6833 35.4831C13.3035 35.1541 13.0732 34.6918 13.0429 34.1976C13.0369 34.0964 13.0725 33.9971 13.1418 33.9214C13.2111 33.8458 13.3084 33.8 13.4123 33.7943C13.5162 33.7885 13.6182 33.8231 13.6959 33.8906C13.7735 33.9581 13.8205 34.0528 13.8265 34.154C13.8443 34.4431 13.9793 34.7135 14.2018 34.9057C14.4243 35.0979 14.7161 35.1961 15.013 35.1787C15.3099 35.1614 15.5876 35.0299 15.7849 34.8132C15.9822 34.5965 16.0831 34.3123 16.0653 34.0232C16.0699 33.929 16.1101 33.8398 16.1782 33.7728C16.2463 33.7058 16.3375 33.6658 16.4341 33.6604C16.5308 33.6549 16.626 33.6846 16.7016 33.7435C16.7771 33.8024 16.8276 33.8865 16.8433 33.9796C16.8667 34.3479 16.7777 34.7147 16.5874 35.0338C16.3972 35.3529 16.1142 35.61 15.7742 35.7728Z" fill="#88C057"></path>
<path d="M30.9593 26.5072L30.7634 26.4527C30.7685 26.1152 30.6626 25.785 30.4612 25.5104C30.2598 25.2358 29.9734 25.0312 29.644 24.9265C29.3871 24.8391 29.1124 24.8137 28.8433 24.8527C28.5742 24.8916 28.3188 24.9936 28.0992 25.15C27.9301 24.8972 27.6803 24.7056 27.3884 24.6049C27.0245 24.4836 26.6263 24.5058 26.279 24.6667C25.9318 24.8277 25.663 25.1146 25.5301 25.4661C25.5145 25.5145 25.5014 25.5636 25.491 25.6133V25.7059C25.6741 25.7119 25.8523 25.7657 26.0068 25.8615C26.1614 25.9574 26.2867 26.0919 26.3697 26.251C26.4496 26.4172 26.4814 26.6015 26.4616 26.784C26.4419 26.9665 26.3714 27.1402 26.2578 27.2866C26.4596 27.4085 26.6313 27.5722 26.7606 27.7662C26.8899 27.9602 26.9735 28.1796 27.0056 28.4087C27.0377 28.6379 27.0174 28.8711 26.9462 29.0917C26.8749 29.3123 26.7545 29.5149 26.5936 29.6849C26.7332 29.8176 26.8486 29.9724 26.935 30.1428C27.1179 30.5281 27.1364 30.9683 26.9863 31.3668C26.8362 31.7654 26.5299 32.0897 26.1346 32.2685C25.9497 32.3584 25.7477 32.4103 25.5413 32.4211L25.6589 32.5029C25.8788 32.576 26.1155 32.5874 26.3417 32.5356C26.3605 32.6705 26.4176 32.7976 26.5066 32.9026C26.5956 33.0076 26.713 33.0862 26.8454 33.1297C26.9766 33.1724 27.117 33.1808 27.2526 33.154C27.3882 33.1272 27.5141 33.0662 27.6178 32.9771C27.8051 33.1608 28.0329 33.3006 28.2839 33.3859C28.5651 33.4821 28.8664 33.5088 29.1608 33.4638C29.4553 33.4187 29.7336 33.3033 29.971 33.1277C30.2084 32.9522 30.3973 32.7221 30.5209 32.458C30.6446 32.1939 30.699 31.9041 30.6794 31.6144C30.8989 31.5511 31.1002 31.4388 31.2673 31.2865C31.4344 31.1342 31.5627 30.946 31.6421 30.7369C31.7327 30.5026 31.7555 30.2486 31.7082 30.0026C31.6608 29.7566 31.545 29.5279 31.3734 29.3415C31.6537 29.1471 31.8681 28.8757 31.9891 28.5621C32.0637 28.3615 32.0961 28.1484 32.0844 27.9354C32.0727 27.7224 32.0172 27.5139 31.9211 27.3222C31.8251 27.1305 31.6904 26.9596 31.5252 26.8196C31.3599 26.6796 31.1675 26.5733 30.9593 26.5072Z" fill="#659C35"></path>
<path d="M29.7776 29.7227C29.441 29.8773 29.0656 29.9333 28.6969 29.884C28.3283 29.8346 27.9823 29.682 27.7011 29.4447C27.6486 29.3747 27.6225 29.2892 27.6273 29.2026C27.632 29.1161 27.6674 29.0338 27.7273 28.9697C27.7872 28.9056 27.868 28.8636 27.956 28.8508C28.044 28.838 28.1339 28.8553 28.2104 28.8996C28.4388 29.089 28.7337 29.1848 29.0332 29.1667C29.1828 29.1585 29.3292 29.1211 29.4637 29.0567C29.5982 28.9924 29.7181 28.9024 29.8163 28.7921C29.9144 28.6818 29.9888 28.5534 30.035 28.4146C30.0812 28.2758 30.0984 28.1293 30.0854 27.9839C30.0747 27.8395 30.0345 27.6986 29.9672 27.5694C29.9 27.4403 29.8069 27.3255 29.6936 27.2317C29.6547 27.1988 29.6227 27.1587 29.5997 27.1138C29.5766 27.0688 29.5629 27.0199 29.5593 26.9698C29.5556 26.9197 29.5622 26.8694 29.5785 26.8217C29.5948 26.7741 29.6206 26.73 29.6544 26.6921C29.6882 26.6542 29.7294 26.6231 29.7755 26.6006C29.8217 26.5782 29.8719 26.5648 29.9234 26.5613C29.9748 26.5577 30.0265 26.5641 30.0754 26.58C30.1243 26.5959 30.1696 26.621 30.2085 26.6539C30.4485 26.8574 30.6327 27.1157 30.7447 27.4056C30.8567 27.6956 30.893 28.0081 30.8503 28.3151C30.8075 28.6221 30.6871 28.9139 30.4999 29.1644C30.3127 29.4148 30.0644 29.616 29.7776 29.7499V29.7227Z" fill="#88C057"></path>
<path d="M15.7517 39.4254C15.7517 39.4254 18.6118 40.8153 19.7592 40.9788C20.9066 41.1423 24.4999 41.5729 26.5708 41.4039C26.5708 41.4039 15.7517 39.627 15.7517 39.4254Z" fill="white"></path>
<path d="M42.1082 30.4871C42.473 30.7604 42.7576 31.1223 42.9334 31.5366C43.1093 31.9508 43.1702 32.4028 43.11 32.8472L44.2686 32.809C44.2686 32.809 44.5876 30.9831 43.2555 30.3508L42.1082 30.4871Z" fill="white"></path>
<path d="M43.0542 33.4069L44.1064 33.3742L42.8247 34.1101L43.0542 33.4069Z" fill="white"></path>
</svg>