<svg width="64" height="64" viewBox="0 0 64 64" fill="none" xmlns="http://www.w3.org/2000/svg">
<rect width="64" height="64" rx="32" fill="white"></rect>
<g clip-path="url(#clip0)">
<path d="M51.3252 21.4743L36.8167 18.0459C36.8167 18.0459 34.0713 17.3246 30.3519 18.0459C26.6324 18.7672 15.2969 20.9536 15.2969 20.9536C15.2969 20.9536 14.0076 21.2532 14.0076 22.6475C14.0076 24.0417 41.8645 28.054 41.8645 28.054L51.3252 21.4743Z" fill="#FCCB81"></path>
<path d="M30.3521 24.898L50.5214 21.3817C50.5214 21.3817 52.4697 21.2013 52.4697 23.1398C52.4697 25.0783 52.4697 43.7421 52.4697 43.7421C52.4697 43.7421 52.4697 45.6356 50.6985 46.1765C48.9274 46.7175 30.3521 50.9552 30.3521 50.9552V24.898H30.3521Z" fill="#FBB64F"></path>
<path d="M16.2645 21.3773C16.2645 21.3773 13.968 20.931 13.968 23.0949V43.5619C13.968 43.5619 13.7848 44.9659 15.1162 45.6163C16.4476 46.2668 30.3514 50.9553 30.3514 50.9553V24.8981L16.2645 21.3773Z" fill="#F28510"></path>
<path d="M21.3938 19.7771L38.4105 23.5458V32.5988L41.8643 28.054L44.9639 30.6709V22.4604L27.4867 18.6003L21.3938 19.7771Z" fill="#FDE7C3"></path>
<path d="M49.2686 40.1965L42.5188 41.9685C42.0858 42.0463 41.7314 41.7491 41.7314 41.3082C41.7314 40.8673 42.0858 40.4429 42.5188 40.3652L49.2686 38.5931C49.7017 38.5154 50.056 38.8125 50.056 39.2535C50.056 39.6944 49.7017 40.1187 49.2686 40.1965Z" fill="#FEF3E0"></path>
<path d="M49.1165 43.7661L39.3404 46.3119C38.9073 46.3897 38.553 46.0925 38.553 45.6516C38.553 45.2107 38.9073 44.7863 39.3404 44.7086L49.1165 42.1628C49.5496 42.085 49.9039 42.3822 49.9039 42.8231C49.9039 43.264 49.5496 43.6884 49.1165 43.7661Z" fill="#FEF3E0"></path>
<path d="M10.9721 30.8515C11.0024 31.1911 12.1545 31.6849 12.3971 31.8085C13.4582 32.4258 15.2167 32.7962 16.3992 32.2714C16.9449 32.0245 17.43 31.5615 17.9151 31.1911C18.4608 30.7589 19.0369 30.3267 19.5523 29.8638C20.3406 29.2154 21.1592 28.5056 21.7656 27.6721C22.8571 26.0978 23.6151 27.9807 23.0996 28.8759C22.5842 29.7711 20.4922 31.1602 21.0683 32.2406C21.6444 33.3209 22.9177 34.8027 28.9209 35.7904C28.9209 35.7904 29.7698 36.0374 29.4666 36.7782C29.2544 37.3338 27.314 36.9325 26.9198 36.8708C25.889 36.7473 24.8581 36.4695 23.8273 36.3461C23.615 36.3151 23.4331 36.2843 23.2816 36.4695C23.1603 36.593 23.1299 36.7782 23.2209 36.9017C23.2816 36.9943 23.3725 37.0251 23.4635 37.0869C24.1911 37.4264 24.9491 37.7351 25.7071 38.0746C26.3135 38.3525 26.9198 38.5994 27.5262 38.9081C27.9507 39.0933 29.2544 39.4328 28.9209 40.1428C28.4358 41.2541 27.1321 40.2046 26.465 39.9267C25.8586 39.6798 25.2826 39.402 24.6763 39.1551C24.1305 38.939 23.615 38.692 23.0693 38.4759C22.9481 38.4451 22.4327 38.1672 22.3113 38.2598C22.1295 38.4142 22.1598 38.6611 22.463 38.9081C23.0996 39.4946 23.9182 39.9267 24.6156 40.4206C25.131 40.7602 25.6161 41.1306 26.1315 41.501C26.4347 41.7172 26.8896 41.9641 27.1321 42.3036C27.314 42.5506 27.223 42.8593 27.0411 43.1062C26.7682 43.4457 26.4347 43.2296 26.1013 43.0753C25.6768 42.8593 25.2522 42.5814 24.8581 42.3036C23.8577 41.6554 22.8571 40.9454 21.8566 40.328C21.7656 40.2662 21.2199 39.8651 21.1289 39.9576C20.9773 40.112 20.7651 40.112 20.947 40.6059C21.2199 41.3467 21.8869 42.0875 22.372 42.7357C22.6752 43.168 22.9784 43.6001 23.2816 44.0322C23.5241 44.3717 23.8273 44.6496 23.5545 45.0509C23.4938 45.1435 23.3725 45.2361 23.2513 45.267C22.8571 45.2978 22.3113 44.557 22.0688 44.2791C21.6747 43.847 21.2502 43.4457 20.856 43.0136C19.9465 42.0567 19.0066 41.0688 18.0667 40.1428C17.5816 39.6798 17.0055 38.939 16.3688 38.723C15.4289 38.3833 12.3061 37.6762 10.972 37.8614C10.8811 37.7378 10.9721 30.8515 10.9721 30.8515Z" fill="#FFE7B6"></path>
<path d="M44.9643 22.4606V30.671L41.8647 28.0541L38.4109 32.5989V23.5459L44.9643 22.4606Z" fill="#FDE1B4"></path>
</g>
<rect y="2" width="44" height="14" rx="7" fill="#DC3733"></rect>
<path d="M10.6151 8.64127C10.6151 9.7547 10.3106 10.5944 9.7016 11.1603C9.09875 11.7201 8.25599 12 7.17332 12H5.33709V5.41173H7.36709C8.02531 5.41173 8.5974 5.53476 9.08337 5.78082C9.57549 6.02688 9.95381 6.38982 10.2183 6.86964C10.4828 7.34945 10.6151 7.94 10.6151 8.64127ZM9.7385 8.66895C9.7385 7.78929 9.52012 7.14645 9.08337 6.74045C8.65276 6.3283 8.04069 6.12223 7.24714 6.12223H6.16755V11.2895H7.06259C8.84653 11.2895 9.7385 10.416 9.7385 8.66895ZM13.8766 6.96191C14.295 6.96191 14.6579 7.05418 14.9655 7.23873C15.273 7.42327 15.5068 7.68471 15.6667 8.02305C15.8328 8.35523 15.9159 8.74585 15.9159 9.19491V9.68395H12.5295C12.5418 10.2437 12.6833 10.6713 12.9539 10.9665C13.2307 11.2557 13.6152 11.4002 14.1073 11.4002C14.4211 11.4002 14.6979 11.3725 14.9378 11.3172C15.1838 11.2557 15.4361 11.1695 15.6944 11.0588V11.7693C15.4422 11.88 15.1931 11.96 14.947 12.0092C14.701 12.0646 14.4088 12.0923 14.0704 12.0923C13.5968 12.0923 13.1815 11.9969 12.8247 11.8062C12.468 11.6155 12.1881 11.3326 11.9851 10.9573C11.7882 10.5821 11.6898 10.1176 11.6898 9.564C11.6898 9.02267 11.779 8.55823 11.9574 8.17068C12.1419 7.78314 12.3972 7.48479 12.7232 7.27564C13.0554 7.06648 13.4399 6.96191 13.8766 6.96191ZM13.8674 7.62627C13.4799 7.62627 13.1723 7.75238 12.9447 8.00459C12.7232 8.25065 12.591 8.59514 12.5479 9.03805H15.067C15.0608 8.61974 14.9624 8.28141 14.7717 8.02305C14.581 7.75853 14.2796 7.62627 13.8674 7.62627ZM17.987 12H17.175V4.98727H17.987V12ZM19.9691 5.1995C20.0921 5.1995 20.1998 5.24256 20.2921 5.32868C20.3905 5.40865 20.4397 5.53783 20.4397 5.71623C20.4397 5.89462 20.3905 6.02688 20.2921 6.113C20.1998 6.19297 20.0921 6.23295 19.9691 6.23295C19.8338 6.23295 19.72 6.19297 19.6277 6.113C19.5354 6.02688 19.4893 5.89462 19.4893 5.71623C19.4893 5.53783 19.5354 5.40865 19.6277 5.32868C19.72 5.24256 19.8338 5.1995 19.9691 5.1995ZM20.3659 7.05418V12H19.5539V7.05418H20.3659ZM23.0216 12L21.1485 7.05418H22.0158L23.0677 9.97C23.1169 10.1053 23.1692 10.256 23.2246 10.4221C23.28 10.5882 23.3292 10.7482 23.3722 10.902C23.4153 11.0557 23.446 11.1818 23.4645 11.2803H23.5014C23.5199 11.1818 23.5537 11.0557 23.6029 10.902C23.6521 10.742 23.7044 10.5821 23.7598 10.4221C23.8151 10.256 23.8674 10.1053 23.9166 9.97L24.9685 7.05418H25.8359L23.9535 12H23.0216ZM28.5285 6.96191C28.9469 6.96191 29.3098 7.05418 29.6174 7.23873C29.9249 7.42327 30.1587 7.68471 30.3186 8.02305C30.4847 8.35523 30.5678 8.74585 30.5678 9.19491V9.68395H27.1814C27.1937 10.2437 27.3352 10.6713 27.6058 10.9665C27.8826 11.2557 28.2671 11.4002 28.7592 11.4002C29.073 11.4002 29.3498 11.3725 29.5897 11.3172C29.8357 11.2557 30.088 11.1695 30.3463 11.0588V11.7693C30.0941 11.88 29.845 11.96 29.5989 12.0092C29.3529 12.0646 29.0607 12.0923 28.7223 12.0923C28.2487 12.0923 27.8334 11.9969 27.4766 11.8062C27.1199 11.6155 26.84 11.3326 26.637 10.9573C26.4401 10.5821 26.3417 10.1176 26.3417 9.564C26.3417 9.02267 26.4309 8.55823 26.6093 8.17068C26.7938 7.78314 27.0491 7.48479 27.3751 7.27564C27.7073 7.06648 28.0918 6.96191 28.5285 6.96191ZM28.5193 7.62627C28.1318 7.62627 27.8242 7.75238 27.5966 8.00459C27.3751 8.25065 27.2429 8.59514 27.1998 9.03805H29.7189C29.7127 8.61974 29.6143 8.28141 29.4236 8.02305C29.2329 7.75853 28.9315 7.62627 28.5193 7.62627ZM34.1337 6.96191C34.226 6.96191 34.3244 6.96806 34.429 6.98036C34.5335 6.98651 34.6289 6.99882 34.715 7.01727L34.6135 7.76468C34.5335 7.74623 34.4443 7.73085 34.3459 7.71855C34.2475 7.70624 34.1583 7.70009 34.0783 7.70009C33.8261 7.70009 33.5893 7.77083 33.3678 7.91232C33.1464 8.04765 32.968 8.24142 32.8326 8.49364C32.7035 8.7397 32.6389 9.02882 32.6389 9.361V12H31.8269V7.05418H32.4912L32.5835 7.95845H32.6204C32.7742 7.68779 32.9772 7.45403 33.2294 7.25718C33.4878 7.06033 33.7892 6.96191 34.1337 6.96191ZM34.8634 7.05418H35.7308L36.8012 9.8685C36.8934 10.1207 36.9765 10.3575 37.0503 10.579C37.1241 10.8005 37.1795 11.0127 37.2164 11.2157H37.2533C37.2902 11.0619 37.3486 10.862 37.4286 10.6159C37.5086 10.3637 37.5916 10.1115 37.6777 9.85927L38.6835 7.05418H39.5601L37.4286 12.6828C37.2502 13.1503 37.0257 13.5225 36.755 13.7993C36.4844 14.0761 36.1091 14.2145 35.6293 14.2145C35.4817 14.2145 35.3525 14.2053 35.2417 14.1869C35.131 14.1746 35.0357 14.1592 34.9557 14.1407V13.4948C35.0234 13.5071 35.1033 13.5194 35.1956 13.5317C35.294 13.544 35.3955 13.5502 35.5001 13.5502C35.7831 13.5502 36.0107 13.4702 36.1829 13.3103C36.3552 13.1503 36.4936 12.9381 36.5982 12.6736L36.8565 12.0185L34.8634 7.05418Z" fill="white"></path>
<defs>
<clipPath id="clip0">
<rect width="41.5377" height="33.2301" fill="white" transform="translate(10.9319 17.7254)"></rect>
</clipPath>
</defs>
</svg>