<?xml version="1.0" encoding="UTF-8"?>
<svg width="11px" height="14px" viewBox="0 0 11 14" version="1.1" xmlns="http://www.w3.org/2000/svg" xmlns:xlink="http://www.w3.org/1999/xlink">
    <!-- Generator: Sketch 49.3 (51167) - http://www.bohemiancoding.com/sketch -->
    <title>Combined Shape</title>
    <desc>Created with Sketch.</desc>
    <defs></defs>
    <g id="Page-1" stroke="none" stroke-width="1" fill="none" fill-rule="evenodd">
        <g id="PLAN-YOUR-TRIP--1.1" transform="translate(-391.000000, -855.000000)" fill="#FDB940">
            <g id="Group-6" transform="translate(375.000000, 281.000000)">
                <g id="Group-24" transform="translate(0.000000, 562.000000)">
                    <path d="M25.6157439,25.497262 C26.3690184,25.497262 26.9847091,24.8842515 26.9847091,24.1282968 L26.9847091,18.4901804 C26.9847091,17.7370433 26.3716986,17.1212152 25.6157439,17.1212152 L17.3689652,17.1212152 C16.6158282,17.1212152 16,17.7342257 16,18.4901804 L16,24.1282968 C16,24.8814338 16.6130105,25.497262 17.3689652,25.497262 L25.6157439,25.497262 Z M17.3991691,19.0262554 C17.2562249,18.905337 17.239697,18.6936697 17.3607872,18.5507255 C17.4817056,18.407747 17.6933729,18.3912534 17.8363171,18.5122062 L21.4923545,21.6185615 L25.1511753,18.5150238 C25.2941195,18.3939336 25.5058212,18.4132792 25.6267396,18.5534057 C25.7476923,18.6963499 25.7284842,18.9080172 25.5882202,19.0289699 L22.9767403,21.2446045 L25.5992159,23.7131402 C25.733982,23.8395908 25.7421945,24.0540758 25.6130636,24.1887044 C25.5470207,24.2602452 25.4562718,24.2959469 25.3683749,24.2959469 C25.285804,24.2959469 25.2034049,24.2657431 25.1374994,24.205198 L22.4572964,21.684467 L21.7095197,22.319469 C21.6462944,22.3716986 21.5692558,22.3992222 21.4923545,22.3992222 C21.4154533,22.3992222 21.3383803,22.3716986 21.2751894,22.319469 L20.5275502,21.684467 L17.8473471,24.205198 C17.7813042,24.2657431 17.6988708,24.2959469 17.6163342,24.2959469 C17.5255853,24.2959469 17.4376884,24.2602452 17.3717829,24.1887044 C17.2451948,24.0540758 17.2506927,23.8395908 17.3854588,23.7131402 L20.0079688,21.2446045 L17.3991691,19.0262554 Z M21.4923545,12 C21.7864209,12 22.0229317,12.2363733 22.0229317,12.5305771 L22.0229317,15.7687778 C22.0229317,16.0628442 21.7864209,16.2993549 21.4923545,16.2993549 C21.1982538,16.2993549 20.9617431,16.0628442 20.9617431,15.7687778 L20.9617431,12.5332917 C20.9617431,12.2391909 21.1982538,12 21.4923545,12 Z M19.3564389,13.7099008 C19.6505053,13.7099008 19.887016,13.9462741 19.887016,14.2403405 L19.887016,15.7687778 C19.887016,16.0628442 19.6505053,16.2993549 19.3564389,16.2993549 C19.0623381,16.2993549 18.8258274,16.0628442 18.8258274,15.7687778 L18.8258274,14.2403405 C18.8258274,13.9489543 19.0623381,13.7099008 19.3564389,13.7099008 Z M23.6282702,13.7099008 C23.9223709,13.7099008 24.1588473,13.9489543 24.1588473,14.2403405 L24.1588473,15.7687778 C24.1588473,16.0628442 23.9223709,16.2993549 23.6282702,16.2993549 C23.3341695,16.2993549 23.0976931,16.0628442 23.0976931,15.7687778 L23.0976931,14.2403405 C23.0976931,13.9462741 23.3341695,13.7099008 23.6282702,13.7099008 Z" id="Combined-Shape"></path>
                </g>
            </g>
        </g>
    </g>
</svg>