<?xml version="1.0" encoding="UTF-8"?>
<svg width="72px" height="28px" viewBox="0 0 72 28" version="1.1" xmlns="http://www.w3.org/2000/svg" xmlns:xlink="http://www.w3.org/1999/xlink">
    <!-- Generator: Sketch 49.3 (51167) - http://www.bohemiancoding.com/sketch -->
    <title>car copy</title>
    <desc>Created with Sketch.</desc>
    <defs></defs>
    <g id="Page-1" stroke="none" stroke-width="1" fill="none" fill-rule="evenodd">
        <g id="booking-detail" transform="translate(-684.000000, -139.000000)">
            <g id="Group-30">
                <g id="Group-29" transform="translate(520.000000, 89.000000)">
                    <g id="car-copy" transform="translate(165.000000, 50.000000)">
                        <path d="M51.6408539,23.59602 C47.9367266,23.59602 43.2974481,23.55372 40,23.51682 L40.0006029,23.06682 C43.4276819,23.10552 48.300899,23.14422 52.0728564,23.14602 L52.0728564,23.59602 L51.6408539,23.59602 Z" id="Fill-1" stroke="#979797" stroke-width="0.3" fill="#979797"></path>
                        <path d="M24.6643494,23.59602 C21.7863736,23.59602 18.1818184,23.55372 15.6198179,23.51682 L15.6202864,23.06682 C18.2830055,23.10552 22.0693226,23.14422 25,23.14602 L25,23.59602 L24.6643494,23.59602 Z" id="Fill-1" stroke="#979797" stroke-width="0.3" fill="#979797"></path>
                        <path d="M62.3307179,23.57226 L62.3279872,23.12226 C67.1632692,23.09436 68.3748205,23.05026 68.5386667,23.01786 C69.824859,22.76316 70.1052179,19.83726 70.0269359,19.29546 C69.9768718,18.94986 69.4125128,18.52506 69.2186282,18.40266 L69.1139487,18.33606 L69.1139487,17.53776 C69.1121282,17.53776 68.8863846,15.62976 68.5231923,14.69376 C67.4563718,11.95056 63.7598205,11.01006 61.5524487,10.44846 L61.091859,10.33056 C59.1539231,9.82656 56.5824487,9.39096 54.7036795,9.07416 C53.5230769,8.87436 52.6701667,8.73036 52.3925385,8.63856 C51.7162179,8.41536 44.9475513,6.07986 44.8801923,6.05646 C44.7664103,6.00336 35.8195,1.78146 28.218859,1.45026 C21.4310769,1.15146 20.4816795,1.46016 15.1994615,3.15666 C14.4921923,3.38436 13.7084615,3.63636 12.8236923,3.91446 C6.46737179,5.91426 2.32661538,6.06726 1.21155128,6.06726 L1.13782051,6.06726 C1.16148718,7.18956 2.36575641,8.52246 2.37941026,8.53686 L2.44403846,8.60796 L2.12635897,13.00716 L2.0444359,13.06836 C0.936653846,13.88916 0.0300384615,17.25516 0.681782051,19.19196 C1.25615385,20.89476 2.11088462,22.56426 2.34846154,23.01426 L5.37324359,23.02686 L5.37142308,23.47686 L2.07447436,23.46246 L2.00984615,23.34456 C1.99983333,23.32566 0.931192308,21.35376 0.250320513,19.33416 C-0.468782051,17.20116 0.471512821,13.79556 1.68761538,12.77406 L1.97616667,8.76546 C1.68579487,8.42796 0.550705128,7.02486 0.695435897,5.81166 L0.720012821,5.60196 L0.933012821,5.61276 C0.975794872,5.61996 5.31225641,5.80536 12.6853333,3.48606 C13.5701026,3.20796 14.3520128,2.95596 15.0583718,2.72916 C20.4079487,1.01016 21.374641,0.70236 28.2388846,1.00026 C35.9341923,1.33596 44.9639359,5.59746 45.0540513,5.64066 C45.0977436,5.65506 51.8627692,7.99056 52.536359,8.21196 C52.7812179,8.29206 53.6632564,8.44146 54.780141,8.62956 C56.6661923,8.94906 59.2495,9.38556 61.2074615,9.89496 L61.6662308,10.01286 C63.9582564,10.59606 67.7968077,11.57256 68.9482821,14.53176 C69.3324103,15.52356 69.5581538,17.43156 69.5672564,17.51256 L69.5690769,18.09306 C69.8203077,18.26766 70.4046923,18.72576 70.4766026,19.23156 C70.5585256,19.78776 70.3637308,23.11506 68.6278718,23.45886 C68.4549231,23.49306 67.6129359,23.54166 62.3307179,23.57226" id="Fill-3" stroke="#979797" stroke-width="0.3" fill="#979797"></path>
                        <polygon id="Fill-6" stroke="#979797" stroke-width="0.3" fill="#979797" points="2.09022179 13.02192 1.72429872 12.75462 4.98574744 8.38422 0.808580769 6.03432 1.03432436 5.64372 5.65569615 8.24292"></polygon>
                        <path d="M51.5018526,10.11888 L9.11849359,9.58608 L7.87053205,6.95178 L7.92969872,6.85098 C7.98522436,6.75378 8.39575,6.20478 10.912609,5.03478 C13.4640577,3.84678 18.0280833,1.81188 18.0735962,1.79118 L18.2601987,2.20068 C18.2155962,2.22228 13.6543013,4.25538 11.1064936,5.44248 C9.22590385,6.31638 8.58963462,6.81498 8.39666026,7.00038 L9.4106859,9.13968 L50.3831474,9.65448 C49.7113782,9.10368 48.1357244,7.93908 44.8396859,6.03738 L45.0690705,5.64858 C49.9871859,8.48628 51.1077115,9.68778 51.1532244,9.73728 L51.5018526,10.11888 Z" id="Fill-8" stroke="#979797" stroke-width="0.3" fill="#979797"></path>
                        <polygon id="Fill-12" stroke="#979797" stroke-width="0.3" fill="#979797" points="45.3380513 9.8262 45.2379231 5.9238 45.6930513 5.9112 45.7931795 9.8136"></polygon>
                        <path d="M67.6882141,14.91507 C62.7309577,14.91507 59.3393423,9.90387 59.3029321,9.84987 L59.6834192,9.60237 C59.7207397,9.65817 63.4482397,15.16977 68.7004192,14.39037 L68.7686885,14.83497 C68.4000346,14.88987 68.0404833,14.91507 67.6882141,14.91507" id="Fill-16" stroke="#979797" stroke-width="0.3" fill="#979797"></path>
                        <path d="M10.4976231,15.29208 C7.44462308,15.29208 4.96144359,17.74818 4.96144359,20.76588 C4.96144359,23.78448 7.44462308,26.23878 10.4976231,26.23878 C13.5506231,26.23878 16.0338026,23.78448 16.0338026,20.76588 C16.0338026,17.74818 13.5506231,15.29208 10.4976231,15.29208 M10.4976231,26.68878 C7.19430256,26.68878 4.50631538,24.03198 4.50631538,20.76588 C4.50631538,17.49978 7.19430256,14.84208 10.4976231,14.84208 C13.8009436,14.84208 16.4889308,17.49978 16.4889308,20.76588 C16.4889308,24.03198 13.8009436,26.68878 10.4976231,26.68878" id="Fill-18" stroke="#979797" stroke-width="0.3" fill="#979797"></path>
                        <path d="M10.4976231,17.47791 C8.66436667,17.47791 7.17336667,18.95301 7.17336667,20.76561 C7.17336667,22.57821 8.66436667,24.05331 10.4976231,24.05331 C12.3317897,24.05331 13.8227897,22.57821 13.8227897,20.76561 C13.8227897,18.95301 12.3317897,17.47791 10.4976231,17.47791 M10.4976231,24.50331 C8.4131359,24.50331 6.71823846,22.82661 6.71823846,20.76561 C6.71823846,18.70461 8.4131359,17.02791 10.4976231,17.02791 C12.5821103,17.02791 14.2779179,18.70461 14.2779179,20.76561 C14.2779179,22.82661 12.5821103,24.50331 10.4976231,24.50331" id="Fill-20" stroke="#979797" stroke-width="0.3" fill="#979797"></path>
                        <path d="M57.1945051,15.29208 C54.1415051,15.29208 51.6583256,17.74818 51.6583256,20.76588 C51.6583256,23.78448 54.1415051,26.23878 57.1945051,26.23878 C60.2475051,26.23878 62.7306846,23.78448 62.7306846,20.76588 C62.7306846,17.74818 60.2475051,15.29208 57.1945051,15.29208 M57.1945051,26.68878 C53.8911846,26.68878 51.2031974,24.03198 51.2031974,20.76588 C51.2031974,17.49978 53.8911846,14.84208 57.1945051,14.84208 C60.4978256,14.84208 63.1858128,17.49978 63.1858128,20.76588 C63.1858128,24.03198 60.4978256,26.68878 57.1945051,26.68878" id="Fill-22" stroke="#979797" stroke-width="0.3" fill="#979797"></path>
                        <path d="M57.1945051,17.47791 C55.3612487,17.47791 53.8702487,18.95301 53.8702487,20.76561 C53.8702487,22.57821 55.3612487,24.05331 57.1945051,24.05331 C59.0286718,24.05331 60.5196718,22.57821 60.5196718,20.76561 C60.5196718,18.95301 59.0286718,17.47791 57.1945051,17.47791 M57.1945051,24.50331 C55.1100179,24.50331 53.4151205,22.82661 53.4151205,20.76561 C53.4151205,18.70461 55.1100179,17.02791 57.1945051,17.02791 C59.2789923,17.02791 60.9748,18.70461 60.9748,20.76561 C60.9748,22.82661 59.2789923,24.50331 57.1945051,24.50331" id="Fill-24" stroke="#979797" stroke-width="0.3" fill="#979797"></path>
                        <path d="M44.8874451,15.1155846 C44.736891,14.9614718 44.4944651,14.9614718 44.344392,15.1155846 L32.6877484,27.0477507 L27.6578928,21.8990067 C27.5073386,21.744894 27.2629888,21.744894 27.1129156,21.8990067 C26.9623615,22.0545966 26.9623615,22.3027526 27.1129156,22.4568653 L32.4150193,27.8842924 C32.4900559,27.9611025 32.5881807,28 32.6877484,28 C32.7853922,28 32.8830359,27.9611025 32.9580725,27.8842924 L44.8874451,15.6729507 C45.0375183,15.5193304 45.0375183,15.2692049 44.8874451,15.1155846 Z" id="Fill-2" fill="#FFBC21"></path>
                    </g>
                </g>
            </g>
        </g>
    </g>
</svg>