<?xml version="1.0" encoding="UTF-8"?>
<svg width="12px" height="12px" viewBox="0 0 12 12" version="1.1" xmlns="http://www.w3.org/2000/svg" xmlns:xlink="http://www.w3.org/1999/xlink">
    <!-- Generator: Sketch 49.3 (51167) - http://www.bohemiancoding.com/sketch -->
    <title>Fill 1</title>
    <desc>Created with Sketch.</desc>
    <defs></defs>
    <g id="Page-1" stroke="none" stroke-width="1" fill="none" fill-rule="evenodd">
        <g id="PLAN-YOUR-TRIP--1.1" transform="translate(-751.000000, -857.000000)" fill="#FDB940">
            <g id="Group-6" transform="translate(375.000000, 281.000000)">
                <g id="Group-24" transform="translate(0.000000, 562.000000)">
                    <path d="M385.985966,21.4280284 C385.55691,21.0044389 385.021188,21.0044389 384.594797,21.4280284 C384.269537,21.7506233 383.944311,22.0730473 383.624518,22.4011088 C383.536985,22.4913069 383.463187,22.5104056 383.356657,22.4502052 C383.146195,22.3354418 382.921998,22.2425446 382.719804,22.1168139 C381.776755,21.5237272 380.986804,20.7611432 380.287188,19.9028262 C379.940062,19.4764352 379.6311,19.0200123 379.415171,18.5061906 C379.371541,18.4023603 379.379672,18.3340284 379.464404,18.2492626 C379.789664,17.9348334 380.106758,17.6123752 380.426551,17.2898145 C380.872041,16.8415231 380.872041,16.3167682 380.423852,15.8657777 C380.169623,15.608884 379.915394,15.3574226 379.661268,15.1005288 C379.398874,14.8381343 379.139178,14.5729382 378.873982,14.3132428 C378.444926,13.89512 377.909204,13.89512 377.482779,14.3160444 C377.154752,14.6386052 376.840459,14.9693316 376.507068,15.2862891 C376.198105,15.5788521 376.042343,15.9369112 376.009509,16.3550683 C375.957611,17.0357223 376.124307,17.6779055 376.359471,18.3038598 C376.840459,19.5995009 377.573011,20.7501759 378.461326,21.8051863 C379.661268,23.2320246 381.093436,24.3608334 382.7689,25.1753496 C383.523353,25.5415744 384.305036,25.8231702 385.15505,25.8696017 C385.740005,25.9024352 386.248361,25.7548383 386.655687,25.2983812 C386.934481,24.9867536 387.248774,24.7024929 387.544002,24.4046 C387.98136,23.9617751 387.984025,23.4260872 387.549468,22.9887289 C387.03018,22.466639 386.50809,21.9473166 385.985966,21.4280284 Z" id="Fill-1"></path>
                </g>
            </g>
        </g>
    </g>
</svg>