<?xml version="1.0" encoding="UTF-8"?>
<svg width="135px" height="42px" viewBox="0 0 135 42" version="1.1" xmlns="http://www.w3.org/2000/svg" xmlns:xlink="http://www.w3.org/1999/xlink">
    <title>Huawei Copy 2</title>
    <g id="Page-1" stroke="none" stroke-width="1" fill="none" fill-rule="evenodd">
        <g id="Huawei-Copy" transform="translate(1.000000, 1.000000)">
            <path d="M123.841854,0.201821192 L124.37298,0.203443709 C124.672318,0.205562914 124.976954,0.211125828 125.276291,0.21589404 C125.933245,0.232317881 126.592848,0.272582781 127.236556,0.389139073 C127.89351,0.50410596 128.50543,0.700397351 129.109404,1.00397351 C129.694834,1.30490066 130.229934,1.69536424 130.69351,2.16 C131.162384,2.62437086 131.551788,3.16238411 131.853775,3.74966887 C132.153113,4.34596026 132.349139,4.9589404 132.460397,5.61589404 C132.582252,6.26516556 132.619338,6.92211921 132.643179,7.57907285 C132.645828,7.8797351 132.645828,8.18119205 132.645828,8.4818543 C132.653775,8.83735099 132.653775,9.19337748 132.653775,9.55258278 L132.653775,9.55258278 L132.653775,30.5864901 C132.653775,30.9486093 132.653775,31.3027815 132.645828,31.6593377 C132.645828,31.9634437 132.645828,32.2588079 132.643179,32.5631788 C132.619338,33.2201325 132.582252,33.8770861 132.460397,34.5260927 C132.349139,35.1833113 132.153113,35.7989404 131.853775,36.3936424 C131.551788,36.9777483 131.162384,37.5157616 130.69351,37.9766887 C130.229934,38.4447682 129.694834,38.8344371 129.109404,39.1324503 C128.50543,39.4386755 127.89351,39.6323179 127.236556,39.7509934 C126.592848,39.8678146 125.933245,39.9062252 125.276291,39.9242384 C124.976954,39.9311258 124.672318,39.9345695 124.37298,39.9345695 C124.020662,39.9366887 123.663046,39.9366887 123.310728,39.9366887 L123.310728,39.9366887 L9.55284768,39.9366887 C9.19337748,39.9366887 8.8381457,39.9366887 8.4794702,39.9345695 C8.17933775,39.9345695 7.8815894,39.9311258 7.57827815,39.9242384 C6.92582781,39.9062252 6.26516556,39.8678146 5.61350993,39.7509934 C4.95708609,39.6323179 4.34701987,39.4386755 3.74940397,39.1324503 C3.16238411,38.8344371 2.62622517,38.4447682 2.16238411,37.9766887 C1.69298013,37.5157616 1.30410596,36.9777483 1.00688742,36.3936424 C0.701986755,35.7989404 0.508344371,35.1833113 0.393907285,34.5260927 C0.275761589,33.8770861 0.234966887,33.2201325 0.218278146,32.5631788 C0.209006623,32.2588079 0.208211921,31.9634437 0.203443709,31.6593377 L0.203443709,31.6593377 L0.203443709,8.4818543 C0.208211921,8.18119205 0.209006623,7.8797351 0.218278146,7.57907285 C0.234966887,6.92211921 0.275761589,6.26516556 0.393907285,5.61589404 C0.508344371,4.9589404 0.701986755,4.34596026 1.00688742,3.74966887 C1.30410596,3.16238411 1.69298013,2.62437086 2.16238411,2.16 C2.62622517,1.69536424 3.16238411,1.30490066 3.74940397,1.00397351 C4.34701987,0.700397351 4.95708609,0.50410596 5.61350993,0.389139073 C6.26516556,0.272582781 6.92582781,0.232317881 7.57827815,0.21589404 C7.8815894,0.211125828 8.17933775,0.205562914 8.4794702,0.203443709 C8.8381457,0.201589404 9.19337748,0.201589404 9.55284768,0.201589404 L123.841854,0.201821192 L123.841854,0.201821192 Z M124.367682,1.05960265 L8.48476821,1.05960265 L7.6,1.07152318 C7.09059603,1.08450331 6.42119205,1.11417219 5.7607947,1.23258278 C5.17430464,1.33536424 4.64344371,1.51019868 4.13960265,1.76582781 C3.63152318,2.02622517 3.17006623,2.36238411 2.76450331,2.76847682 C2.36370861,3.16476821 2.02966887,3.62490066 1.76927152,4.13933775 C1.51496689,4.63629139 1.34092715,5.16715232 1.23629139,5.76900662 C1.11761589,6.42225166 1.08688742,7.09112583 1.07390728,7.60476821 C1.06913907,7.76775436 1.06259756,8.25117618 1.06037645,8.42157796 L1.06035496,31.7070738 C1.06251875,31.8802627 1.06892234,32.3719205 1.07390728,32.5411921 C1.08688742,33.050596 1.11761589,33.72 1.23708609,34.3796026 C1.34145695,34.9782781 1.51549669,35.5096689 1.76953642,36.0047682 C2.03046358,36.5181457 2.36423841,36.9756291 2.77033113,37.3740397 C3.16900662,37.7764238 3.62887417,38.1115232 4.14013245,38.3711258 C4.63443709,38.6238411 5.16609272,38.8 5.76476821,38.9080795 C6.3992053,39.0222517 7.04927152,39.0527152 7.59761589,39.0683444 C7.89403974,39.074702 8.18543046,39.0786755 8.48423841,39.0786755 L8.48423841,39.0786755 L123.310728,39.0807947 L124.37298,39.0786755 C124.664371,39.0786755 124.966358,39.074702 125.25245,39.0683444 C125.806093,39.0527152 126.457748,39.0222517 127.085563,38.9080795 C127.692185,38.7989404 128.211391,38.6278146 128.72,38.3690066 C129.228609,38.1104636 129.686887,37.7764238 130.092185,37.3666225 C130.489536,36.9777483 130.82596,36.5170861 131.088212,36.0076821 C131.345166,35.5030464 131.517351,34.9716556 131.618013,34.3700662 C131.731921,33.7650331 131.766358,33.1300662 131.784901,32.5525828 C131.790199,32.2519205 131.790199,31.96 131.790199,31.6410596 C131.798146,31.2903311 131.798146,30.9430464 131.798146,30.5864901 L131.798146,30.5864901 L131.797851,9.19987246 C131.797263,8.96432671 131.795497,8.72697572 131.790199,8.4818543 C131.790199,8.18516556 131.790199,7.88688742 131.78755,7.60900662 C131.766358,7.01245033 131.731921,6.37721854 131.615364,5.7584106 C131.517351,5.17377483 131.345166,4.64291391 131.090861,4.14145695 C130.82596,3.62543046 130.489536,3.16291391 130.089536,2.76450331 C129.686887,2.36238411 129.22596,2.02622517 128.722649,1.76874172 C128.211391,1.51046358 127.676291,1.33483444 127.085563,1.23152318 C126.433907,1.11417219 125.766358,1.08450331 125.263046,1.07205298 L125.263046,1.07205298 L124.367682,1.05960265 Z" id="Combined-Shape" stroke="#FFFFFF" fill="#FFFFFF"></path>
            <path d="M45.2990728,25.4450331 L48.7716556,25.4450331 L47.5284768,22.1168212 C47.357351,21.6572185 47.1891391,21.149404 47.0233113,20.5931126 C46.8736424,21.085298 46.7104636,21.5875497 46.5340397,22.1009272 L45.2990728,25.4450331 Z M49.3650331,27.0249007 L44.7136424,27.0249007 L43.5750993,30.1364238 L41.5300662,30.1364238 L46.0850331,18.5162914 L48.0177483,18.5162914 L52.6770861,30.1364238 L50.527947,30.1364238 L49.3650331,27.0249007 L49.3650331,27.0249007 Z" id="Fill-33" fill="#FFFFFE"></path>
            <path d="M58.7096689,28.0233113 C59.1133775,27.4807947 59.3152318,26.687947 59.3152318,25.6455629 C59.3152318,24.6778808 59.1480795,23.9761589 58.8140397,23.5401325 C58.4797351,23.1046358 58.034702,22.8868874 57.4786755,22.8868874 C57.0937748,22.8868874 56.7382781,22.9777483 56.4121854,23.1594702 C56.0860927,23.3411921 55.775894,23.5843709 55.4818543,23.8892715 L55.4818543,28.5245033 C55.6797351,28.6206623 55.9096689,28.6969536 56.1716556,28.7528477 C56.4336424,28.8092715 56.6929801,28.837351 56.949404,28.837351 C57.7194702,28.837351 58.3059603,28.5658278 58.7096689,28.0233113 Z M53.5011921,23.6005298 C53.5011921,22.9589404 53.4797351,22.253245 53.4370861,21.4834437 L55.2974834,21.4834437 C55.3668874,21.8415894 55.4150993,22.207947 55.4418543,22.5819868 C56.2116556,21.7427815 57.0937748,21.3229139 58.0882119,21.3229139 C58.6656954,21.3229139 59.2002649,21.4686093 59.6921854,21.76 C60.1838411,22.0513907 60.5809272,22.5112583 60.8829139,23.1393377 C61.1851656,23.7676821 61.3361589,24.5658278 61.3361589,25.533245 C61.3361589,26.5435762 61.1637086,27.4071523 60.8188079,28.1234437 C60.4739073,28.84 59.9915232,29.3825166 59.3713907,29.7515232 C58.7512583,30.1202649 58.034702,30.3049007 57.2222517,30.3049007 C56.6339073,30.3049007 56.0537748,30.2058278 55.4818543,30.0082119 L55.4818543,33.5846358 L53.5011921,33.7531126 L53.5011921,23.6005298 L53.5011921,23.6005298 Z" id="Fill-34" fill="#FFFFFE"></path>
            <path d="M67.746755,28.0233113 C68.1504636,27.4807947 68.3523179,26.687947 68.3523179,25.6455629 C68.3523179,24.6778808 68.1851656,23.9761589 67.8511258,23.5401325 C67.5168212,23.1046358 67.0717881,22.8868874 66.5157616,22.8868874 C66.1308609,22.8868874 65.7753642,22.9777483 65.4492715,23.1594702 C65.1229139,23.3411921 64.8129801,23.5843709 64.5189404,23.8892715 L64.5189404,28.5245033 C64.7168212,28.6206623 64.9464901,28.6969536 65.2087417,28.7528477 C65.4704636,28.8092715 65.7298013,28.837351 65.9864901,28.837351 C66.7562914,28.837351 67.3430464,28.5658278 67.746755,28.0233113 Z M62.5380132,23.6005298 C62.5380132,22.9589404 62.5165563,22.253245 62.4739073,21.4834437 L64.3345695,21.4834437 C64.4039735,21.8415894 64.4521854,22.207947 64.4789404,22.5819868 C65.2487417,21.7427815 66.1308609,21.3229139 67.125298,21.3229139 C67.7027815,21.3229139 68.2370861,21.4686093 68.7292715,21.76 C69.2209272,22.0513907 69.6180132,22.5112583 69.9202649,23.1393377 C70.2219868,23.7676821 70.373245,24.5658278 70.373245,25.533245 C70.373245,26.5435762 70.2005298,27.4071523 69.855894,28.1234437 C69.5109934,28.84 69.0283444,29.3825166 68.4084768,29.7515232 C67.7880795,30.1202649 67.0717881,30.3049007 66.2590728,30.3049007 C65.6709934,30.3049007 65.0908609,30.2058278 64.5189404,30.0082119 L64.5189404,33.5846358 L62.5380132,33.7531126 L62.5380132,23.6005298 L62.5380132,23.6005298 Z" id="Fill-35" fill="#FFFFFE"></path>
            <path d="M74.0119205,29.5870199 C73.1562914,29.1141722 72.4988079,28.4362914 72.0392053,27.5541722 C71.5790728,26.672053 71.349404,25.629404 71.349404,24.4264901 C71.349404,23.1221192 71.6140397,22.0140397 72.1433113,21.1022517 C72.6725828,20.1909934 73.3931126,19.5064901 74.3043709,19.0495364 C75.2161589,18.5923179 76.2384106,18.3637086 77.3721854,18.3637086 C78.0402649,18.3637086 78.6778808,18.437351 79.2847682,18.5843709 C79.8913907,18.7313907 80.4566887,18.933245 80.9809272,19.1899338 L80.4754967,20.7136424 C79.4222517,20.2111258 78.4172185,19.9597351 77.4603974,19.9597351 C76.6529801,19.9597351 75.9459603,20.1321854 75.3393377,20.4770861 C74.7324503,20.8219868 74.2603974,21.3284768 73.9237086,21.9965563 C73.586755,22.6651656 73.418543,23.4723179 73.418543,24.418543 C73.418543,25.2474172 73.5480795,25.9822517 73.8071523,26.6238411 C74.066755,27.2654305 74.4757616,27.7735099 75.0344371,28.1475497 C75.5931126,28.5218543 76.2974834,28.7088742 77.1475497,28.7088742 C77.5324503,28.7088742 77.917351,28.6768212 78.3022517,28.6127152 C78.6871523,28.5486093 79.0482119,28.4550993 79.3849007,28.3319205 L79.3849007,25.9822517 L76.698543,25.9822517 L76.698543,24.442649 L81.3096689,24.442649 L81.3096689,29.3345695 C80.6466225,29.6445033 79.9501987,29.882649 79.2206623,30.0482119 C78.490596,30.2137748 77.7650331,30.2966887 77.0431788,30.2966887 C75.8776159,30.2966887 74.8670199,30.0603974 74.0119205,29.5870199" id="Fill-36" fill="#FFFFFE"></path>
            <path d="M87.1618543,28.5324503 C87.573245,28.3348344 87.9101987,28.0887417 88.1721854,27.794702 L88.1721854,26.1907285 C87.632053,26.1321854 87.1909934,26.1025166 86.8490066,26.1025166 C86.0309934,26.1025166 85.4654305,26.234702 85.1531126,26.4996026 C84.84,26.7639735 84.6837086,27.1210596 84.6837086,27.5700662 C84.6837086,27.9981457 84.797351,28.314702 85.0246358,28.5205298 C85.2519205,28.7263576 85.5605298,28.8291391 85.9507285,28.8291391 C86.3462252,28.8291391 86.7499338,28.7303311 87.1618543,28.5324503 Z M88.3486093,30.1364238 C88.2789404,29.7994702 88.2333775,29.4174834 88.2121854,28.9896689 C87.9075497,29.3533775 87.5107285,29.6619868 87.0211921,29.9160265 C86.5324503,30.1698013 85.9801325,30.2966887 85.365298,30.2966887 C84.8680795,30.2966887 84.4150993,30.1992053 84.0058278,30.0039735 C83.597351,29.8090066 83.2723179,29.5149669 83.0317881,29.1218543 C82.7912583,28.7290066 82.6707285,28.2492715 82.6707285,27.6823841 C82.6707285,26.8431788 82.9727152,26.1735099 83.5769536,25.6733775 C84.1811921,25.1735099 85.1888742,24.9237086 86.6002649,24.9237086 C87.1295364,24.9237086 87.6535099,24.9613245 88.1721854,25.0360265 L88.1721854,24.8675497 C88.1721854,24.1030464 88.0090066,23.5645033 87.6829139,23.2516556 C87.3568212,22.9390728 86.8890066,22.7825166 86.2797351,22.7825166 C85.8572185,22.7825166 85.4055629,22.8442384 84.9242384,22.9668874 C84.4431788,23.0900662 84.0206623,23.2370861 83.6572185,23.407947 L83.3443709,21.9645033 C83.6972185,21.8042384 84.1623841,21.6572185 84.7398675,21.5234437 C85.317351,21.3899338 85.9266225,21.3229139 86.5682119,21.3229139 C87.3168212,21.3229139 87.9528477,21.4365563 88.4768212,21.6635762 C89.0007947,21.8911258 89.4098013,22.2815894 89.7038411,22.8344371 C89.9978808,23.3880795 90.1449007,24.1327152 90.1449007,25.0680795 L90.1449007,28.5083444 C90.1449007,28.866755 90.1660927,29.4095364 90.2090066,30.1364238 L88.3486093,30.1364238 L88.3486093,30.1364238 Z" id="Fill-37" fill="#FFFFFE"></path>
            <path d="M91.6646358,28.0593377 L91.6646358,17.8344371 L93.637351,17.6741722 L93.637351,27.7064901 C93.637351,28.0754967 93.7001325,28.335894 93.8256954,28.4884768 C93.9512583,28.6405298 94.1504636,28.7170861 94.4233113,28.7170861 C94.5462252,28.7170861 94.72,28.6876821 94.9443709,28.6288742 L95.1769536,30.0482119 C94.9896689,30.1231788 94.7613245,30.1833113 94.4916556,30.2286093 C94.221457,30.2739073 93.9660927,30.2966887 93.7255629,30.2966887 C92.3512583,30.2966887 91.6646358,29.5509934 91.6646358,28.0593377" id="Fill-38" fill="#FFFFFE"></path>
            <path d="M96.5965563,28.0593377 L96.5965563,17.8344371 L98.5692715,17.6741722 L98.5692715,27.7064901 C98.5692715,28.0754967 98.632053,28.335894 98.7576159,28.4884768 C98.8834437,28.6405298 99.082649,28.7170861 99.3552318,28.7170861 C99.4781457,28.7170861 99.6519205,28.6876821 99.8765563,28.6288742 L100.109139,30.0482119 C99.9218543,30.1231788 99.693245,30.1833113 99.4235762,30.2286093 C99.1533775,30.2739073 98.8980132,30.2966887 98.6574834,30.2966887 C97.2834437,30.2966887 96.5965563,29.5509934 96.5965563,28.0593377" id="Fill-39" fill="#FFFFFE"></path>
            <path d="M106.290861,24.8034437 C106.251126,24.1139073 106.07894,23.5965563 105.769007,23.2516556 C105.459073,22.9070199 105.043179,22.7343046 104.526623,22.7343046 C104.023311,22.7343046 103.604768,22.9083444 103.270993,23.2556291 C102.937219,23.6034437 102.717351,24.1192053 102.616689,24.8034437 L106.290861,24.8034437 Z M108.221987,26.0625166 L102.56106,26.0625166 C102.651126,27.8749669 103.514702,28.7811921 105.151788,28.7811921 C105.557086,28.7811921 105.97298,28.7316556 106.39947,28.6328477 C106.823311,28.5337748 107.231258,28.4015894 107.620662,28.2357616 L108.055099,29.5909934 C107.085563,30.0617219 105.99947,30.2966887 104.791523,30.2966887 C103.869669,30.2966887 103.096159,30.1231788 102.465695,29.7756291 C101.832583,29.4280795 101.358411,28.9282119 101.04053,28.2757616 C100.723179,27.6238411 100.563974,26.8378808 100.563974,25.9181457 C100.563974,24.9613245 100.73245,24.1377483 101.069669,23.4482119 C101.406093,22.7584106 101.874967,22.232053 102.476291,21.8683444 C103.077616,21.5049007 103.771656,21.3229139 104.558411,21.3229139 C105.376954,21.3229139 106.057748,21.5141722 106.606093,21.8964238 C107.154437,22.2786755 107.559735,22.7880795 107.824636,23.424106 C108.089536,24.0603974 108.221987,24.7634437 108.221987,25.533245 L108.221987,26.0625166 L108.221987,26.0625166 Z" id="Fill-40" fill="#FFFFFE"></path>
            <path d="M109.721325,23.6566887 C109.721325,23.1809272 109.697483,22.4566887 109.655099,21.4834437 L111.509404,21.4834437 C111.541192,21.7239735 111.570331,22.0113907 111.602119,22.3456954 C111.631258,22.6794702 111.649801,22.9509934 111.660397,23.1594702 C111.890861,22.7798675 112.116026,22.4603974 112.338543,22.2013245 C112.56106,21.9417219 112.820662,21.730596 113.117351,21.5674172 C113.41404,21.4045033 113.750464,21.3229139 114.131921,21.3229139 C114.436556,21.3229139 114.696159,21.3549669 114.916026,21.4193377 L114.66702,23.1353642 C114.476291,23.0765563 114.261722,23.0471523 114.02596,23.0471523 C113.562384,23.0471523 113.154437,23.1660927 112.807417,23.4042384 C112.460397,23.6418543 112.089536,24.0336424 111.692185,24.5788079 L111.692185,30.1364238 L109.721325,30.1364238 L109.721325,23.6566887" id="Fill-41" fill="#FFFFFE"></path>
            <path d="M116.028609,33.6768212 C115.739868,33.6262252 115.501457,33.5687417 115.316026,33.5046358 L115.676291,32.0611921 C115.808742,32.0982781 115.978278,32.1345695 116.182252,32.1692715 C116.383576,32.2042384 116.576954,32.221457 116.759735,32.221457 C117.636556,32.221457 118.29351,31.6572185 118.730596,30.5292715 L118.860397,30.2084768 L115.668344,21.4834437 L117.792848,21.4834437 L119.398146,26.3592053 C119.657748,27.1933775 119.827285,27.8323179 119.901457,28.2757616 C120.05245,27.6503311 120.227285,27.0249007 120.431258,26.3992053 L122.060397,21.4834437 L124.055099,21.4834437 L120.873642,30.2487417 C120.574305,31.077351 120.248477,31.7454305 119.901457,32.2535099 C119.554437,32.7613245 119.143841,33.1382781 118.672318,33.3843709 C118.198146,33.6299338 117.628609,33.7531126 116.958411,33.7531126 C116.627285,33.7531126 116.317351,33.727947 116.028609,33.6768212" id="Fill-42" fill="#FFFFFE"></path>
            <polyline id="Fill-43" fill="#FFFFFE" points="41.5213245 7.45430464 45.0519205 7.45430464 44.9525828 8.30701987 42.5560265 8.30701987 42.5560265 9.9584106 44.815894 9.9584106 44.815894 10.757351 42.5560265 10.757351 42.5560265 12.586755 45.0807947 12.586755 44.9939073 13.4476821 41.5213245 13.4476821 41.5213245 7.45430464"></polyline>
            <polyline id="Fill-44" fill="#FFFFFE" points="47.4855629 10.3888742 45.6230464 7.45430464 46.7984106 7.45430464 48.0609272 9.61059603 49.3896689 7.45430464 50.5319205 7.45430464 48.6858278 10.3515232 50.6850331 13.4476821 49.4929801 13.4476821 48.0651656 11.0884768 46.6121854 13.4476821 45.4699338 13.4476821 47.4855629 10.3888742"></polyline>
            <path d="M54.0418543,10.1300662 C54.2625166,9.93033113 54.3729801,9.64794702 54.3729801,9.28370861 C54.3729801,8.91417219 54.2603974,8.64794702 54.0357616,8.48476821 C53.8108609,8.32211921 53.4802649,8.2407947 53.0445033,8.2407947 L52.4815894,8.2407947 L52.4815894,10.3682119 C52.7409272,10.4095364 52.9396026,10.4301987 53.0776159,10.4301987 C53.4996026,10.4301987 53.8211921,10.3303311 54.0418543,10.1300662 Z M51.4466225,7.45430464 L53.0609272,7.45430464 C53.8196026,7.45430464 54.4005298,7.60900662 54.8034437,7.91788079 C55.2063576,8.22701987 55.4076821,8.67390728 55.4076821,9.25880795 C55.4076821,9.65615894 55.317351,10.0034437 55.1366887,10.2998675 C54.9557616,10.5965563 54.704106,10.8243709 54.3811921,10.9827815 C54.058543,11.1417219 53.6871523,11.2209272 53.2678146,11.2209272 C53.0389404,11.2209272 52.7766887,11.1933775 52.4815894,11.1380132 L52.4815894,13.4476821 L51.4466225,13.4476821 L51.4466225,7.45430464 L51.4466225,7.45430464 Z" id="Fill-45" fill="#FFFFFE"></path>
            <polyline id="Fill-46" fill="#FFFFFE" points="56.4301987 7.45430464 57.4649007 7.45430464 57.4649007 12.5618543 59.944106 12.5618543 59.8572185 13.4476821 56.4301987 13.4476821 56.4301987 7.45430464"></polyline>
            <path d="M64.1992053,12.4190728 C64.4890066,12.2246358 64.7054305,11.9570861 64.8490066,11.6161589 C64.9925828,11.2754967 65.0643709,10.8855629 65.0643709,10.4468874 C65.0643709,10.0164238 65.0007947,9.63284768 64.8739073,9.29615894 C64.746755,8.9594702 64.544106,8.69139073 64.2654305,8.49112583 C63.986755,8.29112583 63.6280795,8.19099338 63.1891391,8.19099338 C62.7698013,8.19099338 62.4137748,8.29245033 62.1213245,8.49536424 C61.8288742,8.69801325 61.6095364,8.97006623 61.4633113,9.31072848 C61.3170861,9.65165563 61.2439735,10.0275497 61.2439735,10.4384106 C61.2439735,10.8717881 61.3128477,11.2596026 61.4508609,11.6015894 C61.5886093,11.9438411 61.7997351,12.2143046 62.0842384,12.4129801 C62.3682119,12.6116556 62.72,12.7109934 63.1396026,12.7109934 C63.5562914,12.7109934 63.909404,12.6135099 64.1992053,12.4190728 Z M61.5170861,13.1536424 C61.0784106,12.9027815 60.7430464,12.5501987 60.5112583,12.0961589 C60.2794702,11.6423841 60.1637086,11.114702 60.1637086,10.5131126 C60.1637086,9.8813245 60.2868874,9.32874172 60.5340397,8.85536424 C60.7809272,8.38225166 61.1369536,8.01668874 61.6018543,7.7584106 C62.066755,7.50066225 62.6150993,7.37139073 63.2471523,7.37139073 C63.8513907,7.37139073 64.3716556,7.49642384 64.8076821,7.74596026 C65.2434437,7.99602649 65.5761589,8.34701987 65.8050331,8.7994702 C66.0341722,9.25218543 66.1486093,9.77615894 66.1486093,10.3721854 C66.1486093,11.0153642 66.0238411,11.5743046 65.7740397,12.0487417 C65.5242384,12.5234437 65.1684768,12.8887417 64.7062252,13.1454305 C64.2439735,13.4021192 63.7011921,13.5303311 63.0776159,13.5303311 C62.4760265,13.5303311 61.9557616,13.4050331 61.5170861,13.1536424 L61.5170861,13.1536424 Z" id="Fill-47" fill="#FFFFFE"></path>
            <path d="M68.9260927,10.2895364 C69.1769536,10.2895364 69.3992053,10.2405298 69.5923179,10.1425166 C69.7854305,10.0447682 69.935894,9.90675497 70.0434437,9.72874172 C70.1512583,9.55072848 70.2050331,9.34463576 70.2050331,9.10993377 C70.2050331,8.80927152 70.1096689,8.58913907 69.9194702,8.44980132 C69.7290066,8.31046358 69.4516556,8.2407947 69.0874172,8.2407947 L68.3382781,8.2407947 L68.3382781,10.2895364 L68.9260927,10.2895364 Z M67.3035762,7.45430464 L69.178543,7.45430464 C69.8627815,7.45430464 70.3809272,7.59072848 70.7327152,7.86410596 C71.0845033,8.13721854 71.2603974,8.52794702 71.2603974,9.03549669 C71.2603974,9.35284768 71.1968212,9.63231788 71.0699338,9.87364238 C70.9430464,10.1152318 70.7856954,10.3117881 70.5981457,10.4633113 C70.4103311,10.6150993 70.2174834,10.7282119 70.0188079,10.802649 L71.8606623,13.4476821 L70.6603974,13.4476821 L69.0998675,11.0717881 L68.3382781,11.0717881 L68.3382781,13.4476821 L67.3035762,13.4476821 L67.3035762,7.45430464 L67.3035762,7.45430464 Z" id="Fill-48" fill="#FFFFFE"></path>
            <polyline id="Fill-49" fill="#FFFFFE" points="72.6802649 7.45430464 76.2108609 7.45430464 76.1115232 8.30701987 73.7149669 8.30701987 73.7149669 9.9584106 75.9748344 9.9584106 75.9748344 10.757351 73.7149669 10.757351 73.7149669 12.586755 76.2397351 12.586755 76.1528477 13.4476821 72.6802649 13.4476821 72.6802649 7.45430464"></polyline>
            <polygon id="Fill-50" fill="#FFFFFE" points="80.0519205 13.4476821 81.0866225 13.4476821 81.0866225 7.45430464 80.0519205 7.45430464"></polygon>
            <polyline id="Fill-51" fill="#FFFFFE" points="83.8225166 8.3192053 81.9639735 8.3192053 82.0550993 7.45430464 86.72 7.45430464 86.6246358 8.3192053 84.8572185 8.3192053 84.8572185 13.4476821 83.8225166 13.4476821 83.8225166 8.3192053"></polyline>
            <path d="M93.8929801,12.4190728 C94.1825166,12.2246358 94.3992053,11.9570861 94.5427815,11.6161589 C94.6860927,11.2754967 94.7578808,10.8855629 94.7578808,10.4468874 C94.7578808,10.0164238 94.6943046,9.63284768 94.5676821,9.29615894 C94.4405298,8.9594702 94.2376159,8.69139073 93.9592053,8.49112583 C93.6802649,8.29112583 93.3215894,8.19099338 92.8829139,8.19099338 C92.4633113,8.19099338 92.1075497,8.29245033 91.8150993,8.49536424 C91.5223841,8.69801325 91.3030464,8.97006623 91.1570861,9.31072848 C91.010596,9.65165563 90.9374834,10.0275497 90.9374834,10.4384106 C90.9374834,10.8717881 91.0063576,11.2596026 91.1446358,11.6015894 C91.2823841,11.9438411 91.4935099,12.2143046 91.7777483,12.4129801 C92.0619868,12.6116556 92.4137748,12.7109934 92.8333775,12.7109934 C93.2498013,12.7109934 93.6031788,12.6135099 93.8929801,12.4190728 Z M91.2108609,13.1536424 C90.7719205,12.9027815 90.4368212,12.5501987 90.2050331,12.0961589 C89.973245,11.6423841 89.8572185,11.114702 89.8572185,10.5131126 C89.8572185,9.8813245 89.9806623,9.32874172 90.2278146,8.85536424 C90.4744371,8.38225166 90.8304636,8.01668874 91.2956291,7.7584106 C91.7605298,7.50066225 92.3088742,7.37139073 92.9409272,7.37139073 C93.5451656,7.37139073 94.0651656,7.49642384 94.501457,7.74596026 C94.9372185,7.99602649 95.2696689,8.34701987 95.4988079,8.7994702 C95.7276821,9.25218543 95.8423841,9.77615894 95.8423841,10.3721854 C95.8423841,11.0153642 95.717351,11.5743046 95.4678146,12.0487417 C95.2180132,12.5234437 94.8619868,12.8887417 94.4,13.1454305 C93.9377483,13.4021192 93.394702,13.5303311 92.7711258,13.5303311 C92.1695364,13.5303311 91.6495364,13.4050331 91.2108609,13.1536424 L91.2108609,13.1536424 Z" id="Fill-52" fill="#FFFFFE"></path>
            <path d="M96.9970861,7.45430464 L98.1851656,7.45430464 L101.149139,12.0982781 C101.122649,11.6569536 101.112053,11.2498013 101.112053,10.877351 L101.112053,7.45430464 L102.070993,7.45430464 L102.070993,13.4476821 L100.921325,13.4476821 L97.912053,8.72900662 C97.9422517,9.26463576 97.957351,9.73907285 97.957351,10.1528477 L97.957351,13.4476821 L96.9970861,13.4476821 L96.9970861,7.45430464" id="Fill-53" fill="#FFFFFE"></path>
            <path d="M26.9668874,7.48635762 C32.1509934,7.48635762 34.0471523,9.38251656 34.0471523,14.5666225 L34.0471523,14.5666225 L34.0471523,25.5716556 C34.0471523,30.7557616 32.1475497,32.6519205 26.9634437,32.6519205 L26.9634437,32.6519205 L15.9618543,32.6519205 C10.7777483,32.6519205 8.8815894,30.7557616 8.8815894,25.5716556 L8.8815894,25.5716556 L8.8815894,14.5666225 C8.8815894,9.38251656 10.7777483,7.48635762 15.9618543,7.48635762 L15.9618543,7.48635762 Z M18.2929801,20.0712583 L17.6256954,20.0712583 L17.6256954,21.9544371 C17.6256954,22.4895364 17.36,22.7753642 16.8776159,22.7753642 C16.3925828,22.7753642 16.1255629,22.4813245 16.1255629,21.9316556 L16.1255629,20.0731126 L15.4580132,20.0731126 L15.4580132,21.9544371 C15.4580132,22.88 15.9721854,23.410596 16.8686093,23.410596 C17.7737748,23.410596 18.2929801,22.8699338 18.2929801,21.9274172 L18.2929801,20.0712583 Z M12.3576159,20.0712583 L11.6900662,20.0712583 L11.6900662,23.3615894 L12.3576159,23.3615894 L12.3576159,22.0254305 L13.8651656,22.0254305 L13.8651656,23.3615894 L14.5324503,23.3615894 L14.5324503,20.0712583 L13.8651656,20.0712583 L13.8651656,21.3986755 L12.3576159,21.3986755 L12.3576159,20.0712583 Z M24.5936424,20.0712583 L24.0490066,20.0712583 L23.3019868,22.3337748 L22.5750993,20.0728477 L21.8646358,20.0728477 L23.0113907,23.3613245 L23.5639735,23.3613245 L24.312053,21.2010596 L25.0598675,23.3613245 L25.6174834,23.3613245 L26.7613245,20.0728477 L26.0691391,20.0728477 L25.3406623,22.3337748 L24.5936424,20.0712583 Z M20.6696689,20.0712583 L20.0807947,20.0712583 L18.6312583,23.3597351 L19.3128477,23.3597351 L19.6121854,22.674702 L21.1178808,22.674702 L21.4135099,23.3597351 L22.1133775,23.3597351 L20.6696689,20.0712583 Z M29.7205298,20.0733775 L27.2996026,20.0733775 L27.2996026,23.3594702 L29.784106,23.3594702 L29.784106,22.76 L27.9581457,22.76 L27.9581457,21.9454305 L29.1721854,21.9454305 L29.1721854,21.3464901 L27.9581457,21.3464901 L27.9581457,20.6728477 L29.7205298,20.6728477 L29.7205298,20.0733775 Z M31.2386755,20.0712583 L30.5798675,20.0712583 L30.5798675,23.357351 L31.2386755,23.357351 L31.2386755,20.0712583 Z M20.3637086,20.9038411 L20.8699338,22.0813245 L19.8606623,22.0813245 L20.3637086,20.9038411 Z M17.8672848,11.693245 L17.2754967,11.693245 C17.2754967,14.0029139 19.154702,15.8821192 21.4643709,15.8821192 C23.7740397,15.8821192 25.653245,14.0029139 25.653245,11.693245 L25.653245,11.693245 L25.061457,11.693245 C25.061457,13.6765563 23.447947,15.2903311 21.4643709,15.2903311 C19.4807947,15.2903311 17.8672848,13.6765563 17.8672848,11.693245 L17.8672848,11.693245 Z" id="Combined-Shape" fill="#FFFFFF"></path>
        </g>
    </g>
</svg>