<?xml version="1.0" encoding="UTF-8"?>
<svg width="140px" height="42px" viewBox="0 0 140 42" version="1.1" xmlns="http://www.w3.org/2000/svg" xmlns:xlink="http://www.w3.org/1999/xlink">
    <!-- Generator: Sketch 49.2 (51160) - http://www.bohemiancoding.com/sketch -->
    <title>Group 10</title>
    <desc>Created with Sketch.</desc>
    <defs></defs>
    <g id="Page-1" stroke="none" stroke-width="1" fill="none" fill-rule="evenodd">
        <g id="PickMe-2.3" transform="translate(-781.000000, -1983.000000)">
            <g id="Group-4" transform="translate(782.000000, 1984.000000)">
                <g id="Group-10">
                    <rect id="Rectangle-8-Copy-4" stroke="#FFFFFF" stroke-width="2" x="0" y="0" width="138" height="40" rx="6"></rect>
                    <path d="M54.0861018,24.2838108 C54.0861018,26.0909655 53.5499477,27.5314853 52.4776396,28.6037935 C51.2602544,29.8811017 49.6754461,30.5197558 47.7232144,30.5197558 C45.8553483,30.5197558 44.2681745,29.8724286 42.9609047,28.5769858 C41.6528464,27.2815429 41,25.6754461 41,23.7594837 C41,21.8443098 41.6528464,20.2382129 42.9609047,18.9427701 C44.2681745,17.6473272 45.8553483,17 47.7232144,17 C48.6512341,17 49.5366768,17.1797693 50.3811194,17.5416733 C51.2239852,17.9027889 51.8989086,18.386116 52.4051011,18.9877124 L51.2665621,20.1270398 C50.411081,19.1028278 49.2299651,18.5903276 47.7232144,18.5903276 C46.3615408,18.5903276 45.1843672,19.068924 44.1901168,20.0276936 C43.1958663,20.9856748 42.6983469,22.2298676 42.6983469,23.7594837 C42.6983469,25.2906767 43.1958663,26.534081 44.1901168,27.4928507 C45.1843672,28.4500434 46.3615408,28.9294282 47.7232144,28.9294282 C49.1692535,28.9294282 50.3748117,28.447678 51.3383122,27.4833891 C51.9651394,26.856562 52.3262549,25.9829462 52.4224472,24.8625419 L47.7232144,24.8625419 L47.7232144,23.307695 L53.9954287,23.307695 C54.0561403,23.6459452 54.0861018,23.9707915 54.0861018,24.2838108 Z M56.056468,22.4317139 C56.9119492,21.5336558 58.002392,21.085021 59.3277964,21.085021 C60.6532008,21.085021 61.7436436,21.5336558 62.5999132,22.4317139 C63.4553943,23.3289835 63.8827407,24.4525417 63.8827407,25.8023884 C63.8827407,27.1522352 63.4553943,28.2757933 62.5999132,29.173063 C61.7436436,30.071121 60.6532008,30.5197558 59.3277964,30.5197558 C58.002392,30.5197558 56.9119492,30.071121 56.056468,29.173063 C55.2009869,28.2757933 54.7728521,27.1522352 54.7728521,25.8023884 C54.7728521,24.4525417 55.2009869,23.3289835 56.056468,22.4317139 Z M57.2943532,28.1244087 C57.8667765,28.7094474 58.5440653,29.0019667 59.3277964,29.0019667 C60.110739,29.0019667 60.7888162,28.7094474 61.3612396,28.1244087 C61.9336629,27.5401584 62.2198746,26.7666773 62.2198746,25.8023884 C62.2198746,24.8380995 61.9336629,24.0646184 61.3612396,23.4795797 C60.7888162,22.8953295 60.110739,22.6028101 59.3277964,22.6028101 C58.5440653,22.6028101 57.8667765,22.8953295 57.2943532,23.4795797 C56.7219299,24.0646184 56.4357182,24.8380995 56.4357182,25.8023884 C56.4357182,26.7666773 56.7219299,27.5401584 57.2943532,28.1244087 Z M65.7261645,22.4317139 C66.5816457,21.5336558 67.6720884,21.085021 68.9982813,21.085021 C70.3228973,21.085021 71.4133401,21.5336558 72.2696097,22.4317139 C73.1250908,23.3289835 73.5524371,24.4525417 73.5524371,25.8023884 C73.5524371,27.1522352 73.1250908,28.2757933 72.2696097,29.173063 C71.4133401,30.071121 70.3228973,30.5197558 68.9982813,30.5197558 C67.6720884,30.5197558 66.5816457,30.071121 65.7261645,29.173063 C64.8706834,28.2757933 64.4425486,27.1522352 64.4425486,25.8023884 C64.4425486,24.4525417 64.8706834,23.3289835 65.7261645,22.4317139 Z M66.9648381,28.1244087 C67.536473,28.7094474 68.2145502,29.0019667 68.9982813,29.0019667 C69.781224,29.0019667 70.4585127,28.7094474 71.0317245,28.1244087 C71.6041478,27.5401584 71.8903595,26.7666773 71.8903595,25.8023884 C71.8903595,24.8380995 71.6041478,24.0646184 71.0317245,23.4795797 C70.4585127,22.8953295 69.781224,22.6028101 68.9982813,22.6028101 C68.2145502,22.6028101 67.536473,22.8953295 66.9648381,23.4795797 C66.3916264,24.0646184 66.1062032,24.8380995 66.1062032,25.8023884 C66.1062032,26.7666773 66.3916264,27.5401584 66.9648381,28.1244087 Z M78.4700739,34.4242191 C77.4206311,34.4242191 76.56515,34.1624497 75.902842,33.6381226 C75.2397456,33.113007 74.7635146,32.5137759 74.4749375,31.8388526 L75.9935151,31.2072946 C76.162246,31.6882563 76.4721115,32.0927373 76.9246886,32.4175836 C77.3756888,32.7432183 77.8905544,32.9056415 78.4700739,32.9056415 C79.3854781,32.9056415 80.1053438,32.6312568 80.629671,32.0832757 C81.1539981,31.5352947 81.4157675,30.7909867 81.4157675,29.8511402 L81.4157675,29.0019667 L81.343229,29.0019667 C81.0538635,29.4348323 80.6438633,29.7967363 80.1140169,30.0861018 C79.5841705,30.3754673 78.9873049,30.5197558 78.3249969,30.5197558 C77.1801503,30.5197558 76.1922075,30.0679672 75.3603802,29.1643899 C74.528553,28.2600241 74.1130335,27.1396198 74.1130335,25.8023884 C74.1130335,24.4651571 74.528553,23.3439643 75.3603802,22.4395985 C76.1922075,21.5368097 77.1801503,21.085021 78.3249969,21.085021 C78.9873049,21.085021 79.5841705,21.2293095 80.1140169,21.5178866 C80.6438633,21.8080405 81.0538635,22.1691561 81.343229,22.6028101 L81.4157675,22.6028101 L81.4157675,21.373598 L83.0060951,21.373598 L83.0060951,29.7786017 C83.0060951,31.2971793 82.5661333,32.450699 81.6869984,33.2407378 C80.8070749,34.0291997 79.7347667,34.4242191 78.4700739,34.4242191 Z M78.5962278,29.0019667 C79.3791704,29.0019667 80.0454207,28.7118128 80.5934017,28.1338702 C81.1413827,27.5559276 81.4157675,26.7777158 81.4157675,25.8023884 C81.4157675,24.8262726 81.1413827,24.0488492 80.5934017,23.4709066 C80.0454207,22.8921756 79.3791704,22.6028101 78.5962278,22.6028101 C77.8243236,22.6028101 77.1612272,22.8953295 76.6077269,23.4795797 C76.0534382,24.0646184 75.7758996,24.8380995 75.7758996,25.8023884 C75.7758996,26.7666773 76.0534382,27.5401584 76.6077269,28.1244087 C77.1612272,28.7094474 77.8243236,29.0019667 78.5962278,29.0019667 Z M84.5790765,30.2303903 L84.5790765,17.288577 L86.2411542,17.288577 L86.2411542,30.2303903 L84.5790765,30.2303903 Z M91.735945,30.5197558 C90.3979252,30.5197558 89.3106363,30.0742749 88.4732897,29.181736 C87.6359432,28.2907741 87.2164815,27.1640621 87.2164815,25.8023884 C87.2164815,24.5124648 87.6233278,23.4046758 88.4370205,22.4758678 C89.2499247,21.5486366 90.2899059,21.085021 91.5545988,21.085021 C92.8681763,21.085021 93.9191959,21.5131558 94.7084463,22.3686369 C95.4976966,23.2241181 95.892716,24.3689647 95.892716,25.8023884 L95.8753699,26.1098886 L88.8801361,26.1098886 C88.9274438,27.0016389 89.2262708,27.7065239 89.7742518,28.2237549 C90.3230213,28.7425628 90.9640408,29.0019667 91.6996758,29.0019667 C92.8926186,29.0019667 93.7000035,28.4949857 94.1218306,27.4833891 L95.6033505,28.0976009 C95.3147735,28.7843512 94.837754,29.3607169 94.1754461,29.8243325 C93.5131381,30.2871596 92.6994454,30.5197558 91.735945,30.5197558 Z M94.1218306,24.7355995 C94.0855614,24.229407 93.8529651,23.7484452 93.4256188,23.2895604 C92.997484,22.8314641 92.3619837,22.6028101 91.5183295,22.6028101 C90.9041177,22.6028101 90.3711175,22.7959833 89.9193288,23.1815411 C89.4675402,23.567099 89.1568862,24.0851184 88.9881554,24.7355995 L94.1218306,24.7355995 Z M102.436161,30.2303903 L100.773295,30.2303903 L100.773295,17.288577 L105.183162,17.288577 C106.279913,17.288577 107.228432,17.6536349 108.030298,18.3821737 C108.831375,19.1122894 109.231914,20.0308475 109.231914,21.1386364 C109.231914,22.2472138 108.831375,23.1665604 108.030298,23.8950991 C107.228432,24.6244264 106.279913,24.9886958 105.183162,24.9886958 L102.436161,24.9886958 L102.436161,30.2303903 Z M102.436161,23.3983681 L105.219432,23.3983681 C105.918009,23.3983681 106.478605,23.162618 106.900432,22.6934832 C107.322259,22.2235599 107.533567,21.7055405 107.533567,21.1386364 C107.533567,20.5725208 107.322259,20.0545013 106.900432,19.584578 C106.478605,19.1146548 105.918009,18.8796931 105.219432,18.8796931 L102.436161,18.8796931 L102.436161,23.3983681 Z M110.316838,30.2303903 L110.316838,17.288577 L111.979704,17.288577 L111.979704,30.2303903 L110.316838,30.2303903 Z M116.262629,30.5197558 C115.322782,30.5197558 114.536686,30.248525 113.904339,29.7060632 C113.271204,29.1643899 112.955031,28.447678 112.955031,27.5559276 C112.955031,26.5916388 113.327974,25.8355038 114.076224,25.2875228 C114.822897,24.7387533 115.744609,24.4651571 116.84136,24.4651571 C117.817476,24.4651571 118.618553,24.6449264 119.244592,25.0068304 L119.244592,24.7537341 C119.244592,24.1032531 119.022245,23.5820798 118.576764,23.1910027 C118.130495,22.7983487 117.582514,22.6028101 116.932033,22.6028101 C116.449494,22.6028101 116.012686,22.7179255 115.621609,22.9465795 C115.229744,23.1752334 114.961667,23.4882528 114.81659,23.8856376 L113.298012,23.2351565 C113.503012,22.7053102 113.906705,22.2140984 114.509089,21.7623098 C115.111474,21.3105211 115.907032,21.085021 116.895764,21.085021 C118.027995,21.085021 118.967841,21.4169634 119.715303,22.078483 C120.461977,22.7415794 120.835708,23.6759067 120.835708,24.8806765 L120.835708,30.2303903 L119.244592,30.2303903 L119.244592,29.0019667 L119.17363,29.0019667 C118.510533,30.0135633 117.539937,30.5197558 116.262629,30.5197558 Z M116.53386,29.0019667 C117.22061,29.0019667 117.844283,28.7449282 118.40488,28.2332164 C118.965476,27.7215046 119.244592,27.1159659 119.244592,26.4166002 C118.775457,26.0310424 118.070572,25.8386577 117.130725,25.8386577 C116.322552,25.8386577 115.714648,26.0136962 115.304647,26.3621964 C114.895436,26.7122734 114.690436,27.1214851 114.690436,27.5921969 C114.690436,28.0250625 114.876513,28.3688318 115.251032,28.6219281 C115.623975,28.8742359 116.052109,29.0019667 116.53386,29.0019667 Z M124.451594,34.1340651 L122.734324,34.1340651 L124.794575,29.6697939 L121.143996,21.373598 L122.951151,21.373598 L125.590133,27.7364854 L125.626402,27.7364854 L128.192845,21.373598 L130,21.373598 L124.451594,34.1340651 Z M8.00735098,20.0444402 C8.00735098,15.963606 8.00890766,11.8827718 8.00501597,7.8027159 C8.00501597,7.30146523 8.10230841,6.84457992 8.45723124,6.4663069 C8.59499734,6.31920073 8.69384646,6.27950541 8.86352448,6.45229679 C11.608728,9.2535408 14.3609367,12.0493364 17.1131453,14.8451321 C18.8947645,16.6555499 20.6756054,18.466746 22.465008,20.2701587 C22.6385777,20.4452851 22.6541445,20.5371291 22.4704564,20.7200389 C18.0938531,25.070957 13.7211416,29.4265451 9.36088345,33.7930299 C9.09391299,34.0600004 8.9071115,34.0319801 8.65181613,33.8350602 C8.18403406,33.4754674 8.00501597,32.9944535 8.00579431,32.4208173 C8.00657265,30.004073 8.00190261,27.5873287 8.00034593,25.1705844 C7.99956759,23.4613508 8.00034593,21.7528955 8.00034593,20.0444402 C8.00268095,20.0444402 8.00501597,20.0444402 8.00735098,20.0444402 Z M9.57570516,6.00004004 C9.90961283,5.9977465 10.1446714,6.0942606 10.3719465,6.22112995 C15.9604244,9.35316827 21.548124,12.4859849 27.1404936,15.6110182 C27.3973457,15.7542327 27.3918973,15.8344016 27.1934207,16.0297649 C25.9434074,17.2595413 24.7035125,18.4994362 23.464396,19.7401095 C23.3305216,19.8739839 23.2495742,19.9510395 23.0697778,19.7681297 C18.6239023,15.2335235 14.1710218,10.7059224 9.71969798,6.17676459 C9.68233768,6.13862596 9.6512041,6.0942606 9.57570516,6.00004004 Z M10.8264968,33.6895107 C14.8832025,29.589218 18.9422432,25.4920387 22.9896088,21.3824059 C23.2402342,21.1271105 23.3577634,21.1613575 23.5827036,21.3956377 C24.6108901,22.4658545 25.6538651,23.5220613 26.7015101,24.5728197 C26.8859766,24.7580645 26.9015434,24.8335634 26.6516964,24.9705512 C21.4438265,27.8208306 16.2406267,30.6804501 11.0366485,33.5361778 C10.9510311,33.5836566 10.8708622,33.6607122 10.8264968,33.6895107 Z M34,20.1580778 C33.9828765,20.6172981 33.7657198,20.940309 33.4372605,21.1823726 C33.1944186,21.3621691 32.9266698,21.5092752 32.661256,21.6556031 C31.0866751,22.526565 29.5082025,23.3881869 27.936735,24.2645972 C27.7250266,24.3829048 27.5989356,24.3782348 27.4238092,24.1961033 C26.3053353,23.0410475 25.1767429,21.8953317 24.0419239,20.7558426 C23.8769159,20.5900562 23.8722459,20.4989905 24.0419239,20.3324259 C25.3635444,19.0302638 26.6781599,17.7210967 27.987327,16.4057029 C28.1414383,16.250035 28.2519625,16.2329115 28.4442123,16.341879 C29.9993348,17.2229594 31.5622406,18.0923646 33.1212547,18.96644 C33.6038252,19.2365238 33.9789848,19.5867766 34,20.1580778 Z M40,10.4423828 C40,9.41698706 40.3019176,8.58691724 40.9057617,7.95214844 C41.5096059,7.31737964 42.3079377,7 43.3007812,7 C44.4889382,7 45.3922495,7.47688325 46.0107422,8.43066406 L45.0488281,9.01171875 C44.6614564,8.36392905 44.0755248,8.04003906 43.2910156,8.04003906 C42.6432259,8.04003906 42.1362323,8.26057722 41.7700195,8.70166016 C41.4038068,9.14274309 41.2207031,9.72297817 41.2207031,10.4423828 C41.2207031,11.1878292 41.4070619,11.7778299 41.7797852,12.2124023 C42.1525084,12.6469748 42.6660124,12.8642578 43.3203125,12.8642578 C43.8476589,12.8642578 44.2879214,12.7226577 44.6411133,12.4394531 C44.9943052,12.1562486 45.1936847,11.7672551 45.2392578,11.2724609 L43.3984375,11.2724609 L43.3984375,10.2519531 L46.3916016,10.2519531 C46.4241538,10.4049487 46.4404297,10.5856109 46.4404297,10.7939453 C46.4404297,11.6793664 46.1604846,12.4191051 45.6005859,13.0131836 C45.0406873,13.6072621 44.2740934,13.9042969 43.3007812,13.9042969 C42.3079377,13.9042969 41.5096059,13.5820345 40.9057617,12.9375 C40.3019176,12.2929655 40,11.4612681 40,10.4423828 Z M47.6171875,13.7822266 L47.6171875,7.12207031 L52.4658203,7.12207031 L52.4658203,8.14257812 L48.7890625,8.14257812 L48.7890625,9.76367188 L51.9873047,9.76367188 L51.9873047,10.7841797 L48.7890625,10.7841797 L48.7890625,12.7617188 L52.5683594,12.7617188 L52.5683594,13.7822266 L47.6171875,13.7822266 Z M53.2617188,8.14257812 L53.2617188,7.12207031 L58.8232422,7.12207031 L58.8232422,8.14257812 L56.6210938,8.14257812 L56.6210938,13.7822266 L55.4541016,13.7822266 L55.4541016,8.14257812 L53.2617188,8.14257812 Z M62.6171875,13.7822266 L62.6171875,7.12207031 L63.7792969,7.12207031 L63.7792969,13.7822266 L62.6171875,13.7822266 Z M64.8730469,8.14257812 L64.8730469,7.12207031 L70.4345703,7.12207031 L70.4345703,8.14257812 L68.2324219,8.14257812 L68.2324219,13.7822266 L67.0654297,13.7822266 L67.0654297,8.14257812 L64.8730469,8.14257812 Z M74.7216797,12.9228516 C74.1194631,12.2685514 73.8183594,11.4449919 73.8183594,10.4521484 C73.8183594,9.45930493 74.1202769,8.63574546 74.7241211,7.98144531 C75.3279653,7.32714517 76.1295523,7 77.1289062,7 C78.1282602,7 78.9298472,7.32714517 79.5336914,7.98144531 C80.1375356,8.63574546 80.4394531,9.45930493 80.4394531,10.4521484 C80.4394531,11.4449919 80.1375356,12.2685514 79.5336914,12.9228516 C78.9298472,13.5771517 78.1282602,13.9042969 77.1289062,13.9042969 C76.1295523,13.9042969 75.3271515,13.5771517 74.7216797,12.9228516 Z M75.5957031,8.74316406 C75.2246075,9.18261938 75.0390625,9.75227515 75.0390625,10.4521484 C75.0390625,11.1520217 75.2254213,11.7216775 75.5981445,12.1611328 C75.9708677,12.6005881 76.4811166,12.8203125 77.1289062,12.8203125 C77.7701855,12.8203125 78.2788067,12.6005881 78.6547852,12.1611328 C79.0307636,11.7216775 79.21875,11.1520217 79.21875,10.4521484 C79.21875,9.75227515 79.0307636,9.18261938 78.6547852,8.74316406 C78.2788067,8.30370874 77.7701855,8.08398438 77.1289062,8.08398438 C76.4811166,8.08398438 75.970054,8.30370874 75.5957031,8.74316406 Z M81.6845703,13.7822266 L81.6845703,7.12207031 L83.1640625,7.12207031 L86.2158203,12.1611328 L86.2158203,7.12207031 L87.3339844,7.12207031 L87.3339844,13.7822266 L85.9326172,13.7822266 L82.8027344,8.62109375 L82.8027344,13.7822266 L81.6845703,13.7822266 Z" id="Combined-Shape-Copy-2" fill="#FFFFFF"></path>
                </g>
            </g>
        </g>
    </g>
</svg>