<?xml version="1.0" encoding="UTF-8"?>
<svg width="140px" height="42px" viewBox="0 0 140 42" version="1.1" xmlns="http://www.w3.org/2000/svg" xmlns:xlink="http://www.w3.org/1999/xlink">
    <!-- Generator: Sketch 49.2 (51160) - http://www.bohemiancoding.com/sketch -->
    <title>Group 12</title>
    <desc>Created with Sketch.</desc>
    <defs></defs>
    <g id="Page-1" stroke="none" stroke-width="1" fill="none" fill-rule="evenodd">
        <g id="PickMe-2.3" transform="translate(-943.000000, -1983.000000)">
            <g id="Group-4" transform="translate(782.000000, 1984.000000)">
                <g id="Group-12" transform="translate(162.000000, 0.000000)">
                    <rect id="Rectangle-8-Copy-5" stroke="#FFFFFF" stroke-width="2" x="0" y="0" width="138" height="40" rx="6"></rect>
                    <path d="M125.914179,28.1602906 L118.865706,28.1602906 C118.893518,29.2036554 119.234419,29.9982972 119.889204,30.5481894 C120.482007,31.0424566 121.249631,31.2895902 122.193666,31.2895902 C123.239414,31.2895902 124.186627,31.12351 125.043251,30.7849926 L125.41276,32.4187763 C124.416279,32.8566239 123.231468,33.0695879 121.865478,33.0695879 C120.230106,33.0695879 118.942786,32.5904189 118.007492,31.6265183 C117.072994,30.6626178 116.601771,29.3681462 116.601771,27.7454876 C116.601771,26.1474628 117.038824,24.8235895 117.906573,23.7603587 C118.824384,22.630378 120.056874,22.0661823 121.605631,22.0661823 C123.132932,22.0661823 124.284368,22.630378 125.064707,23.7603587 C125.686116,24.6622772 126,25.7723919 126,27.0930866 C126,27.5102736 125.969804,27.8654785 125.914179,28.1602906 Z M115.862754,24.3706437 C115.631513,24.3285276 115.381996,24.3110455 115.122942,24.3110455 C114.296515,24.3110455 113.660007,24.6225451 113.209445,25.243955 C112.816892,25.7970258 112.622205,26.4828017 112.622205,27.3298899 L112.622205,32.87649 L110.273243,32.87649 L110.273243,25.630151 C110.273243,24.4183222 110.251788,23.3090022 110.210467,22.3045749 L112.254285,22.3045749 L112.341696,24.3285276 L112.406062,24.3285276 C112.651606,23.6348053 113.040981,23.0745828 113.580543,22.6573958 C114.102622,22.2759678 114.670791,22.0932001 115.279487,22.0932001 C115.494835,22.0932001 115.691906,22.1043251 115.862754,22.1321376 L115.862754,24.3706437 Z M107.405381,31.509706 C106.43115,32.5800885 105.140652,33.1156771 103.53468,33.1156771 C101.980361,33.1156771 100.74072,32.6015439 99.8205245,31.571688 C98.9011239,30.5442161 98.4426155,29.2417982 98.4426155,27.677943 C98.4426155,26.0401862 98.916222,24.6980361 99.865819,23.6546714 C100.817005,22.6073334 102.0932,22.0924055 103.70235,22.0924055 C105.259848,22.0924055 106.505846,22.6017709 107.448292,23.6363946 C108.344648,24.6312862 108.794415,25.9257577 108.794415,27.5047111 C108.794415,29.1337269 108.333523,30.462368 107.405381,31.509706 Z M97.7679646,24.0647066 L95.1758429,24.0647066 L95.1758429,29.2036554 C95.1758429,30.506868 95.6359405,31.1545011 96.5497786,31.1545011 C96.9701442,31.1545011 97.3150187,31.12351 97.5931434,31.0519923 L97.6598933,32.8311954 C97.1950278,33.0052219 96.5871268,33.0926325 95.8330117,33.0926325 C94.9096379,33.0926325 94.179362,32.8145079 93.6588716,32.2447497 C93.1320241,31.6821433 92.8721762,30.730957 92.8721762,29.3967533 L92.8721762,24.0647066 L91.3297764,24.0647066 L91.3297764,22.3045749 L92.8721762,22.3045749 L92.8721762,20.369622 L95.1758429,19.6743104 L95.1758429,22.3045749 L97.7679646,22.3045749 L97.7679646,24.0647066 Z M89.4870019,31.809286 C88.5278692,32.6659099 87.1984334,33.0910433 85.4923374,33.0910433 C83.9117948,33.0910433 82.6475196,32.7859008 81.6931547,32.1795891 L82.2390737,30.2223862 C83.2673402,30.8286979 84.3973209,31.1354297 85.6274265,31.1354297 C86.5158361,31.1354297 87.2032013,30.9343853 87.6966739,30.537859 C88.1869679,30.1405381 88.4333068,29.6089227 88.4333068,28.9334771 C88.4333068,28.3470314 88.2306732,27.8464071 87.8269951,27.4379612 C87.4169599,27.0318992 86.7478715,26.6584175 85.8046316,26.3071858 C83.2403224,25.352821 81.9561812,23.9526621 81.9561812,22.1122715 C81.9561812,20.9083891 82.4043592,19.9206493 83.3118402,19.151436 C84.2185265,18.3854013 85.417641,18 86.913157,18 C88.246566,18 89.3566807,18.2336247 90.2427063,18.694517 L89.6499035,20.6088092 C88.823476,20.1614258 87.8842093,19.9341582 86.8368714,19.9341582 C86.0088546,19.9341582 85.3588376,20.1439437 84.8915881,20.54047 C84.501419,20.9083891 84.3051425,21.3510047 84.3051425,21.8714951 C84.3051425,22.4476104 84.5300261,22.9275741 84.9789988,23.3105914 C85.3715518,23.6562606 86.0819616,24.0321262 87.1078443,24.4373936 C88.3737087,24.9411965 89.2986718,25.5387672 89.8954478,26.2229538 C90.4882507,26.9039619 90.787036,27.7510501 90.787036,28.7642184 C90.787036,30.0118061 90.3507776,31.030537 89.4870019,31.809286 Z M76.0496084,31.7274378 C75.1747077,32.6516063 74.0908162,33.1156771 72.7915768,33.1156771 C71.3922125,33.1156771 70.3861959,32.6166421 69.775911,31.6122148 L69.775911,37.1635827 L67.4261551,37.1635827 L67.4261551,25.778749 C67.4261551,24.6479737 67.3959587,23.4917698 67.3395391,22.3045749 L69.4000454,22.3045749 L69.5359292,23.9796799 L69.5764559,23.9796799 C70.3647406,22.7225565 71.5495516,22.0924055 73.1443978,22.0924055 C74.3919855,22.0924055 75.4329663,22.5811102 76.2665456,23.5696447 C77.1025088,24.5534113 77.5181065,25.85424 77.5181065,27.4618004 C77.5181065,29.2656374 77.0301964,30.6808945 76.0496084,31.7274378 Z M64.4359178,31.7274378 C63.5634011,32.6516063 62.4739471,33.1156771 61.1786809,33.1156771 C59.7753434,33.1156771 58.7709161,32.6166421 58.1606312,31.6122148 L58.1606312,37.1635827 L55.8132592,37.1635827 L55.8132592,25.778749 C55.8132592,24.6479737 55.7830628,23.4917698 55.72267,22.3045749 L57.7895334,22.3045749 L57.9190601,23.9796799 L57.9603814,23.9796799 C58.7470769,22.7225565 59.9342718,22.0924055 61.5315019,22.0924055 C62.7782949,22.0924055 63.8160972,22.5811102 64.655239,23.5696447 C65.4856397,24.5534113 65.9044159,25.85424 65.9044159,27.4618004 C65.9044159,29.2656374 65.4165058,30.6808945 64.4359178,31.7274378 Z M51.8742195,32.87649 L50.5050517,28.5735044 L45.7403792,28.5735044 L44.4331933,32.87649 L42,32.87649 L46.7154047,18.2169372 L49.6333295,18.2169372 L54.3773414,32.87649 L51.8742195,32.87649 Z M121.432399,23.6951981 C120.665569,23.6951981 120.04257,24.0225905 119.561812,24.6567147 C119.170848,25.1629016 118.936429,25.7723919 118.865706,26.4796231 L123.75911,26.4796231 C123.771824,25.7859008 123.623226,25.1867408 123.304575,24.6765808 C122.896924,24.0265637 122.27154,23.6951981 121.432399,23.6951981 Z M48.1100011,20.1749347 L48.0694744,20.1749347 C47.921671,20.7979339 47.6928142,21.7173345 47.3709842,22.9371098 L46.1520036,26.7656942 L50.0886593,26.7656942 L48.8537859,22.9371098 C48.7202861,22.5437621 48.4707685,21.6227722 48.1100011,20.1749347 Z M72.3839255,23.9558406 C71.8022477,23.9558406 71.2817573,24.1473493 70.8089454,24.5311613 C70.3377228,24.9205358 70.0278125,25.4243387 69.882393,26.0481326 C69.8100806,26.3397661 69.775911,26.5773641 69.775911,26.7664888 L69.775911,28.5266205 C69.775911,29.2966284 70.0079464,29.9466455 70.481553,30.4758769 C70.9511863,31.0011352 71.5654444,31.2665456 72.3155863,31.2665456 C73.2047906,31.2665456 73.8929504,30.9288228 74.386423,30.2446362 C74.8806902,29.5636281 75.1278238,28.6648882 75.1278238,27.5452378 C75.1278238,26.5185606 74.8941991,25.6690884 74.4317176,25.0039732 C73.9207629,24.3110455 73.2381655,23.9558406 72.3839255,23.9558406 Z M103.616529,23.8104212 C102.676467,23.8104212 101.958111,24.2276081 101.467817,25.0675446 C101.042684,25.758883 100.834487,26.601998 100.834487,27.6008628 C100.834487,28.5735044 101.042684,29.4031105 101.467817,30.0960381 C101.970031,30.9343853 102.681235,31.3515723 103.599046,31.3515723 C104.492224,31.3515723 105.19866,30.9288228 105.703258,30.069815 C106.141106,29.3681462 106.359632,28.5266205 106.359632,27.5595414 C106.359632,26.5932569 106.149847,25.758883 105.731865,25.0675446 C105.232035,24.2276081 104.531161,23.8104212 103.616529,23.8104212 Z M60.7670564,23.9558406 C61.6236803,23.9558406 62.3046884,24.3110455 62.8140538,25.0039732 C63.2789193,25.6690884 63.5077761,26.5185606 63.5077761,27.5452378 C63.5077761,28.6648882 63.2638211,29.5636281 62.7703485,30.2446362 C62.2784652,30.9288228 61.5847429,31.2665456 60.7026904,31.2665456 C59.9501646,31.2665456 59.3359065,31.0011352 58.8654785,30.4758769 C58.3918719,29.9466455 58.1606312,29.2966284 58.1606312,28.5266205 L58.1606312,26.7664888 C58.1606312,26.5773641 58.1963901,26.3397661 58.2671132,26.0481326 C58.4133273,25.4243387 58.720059,24.9205358 59.1928709,24.5311613 C59.6648882,24.1473493 60.1877625,23.9558406 60.7670564,23.9558406 Z M11.238322,15.7629899 C12.5439982,13.5331356 14.9125822,12.125043 17.4191,12.0889956 C17.4440147,12.0886411 17.4694109,12.0881683 17.4948071,12.0881683 C18.5728805,12.0881683 19.5912549,12.4846893 20.489148,12.8351169 C21.1610031,13.0969035 21.7412634,13.3226427 22.1884045,13.3226427 C22.5860773,13.3226427 23.1629675,13.0996218 23.8310914,12.8406717 C24.7986735,12.4662519 26.0027649,12 27.2599355,12 C27.4207378,12 27.5810587,12.0078004 27.7366855,12.0230467 C28.8068151,12.0683127 31.4655895,12.4435598 33.1999915,14.9361462 C33.2367016,14.9888581 33.2503024,15.0538615 33.2370627,15.1162648 C33.2244248,15.1790227 33.1863907,15.2335074 33.1318672,15.2681365 L33.1082764,15.2824373 C32.6043249,15.5890171 30.0913077,17.2778064 30.1236848,20.467466 C30.1579877,24.3940283 33.4651468,25.8343863 33.8422378,25.9857852 C33.8450061,25.9867307 33.85632,25.99134 33.8595698,25.9927583 C33.9715055,26.0435792 34.0265105,26.1681494 33.9875135,26.2826736 L33.9790882,26.3085568 C33.7744746,26.9525636 33.167494,28.6386346 31.9573846,30.3749355 C30.7979471,32.0383144 29.4833643,33.9234141 27.3427439,33.9626526 C26.3421829,33.9810899 25.6646709,33.6921201 25.0074998,33.4127235 C24.3403388,33.1293085 23.6505499,32.8360839 22.5697082,32.8360839 C21.4332596,32.8360839 20.7088068,33.1389999 20.0086669,33.4321063 C19.3848358,33.6929474 18.7392194,33.9631253 17.8463815,33.9977544 C17.8097918,33.9995272 17.7740446,34 17.7382974,34 C15.8374361,34 14.4500349,32.2530621 13.0794842,30.3066228 C10.3341702,26.4138624 8.75587647,19.9937683 11.238322,15.7629899 Z M27.7346396,5.00016563 C27.8526159,4.99556993 27.9577118,5.08713034 27.9705923,5.21003575 C28.1375829,6.78105679 27.5863427,8.53531649 26.4964009,9.90200581 C25.4611727,11.1963424 23.9450342,12 22.5393489,12 C22.4409783,12 22.3415818,11.9958757 22.244579,11.9880983 C22.1372034,11.9798496 22.0504595,11.8946525 22.0366671,11.7841201 C21.8108592,10.0211404 22.6666722,8.27253694 23.5425468,7.223422 C24.5733295,5.97551375 26.2973799,5.06097023 27.7346396,5.00016563 Z M43,13.1386719 L43,6.47851562 L45.6416016,6.47851562 C46.6735078,6.47851562 47.4807914,6.78857112 48.0634766,7.40869141 C48.6461618,8.02881169 48.9375,8.82877114 48.9375,9.80859375 C48.9375,10.7884164 48.6461618,11.5883758 48.0634766,12.2084961 C47.4807914,12.8286164 46.6735078,13.1386719 45.6416016,13.1386719 L43,13.1386719 Z M44.1816406,12.0791016 L45.6416016,12.0791016 C46.3089226,12.0791016 46.8224266,11.8756531 47.1821289,11.46875 C47.5418312,11.0618469 47.7216797,10.508467 47.7216797,9.80859375 C47.7216797,9.10872046 47.5410174,8.55534058 47.1796875,8.1484375 C46.8183576,7.74153442 46.3056674,7.53808594 45.6416016,7.53808594 L44.1816406,7.53808594 L44.1816406,12.0791016 Z M49.7773438,10.5166016 C49.7773438,9.70279541 50.0190406,9.04118093 50.5024414,8.53173828 C50.9858423,8.02229563 51.6303671,7.76757812 52.4360352,7.76757812 C53.2417032,7.76757812 53.8862281,8.02310942 54.3696289,8.53417969 C54.8530298,9.04524995 55.0947266,9.70605063 55.0947266,10.5166016 C55.0947266,11.3238973 54.8530298,11.9830704 54.3696289,12.4941406 C53.8862281,13.0052109 53.2417032,13.2607422 52.4360352,13.2607422 C51.6303671,13.2607422 50.9858423,13.0052109 50.5024414,12.4941406 C50.0190406,11.9830704 49.7773438,11.3238973 49.7773438,10.5166016 Z M50.9492188,10.5166016 C50.9492188,11.0374375 51.0818672,11.4646793 51.347168,11.7983398 C51.6124688,12.1320004 51.9754209,12.2988281 52.4360352,12.2988281 C52.8966494,12.2988281 53.2587877,12.1320004 53.5224609,11.7983398 C53.7861341,11.4646793 53.9179688,11.0374375 53.9179688,10.5166016 C53.9179688,9.98925518 53.7861341,9.55957197 53.5224609,9.22753906 C53.2587877,8.89550615 52.8966494,8.72949219 52.4360352,8.72949219 C51.9754209,8.72949219 51.6124688,8.89550615 51.347168,9.22753906 C51.0818672,9.55957197 50.9492188,9.98925518 50.9492188,10.5166016 Z M55.734375,7.88964844 L56.9257812,7.88964844 L57.8730469,11.7275391 L59.0253906,7.88964844 L60.0361328,7.88964844 L61.1738281,11.7275391 L62.1162109,7.88964844 L63.2832031,7.88964844 L61.8232422,13.1386719 L60.6464844,13.1386719 L59.5136719,9.3203125 L58.3564453,13.1386719 L57.1845703,13.1386719 L55.734375,7.88964844 Z M64.2548828,13.1386719 L64.2548828,7.88964844 L65.3535156,7.88964844 L65.3535156,8.65625 C65.7994814,8.06379912 66.3723923,7.76757812 67.0722656,7.76757812 C67.6386747,7.76757812 68.0821924,7.94254382 68.402832,8.29248047 C68.7234717,8.64241711 68.8837891,9.11848657 68.8837891,9.72070312 L68.8837891,13.1386719 L67.7802734,13.1386719 L67.7802734,9.96972656 C67.7802734,9.17545176 67.4335972,8.77832031 66.7402344,8.77832031 C66.3398417,8.77832031 66.0086276,8.90852734 65.746582,9.16894531 C65.4845365,9.42936328 65.3535156,9.77278433 65.3535156,10.1992188 L65.3535156,13.1386719 L64.2548828,13.1386719 Z M70.2900391,11.7568359 L70.2900391,6 L71.3886719,6 L71.3886719,11.7666016 C71.3886719,12.1344419 71.5416651,12.3183594 71.8476562,12.3183594 C72.0266936,12.3183594 72.1764317,12.2825524 72.296875,12.2109375 L72.5068359,13.0507812 C72.3082672,13.1744798 72.0348325,13.2363281 71.6865234,13.2363281 L71.6572266,13.2363281 C71.1233697,13.2363281 70.7408866,13.0768245 70.5097656,12.7578125 C70.3632805,12.5429677 70.2900391,12.2093122 70.2900391,11.7568359 Z M72.9169922,10.5166016 C72.9169922,9.70279541 73.158689,9.04118093 73.6420898,8.53173828 C74.1254907,8.02229563 74.7700155,7.76757812 75.5756836,7.76757812 C76.3813517,7.76757812 77.0258765,8.02310942 77.5092773,8.53417969 C77.9926782,9.04524995 78.234375,9.70605063 78.234375,10.5166016 C78.234375,11.3238973 77.9926782,11.9830704 77.5092773,12.4941406 C77.0258765,13.0052109 76.3813517,13.2607422 75.5756836,13.2607422 C74.7700155,13.2607422 74.1254907,13.0052109 73.6420898,12.4941406 C73.158689,11.9830704 72.9169922,11.3238973 72.9169922,10.5166016 Z M74.0888672,10.5166016 C74.0888672,11.0374375 74.2215156,11.4646793 74.4868164,11.7983398 C74.7521172,12.1320004 75.1150693,12.2988281 75.5756836,12.2988281 C76.0362979,12.2988281 76.3984362,12.1320004 76.6621094,11.7983398 C76.9257826,11.4646793 77.0576172,11.0374375 77.0576172,10.5166016 C77.0576172,9.98925518 76.9257826,9.55957197 76.6621094,9.22753906 C76.3984362,8.89550615 76.0362979,8.72949219 75.5756836,8.72949219 C75.1150693,8.72949219 74.7521172,8.89550615 74.4868164,9.22753906 C74.2215156,9.55957197 74.0888672,9.98925518 74.0888672,10.5166016 Z M79.0351562,10.5166016 C79.0351562,9.71581631 79.253253,9.05745701 79.6894531,8.54150391 C80.1256532,8.02555081 80.7099573,7.76757812 81.4423828,7.76757812 C82.1813188,7.76757812 82.7721332,8.06379912 83.2148438,8.65625 L83.2148438,7.88964844 L84.3232422,7.88964844 L84.3232422,11.9179688 C84.3232422,12.0904957 84.351725,12.2133785 84.4086914,12.2866211 C84.4656578,12.3598636 84.5576166,12.3964844 84.6845703,12.3964844 C84.8115241,12.3964844 84.9075518,12.3736981 84.9726562,12.328125 L85.1044922,13.0898438 C84.9319653,13.1744796 84.7187513,13.2167969 84.4648438,13.2167969 L84.4355469,13.2167969 C83.8072885,13.2167969 83.4231778,12.9401069 83.2832031,12.3867188 C82.8763,12.9661487 82.2708374,13.257487 81.4667969,13.2607422 C80.7213504,13.2607422 80.1297222,13.0019557 79.6918945,12.484375 C79.2540668,11.9667943 79.0351562,11.3108764 79.0351562,10.5166016 Z M80.5830078,9.25683594 C80.3323555,9.58561362 80.2070312,10.0063451 80.2070312,10.519043 C80.2070312,11.0317408 80.3331693,11.4516585 80.5854492,11.7788086 C80.8377291,12.1059587 81.2047502,12.2695312 81.6865234,12.2695312 C82.1748071,12.2695312 82.5515937,12.1043311 82.8168945,11.7739258 C83.0821953,11.4435205 83.2148437,11.0244166 83.2148437,10.5166016 C83.2148437,10.0022761 83.079754,9.58073081 82.8095703,9.25195312 C82.5393867,8.92317544 82.1642277,8.75878906 81.684082,8.75878906 C81.2039364,8.75878906 80.8369153,8.92480303 80.5830078,9.25683594 Z M85.6513672,10.5166016 C85.6513672,9.71581631 85.869464,9.05745701 86.3056641,8.54150391 C86.7418642,8.02555081 87.3261682,7.76757812 88.0585938,7.76757812 C88.7975297,7.76757812 89.3883441,8.06379912 89.8310547,8.65625 L89.8310547,6 L90.9394531,6 L90.9394531,13.1386719 L89.8310547,13.1386719 L89.8310547,12.3671875 C89.3915994,12.9596384 88.800785,13.257487 88.0585938,13.2607422 C87.3261682,13.2607422 86.7418642,13.0019557 86.3056641,12.484375 C85.869464,11.9667943 85.6513672,11.3108764 85.6513672,10.5166016 Z M87.1992187,9.25683594 C86.9485665,9.58561362 86.8232422,10.0063451 86.8232422,10.519043 C86.8232422,11.0317408 86.9493802,11.4516585 87.2016602,11.7788086 C87.4539401,12.1059587 87.8209611,12.2695312 88.3027344,12.2695312 C88.7910181,12.2695312 89.1678047,12.1043311 89.4331055,11.7739258 C89.6984063,11.4435205 89.8310547,11.0244166 89.8310547,10.5166016 C89.8310547,10.0022761 89.6959649,9.58073081 89.4257812,9.25195312 C89.1555976,8.92317544 88.7804386,8.75878906 88.300293,8.75878906 C87.8201473,8.75878906 87.4531263,8.92480303 87.1992187,9.25683594 Z M94.7626953,10.5166016 C94.7626953,9.70279541 95.0043921,9.04118093 95.487793,8.53173828 C95.9711938,8.02229563 96.6157186,7.76757812 97.4213867,7.76757812 C98.2270548,7.76757812 98.8715796,8.02310942 99.3549805,8.53417969 C99.8383813,9.04524995 100.080078,9.70605063 100.080078,10.5166016 C100.080078,11.3238973 99.8383813,11.9830704 99.3549805,12.4941406 C98.8715796,13.0052109 98.2270548,13.2607422 97.4213867,13.2607422 C96.6157186,13.2607422 95.9711938,13.0052109 95.487793,12.4941406 C95.0043921,11.9830704 94.7626953,11.3238973 94.7626953,10.5166016 Z M95.9345703,10.5166016 C95.9345703,11.0374375 96.0672187,11.4646793 96.3325195,11.7983398 C96.5978203,12.1320004 96.9607724,12.2988281 97.4213867,12.2988281 C97.882001,12.2988281 98.2441393,12.1320004 98.5078125,11.7983398 C98.7714857,11.4646793 98.9033203,11.0374375 98.9033203,10.5166016 C98.9033203,9.98925518 98.7714857,9.55957197 98.5078125,9.22753906 C98.2441393,8.89550615 97.882001,8.72949219 97.4213867,8.72949219 C96.9607724,8.72949219 96.5978203,8.89550615 96.3325195,9.22753906 C96.0672187,9.55957197 95.9345703,9.98925518 95.9345703,10.5166016 Z M101.212891,13.1386719 L101.212891,7.88964844 L102.311523,7.88964844 L102.311523,8.65625 C102.757489,8.06379912 103.3304,7.76757812 104.030273,7.76757812 C104.596683,7.76757812 105.0402,7.94254382 105.36084,8.29248047 C105.681479,8.64241711 105.841797,9.11848657 105.841797,9.72070312 L105.841797,13.1386719 L104.738281,13.1386719 L104.738281,9.96972656 C104.738281,9.17545176 104.391605,8.77832031 103.698242,8.77832031 C103.29785,8.77832031 102.966635,8.90852734 102.70459,9.16894531 C102.442544,9.42936328 102.311523,9.77278433 102.311523,10.1992188 L102.311523,13.1386719 L101.212891,13.1386719 Z M109.381836,8.73925781 L109.381836,7.88964844 L110.260742,7.88964844 L110.260742,6.47851562 L111.369141,6.47851562 L111.369141,7.88964844 L112.990234,7.88964844 L112.990234,8.73925781 L111.369141,8.73925781 L111.369141,11.4980469 C111.369141,12.0188828 111.606768,12.2792969 112.082031,12.2792969 C112.329428,12.2792969 112.549153,12.2028002 112.741211,12.0498047 L113.180664,12.8701172 C112.842121,13.1305352 112.425458,13.2607422 111.930664,13.2607422 C111.263343,13.2607422 110.789715,13.0361351 110.509766,12.5869141 C110.343749,12.339517 110.260742,11.9733097 110.260742,11.4882812 L110.260742,8.73925781 L109.381836,8.73925781 Z M114.049805,13.1386719 L114.049805,6 L115.148437,6 L115.148437,8.65625 C115.594403,8.06379912 116.167314,7.76757812 116.867187,7.76757812 C117.433597,7.76757812 117.877114,7.94254382 118.197754,8.29248047 C118.518394,8.64241711 118.678711,9.11848657 118.678711,9.72070312 L118.678711,13.1386719 L117.575195,13.1386719 L117.575195,9.96972656 C117.575195,9.17545176 117.228519,8.77832031 116.535156,8.77832031 C116.134764,8.77832031 115.803549,8.90852734 115.541504,9.16894531 C115.279458,9.42936328 115.148437,9.77278433 115.148437,10.1992188 L115.148437,13.1386719 L114.049805,13.1386719 Z M120.470703,12.4990234 C119.985675,11.9912084 119.743164,11.3377319 119.743164,10.5385742 C119.743164,9.73941658 119.981606,9.0778021 120.458496,8.55371094 C120.935386,8.02961978 121.57747,7.76757812 122.384766,7.76757812 C123.16602,7.76757812 123.787758,8.01415769 124.25,8.50732422 C124.712242,9.00049075 124.943359,9.63443623 124.943359,10.4091797 C124.943359,10.5426439 124.936849,10.6695958 124.923828,10.7900391 L120.924805,10.7900391 C120.950846,11.2620466 121.107095,11.6282539 121.393555,11.8886719 C121.680014,12.1490898 122.059242,12.2792969 122.53125,12.2792969 C123.136722,12.2792969 123.644529,12.0595725 124.054687,11.6201172 L124.772461,12.3085938 C124.1735,12.9433625 123.413416,13.2607422 122.492187,13.2607422 C121.632808,13.2607422 120.958987,13.0068385 120.470703,12.4990234 Z M120.944336,9.98925781 L123.834961,9.98925781 C123.795898,9.56282339 123.643719,9.23405063 123.378418,9.00292969 C123.113117,8.77180874 122.785158,8.65625 122.394531,8.65625 C121.981118,8.65625 121.644207,8.77994668 121.383789,9.02734375 C121.123371,9.27474082 120.976888,9.59537563 120.944336,9.98925781 Z" id="Combined-Shape-Copy" fill="#FFFFFF"></path>
                </g>
            </g>
        </g>
    </g>
</svg>