<svg width="64" height="64" viewBox="0 0 64 64" fill="none" xmlns="http://www.w3.org/2000/svg">
<rect width="64" height="64" rx="32" fill="white"></rect>
<path d="M32.6913 50.3066C28.299 50.3834 24.5051 49.8344 24.2635 49.0712C24.1701 48.7857 24.6039 48.5222 25.411 48.2696C27.5072 47.7779 29.6543 47.5364 31.8074 47.5503C32.1697 47.5503 32.5211 47.5503 32.867 47.5503C36.8092 47.5503 40.0046 48.0994 40.2352 48.7912C40.4658 49.483 37.1002 50.2242 32.6913 50.3066Z" fill="#232323"></path>
<path d="M18.5224 32.9425C18.5224 32.9425 17.7787 33.2251 16.8193 33.6862" stroke="#CE640D" stroke-width="0.346647" stroke-linecap="round" stroke-linejoin="round"></path>
<path d="M16.7832 34.9888C14.656 36.5514 13.4611 38.5998 18.2276 40.1886C26.5853 42.9789 60.384 42.8804 47.4961 49.5903" stroke="#CE640D" stroke-width="0.306014" stroke-linecap="round" stroke-linejoin="round" stroke-dasharray="1.56 1.56"></path>
<path d="M32.8226 19.6539C33.5122 19.6539 34.1863 19.4494 34.7596 19.0663C35.3329 18.6832 35.7798 18.1387 36.0437 17.5016C36.3076 16.8646 36.3766 16.1636 36.2421 15.4873C36.1076 14.811 35.7755 14.1897 35.2879 13.7022C34.8003 13.2146 34.1791 12.8825 33.5028 12.748C32.8265 12.6135 32.1255 12.6825 31.4884 12.9464C30.8514 13.2103 30.3069 13.6571 29.9238 14.2305C29.5407 14.8038 29.3362 15.4779 29.3362 16.1674C29.3355 16.6255 29.4251 17.0792 29.6001 17.5025C29.7751 17.9258 30.0318 18.3105 30.3557 18.6343C30.6796 18.9582 31.0642 19.215 31.4876 19.39C31.9109 19.5649 32.3646 19.6546 32.8226 19.6539Z" fill="#F79433"></path>
<path d="M42.5782 29.9409C38.7019 22.1829 34.0844 22.3861 30.7901 21.6174C27.4959 20.8487 25.5797 14.8147 25.5797 14.8147C25.382 13.9472 24.8769 13.7715 24.8769 13.7715C23.9271 13.5794 23.7788 14.6994 23.7788 14.6994C23.2298 19.9373 27.5617 24.0332 27.5617 24.0332C28.5116 24.8019 28.583 28.3213 28.583 28.3213V48.0869C28.583 48.5689 28.7744 49.0312 29.1153 49.372C29.4561 49.7128 29.9183 49.9043 30.4003 49.9043H33.6013C34.0832 49.9043 34.5455 49.7128 34.8863 49.372C35.2271 49.0312 35.4186 48.5689 35.4186 48.0869V28.3213C35.4186 27.4263 36.2751 26.6741 37.3512 27.3659C38.4274 28.0577 40.7773 31.1159 40.7773 31.1159C41.3263 32.0767 42.6166 31.6979 42.6166 31.6979C43.0613 31.0555 42.6166 29.919 42.6166 29.919" fill="#F79433"></path>
<path d="M49.1274 35.455C48.1066 34.4385 46.7247 33.8677 45.2841 33.8677C43.8434 33.8677 42.4615 34.4385 41.4407 35.455C39.4861 37.3822 39.2446 40.9894 40.8917 43.1417L45.2841 49.4557L49.616 43.1417C51.2412 40.9894 51.0271 37.3822 49.1274 35.455ZM45.2841 41.0608C44.9276 41.0608 44.5792 40.955 44.283 40.7569C43.9867 40.5588 43.7559 40.2772 43.6197 39.9478C43.4836 39.6184 43.4483 39.2561 43.5182 38.9066C43.5881 38.5571 43.7602 38.2362 44.0126 37.9846C44.265 37.7329 44.5864 37.5619 44.9361 37.493C45.2858 37.4241 45.6481 37.4606 45.977 37.5977C46.306 37.7349 46.5869 37.9666 46.7841 38.2634C46.9813 38.5603 47.086 38.909 47.0849 39.2654C47.0857 39.5019 47.0395 39.7361 46.9492 39.9546C46.8589 40.1731 46.7262 40.3716 46.5588 40.5385C46.3913 40.7055 46.1925 40.8376 45.9737 40.9272C45.7549 41.0169 45.5205 41.0623 45.2841 41.0608Z" fill="#FC982B"></path>
<path d="M22.3431 23.2942C22.0366 22.9829 21.6712 22.7358 21.2683 22.567C20.8653 22.3983 20.4328 22.3114 19.9959 22.3114C19.5591 22.3114 19.1266 22.3983 18.7236 22.567C18.3207 22.7358 17.9553 22.9829 17.6488 23.2942C17.0861 23.9317 16.7506 24.7377 16.695 25.5862C16.6394 26.4346 16.8667 27.2776 17.3413 27.9831L19.9987 31.8264L22.6506 27.9831C23.1326 27.2803 23.3644 26.4358 23.3086 25.5854C23.2529 24.735 22.9128 23.928 22.3431 23.2942ZM20.0316 26.7038C19.8145 26.7038 19.6021 26.6394 19.4216 26.5187C19.241 26.3981 19.1002 26.2266 19.0171 26.0259C18.934 25.8253 18.9123 25.6045 18.9546 25.3915C18.997 25.1785 19.1016 24.9828 19.2552 24.8292C19.4087 24.6757 19.6044 24.5711 19.8174 24.5287C20.0304 24.4863 20.2512 24.5081 20.4519 24.5912C20.6525 24.6743 20.824 24.815 20.9447 24.9956C21.0653 25.1762 21.1297 25.3885 21.1297 25.6057C21.1319 25.7513 21.1051 25.8958 21.0509 26.031C20.9967 26.1661 20.9162 26.2891 20.814 26.3928C20.7118 26.4965 20.59 26.5789 20.4557 26.6351C20.3214 26.6913 20.1772 26.7203 20.0316 26.7203V26.7038Z" fill="#3491F7"></path>
</svg>